  0
SECTION
  2
HEADER
  9
$ACADVER
  1
AC1027
  9
$ACADMAINTVER
 70
   125
  9
$DWGCODEPAGE
  3
ANSI_1252
  9
$REQUIREDVERSIONS
160
                 0
  9
$INSBASE
 10
0.0
 20
0.0
 30
0.0
  9
$EXTMIN
 10
1.000000000000000E+20
 20
1.000000000000000E+20
 30
1.000000000000000E+20
  9
$EXTMAX
 10
-1.000000000000000E+20
 20
-1.000000000000000E+20
 30
-1.000000000000000E+20
  9
$LIMMIN
 10
0.0
 20
0.0
  9
$LIMMAX
 10
12.0
 20
9.0
  9
$ORTHOMODE
 70
     0
  9
$REGENMODE
 70
     1
  9
$FILLMODE
 70
     1
  9
$QTEXTMODE
 70
     0
  9
$MIRRTEXT
 70
     0
  9
$LTSCALE
 40
1.0
  9
$ATTMODE
 70
     1
  9
$TEXTSIZE
 40
0.2
  9
$TRACEWID
 40
0.05
  9
$TEXTSTYLE
  7
Standard
  9
$CLAYER
  8
0
  9
$CELTYPE
  6
ByLayer
  9
$CECOLOR
 62
   256
  9
$CELTSCALE
 40
1.0
  9
$DISPSILH
 70
     0
  9
$DIMSCALE
 40
1.0
  9
$DIMASZ
 40
0.18
  9
$DIMEXO
 40
0.0625
  9
$DIMDLI
 40
0.38
  9
$DIMRND
 40
0.0
  9
$DIMDLE
 40
0.0
  9
$DIMEXE
 40
0.18
  9
$DIMTP
 40
0.0
  9
$DIMTM
 40
0.0
  9
$DIMTXT
 40
0.18
  9
$DIMCEN
 40
0.09
  9
$DIMTSZ
 40
0.0
  9
$DIMTOL
 70
     0
  9
$DIMLIM
 70
     0
  9
$DIMTIH
 70
     1
  9
$DIMTOH
 70
     1
  9
$DIMSE1
 70
     0
  9
$DIMSE2
 70
     0
  9
$DIMTAD
 70
     0
  9
$DIMZIN
 70
     0
  9
$DIMBLK
  1

  9
$DIMASO
 70
     1
  9
$DIMSHO
 70
     1
  9
$DIMPOST
  1

  9
$DIMAPOST
  1

  9
$DIMALT
 70
     0
  9
$DIMALTD
 70
     2
  9
$DIMALTF
 40
25.4
  9
$DIMLFAC
 40
1.0
  9
$DIMTOFL
 70
     0
  9
$DIMTVP
 40
0.0
  9
$DIMTIX
 70
     0
  9
$DIMSOXD
 70
     0
  9
$DIMSAH
 70
     0
  9
$DIMBLK1
  1

  9
$DIMBLK2
  1

  9
$DIMSTYLE
  2
Standard
  9
$DIMCLRD
 70
     0
  9
$DIMCLRE
 70
     0
  9
$DIMCLRT
 70
     0
  9
$DIMTFAC
 40
1.0
  9
$DIMGAP
 40
0.09
  9
$DIMJUST
 70
     0
  9
$DIMSD1
 70
     0
  9
$DIMSD2
 70
     0
  9
$DIMTOLJ
 70
     1
  9
$DIMTZIN
 70
     0
  9
$DIMALTZ
 70
     0
  9
$DIMALTTZ
 70
     0
  9
$DIMUPT
 70
     0
  9
$DIMDEC
 70
     4
  9
$DIMTDEC
 70
     4
  9
$DIMALTU
 70
     2
  9
$DIMALTTD
 70
     2
  9
$DIMTXSTY
  7
Standard
  9
$DIMAUNIT
 70
     0
  9
$DIMADEC
 70
     0
  9
$DIMALTRND
 40
0.0
  9
$DIMAZIN
 70
     0
  9
$DIMDSEP
 70
    46
  9
$DIMATFIT
 70
     3
  9
$DIMFRAC
 70
     0
  9
$DIMLDRBLK
  1

  9
$DIMLUNIT
 70
     2
  9
$DIMLWD
 70
    -2
  9
$DIMLWE
 70
    -2
  9
$DIMTMOVE
 70
     0
  9
$DIMFXL
 40
1.0
  9
$DIMFXLON
 70
     0
  9
$DIMJOGANG
 40
0.7853981633974483
  9
$DIMTFILL
 70
     0
  9
$DIMTFILLCLR
 70
     0
  9
$DIMARCSYM
 70
     0
  9
$DIMLTYPE
  6

  9
$DIMLTEX1
  6

  9
$DIMLTEX2
  6

  9
$DIMTXTDIRECTION
 70
     0
  9
$LUNITS
 70
     2
  9
$LUPREC
 70
     4
  9
$SKETCHINC
 40
0.1
  9
$FILLETRAD
 40
0.0
  9
$AUNITS
 70
     0
  9
$AUPREC
 70
     0
  9
$MENU
  1
.
  9
$ELEVATION
 40
0.0
  9
$PELEVATION
 40
0.0
  9
$THICKNESS
 40
0.0
  9
$LIMCHECK
 70
     0
  9
$CHAMFERA
 40
0.0
  9
$CHAMFERB
 40
0.0
  9
$CHAMFERC
 40
0.0
  9
$CHAMFERD
 40
0.0
  9
$SKPOLY
 70
     0
  9
$TDCREATE
 40
2460412.431898149
  9
$TDUCREATE
 40
2460412.431898149
  9
$TDUPDATE
 40
2460412.431898149
  9
$TDUUPDATE
 40
2460412.431898149
  9
$TDINDWG
 40
0.0000000000
  9
$TDUSRTIMER
 40
0.0000000000
  9
$USRTIMER
 70
     1
  9
$ANGBASE
 50
0.0
  9
$ANGDIR
 70
     0
  9
$PDMODE
 70
     0
  9
$PDSIZE
 40
0.0
  9
$PLINEWID
 40
0.0
  9
$SPLFRAME
 70
     0
  9
$SPLINETYPE
 70
     6
  9
$SPLINESEGS
 70
     8
  9
$HANDSEED
  5
229
  9
$SURFTAB1
 70
     6
  9
$SURFTAB2
 70
     6
  9
$SURFTYPE
 70
     6
  9
$SURFU
 70
     6
  9
$SURFV
 70
     6
  9
$UCSBASE
  2

  9
$UCSNAME
  2

  9
$UCSORG
 10
0.0
 20
0.0
 30
0.0
  9
$UCSXDIR
 10
1.0
 20
0.0
 30
0.0
  9
$UCSYDIR
 10
0.0
 20
1.0
 30
0.0
  9
$UCSORTHOREF
  2

  9
$UCSORTHOVIEW
 70
     0
  9
$UCSORGTOP
 10
0.0
 20
0.0
 30
0.0
  9
$UCSORGBOTTOM
 10
0.0
 20
0.0
 30
0.0
  9
$UCSORGLEFT
 10
0.0
 20
0.0
 30
0.0
  9
$UCSORGRIGHT
 10
0.0
 20
0.0
 30
0.0
  9
$UCSORGFRONT
 10
0.0
 20
0.0
 30
0.0
  9
$UCSORGBACK
 10
0.0
 20
0.0
 30
0.0
  9
$PUCSBASE
  2

  9
$PUCSNAME
  2

  9
$PUCSORG
 10
0.0
 20
0.0
 30
0.0
  9
$PUCSXDIR
 10
1.0
 20
0.0
 30
0.0
  9
$PUCSYDIR
 10
0.0
 20
1.0
 30
0.0
  9
$PUCSORTHOREF
  2

  9
$PUCSORTHOVIEW
 70
     0
  9
$PUCSORGTOP
 10
0.0
 20
0.0
 30
0.0
  9
$PUCSORGBOTTOM
 10
0.0
 20
0.0
 30
0.0
  9
$PUCSORGLEFT
 10
0.0
 20
0.0
 30
0.0
  9
$PUCSORGRIGHT
 10
0.0
 20
0.0
 30
0.0
  9
$PUCSORGFRONT
 10
0.0
 20
0.0
 30
0.0
  9
$PUCSORGBACK
 10
0.0
 20
0.0
 30
0.0
  9
$USERI1
 70
     0
  9
$USERI2
 70
     0
  9
$USERI3
 70
     0
  9
$USERI4
 70
     0
  9
$USERI5
 70
     0
  9
$USERR1
 40
0.0
  9
$USERR2
 40
0.0
  9
$USERR3
 40
0.0
  9
$USERR4
 40
0.0
  9
$USERR5
 40
0.0
  9
$WORLDVIEW
 70
     1
  9
$SHADEDGE
 70
     3
  9
$SHADEDIF
 70
    70
  9
$TILEMODE
 70
     1
  9
$MAXACTVP
 70
    64
  9
$PINSBASE
 10
0.0
 20
0.0
 30
0.0
  9
$PLIMCHECK
 70
     0
  9
$PEXTMIN
 10
1.000000000000000E+20
 20
1.000000000000000E+20
 30
1.000000000000000E+20
  9
$PEXTMAX
 10
-1.000000000000000E+20
 20
-1.000000000000000E+20
 30
-1.000000000000000E+20
  9
$PLIMMIN
 10
0.0
 20
0.0
  9
$PLIMMAX
 10
12.0
 20
9.0
  9
$UNITMODE
 70
     0
  9
$VISRETAIN
 70
     1
  9
$PLINEGEN
 70
     0
  9
$PSLTSCALE
 70
     1
  9
$TREEDEPTH
 70
  3020
  9
$CMLSTYLE
  2
Standard
  9
$CMLJUST
 70
     0
  9
$CMLSCALE
 40
1.0
  9
$PROXYGRAPHICS
 70
     1
  9
$MEASUREMENT
 70
     0
  9
$CELWEIGHT
370
    -1
  9
$ENDCAPS
280
     0
  9
$JOINSTYLE
280
     0
  9
$LWDISPLAY
290
     0
  9
$INSUNITS
 70
     5
  9
$HYPERLINKBASE
  1

  9
$STYLESHEET
  1

  9
$XEDIT
290
     1
  9
$CEPSNTYPE
380
     0
  9
$PSTYLEMODE
290
     1
  9
$FINGERPRINTGUID
  2
{74E31E1F-E8D2-7644-BFEC-098DAC4A9F18}
  9
$VERSIONGUID
  2
{58A8012C-F3A8-EC44-9AF2-A1C5468520A2}
  9
$EXTNAMES
290
     1
  9
$PSVPSCALE
 40
0.0
  9
$OLESTARTUP
290
     0
  9
$SORTENTS
280
   127
  9
$INDEXCTL
280
     0
  9
$HIDETEXT
280
     1
  9
$XCLIPFRAME
280
     2
  9
$HALOGAP
280
     0
  9
$OBSCOLOR
 70
   257
  9
$OBSLTYPE
280
     0
  9
$INTERSECTIONDISPLAY
280
     0
  9
$INTERSECTIONCOLOR
 70
   257
  9
$DIMASSOC
280
     2
  9
$PROJECTNAME
  1

  9
$CAMERADISPLAY
290
     0
  9
$LENSLENGTH
 40
50.0
  9
$CAMERAHEIGHT
 40
0.0
  9
$STEPSPERSEC
 40
2.0
  9
$STEPSIZE
 40
6.0
  9
$3DDWFPREC
 40
2.0
  9
$PSOLWIDTH
 40
0.25
  9
$PSOLHEIGHT
 40
4.0
  9
$LOFTANG1
 40
1.570796326794896
  9
$LOFTANG2
 40
1.570796326794896
  9
$LOFTMAG1
 40
0.0
  9
$LOFTMAG2
 40
0.0
  9
$LOFTPARAM
 70
     7
  9
$LOFTNORMALS
280
     1
  9
$LATITUDE
 40
37.795
  9
$LONGITUDE
 40
-122.394
  9
$NORTHDIRECTION
 40
0.0
  9
$TIMEZONE
 70
 -8000
  9
$LIGHTGLYPHDISPLAY
280
     1
  9
$TILEMODELIGHTSYNCH
280
     1
  9
$CMATERIAL
347
11
  9
$SOLIDHIST
280
     0
  9
$SHOWHIST
280
     1
  9
$DWFFRAME
280
     2
  9
$DGNFRAME
280
     0
  9
$REALWORLDSCALE
290
     1
  9
$INTERFERECOLOR
 62
     1
  9
$INTERFEREOBJVS
345
33
  9
$INTERFEREVPVS
346
30
  9
$CSHADOW
280
     0
  9
$SHADOWPLANELOCATION
 40
0.0
  0
ENDSEC
  0
SECTION
  2
CLASSES
  0
CLASS
  1
ACDBDICTIONARYWDFLT
  2
AcDbDictionaryWithDefault
  3
ObjectDBX Classes
 90
        0
 91
        1
280
     0
281
     0
  0
CLASS
  1
MATERIAL
  2
AcDbMaterial
  3
ObjectDBX Classes
 90
     1153
 91
        3
280
     0
281
     0
  0
CLASS
  1
VISUALSTYLE
  2
AcDbVisualStyle
  3
ObjectDBX Classes
 90
     4095
 91
       24
280
     0
281
     0
  0
CLASS
  1
SCALE
  2
AcDbScale
  3
ObjectDBX Classes
 90
     1153
 91
       17
280
     0
281
     0
  0
CLASS
  1
TABLESTYLE
  2
AcDbTableStyle
  3
ObjectDBX Classes
 90
     4095
 91
        1
280
     0
281
     0
  0
CLASS
  1
MLEADERSTYLE
  2
AcDbMLeaderStyle
  3
ACDB_MLEADERSTYLE_CLASS
 90
     4095
 91
        1
280
     0
281
     0
  0
CLASS
  1
ACDBSECTIONVIEWSTYLE
  2
AcDbSectionViewStyle
  3
ObjectDBX Classes
 90
     1025
 91
        1
280
     0
281
     0
  0
CLASS
  1
ACDBDETAILVIEWSTYLE
  2
AcDbDetailViewStyle
  3
ObjectDBX Classes
 90
     1025
 91
        1
280
     0
281
     0
  0
CLASS
  1
DICTIONARYVAR
  2
AcDbDictionaryVar
  3
ObjectDBX Classes
 90
        0
 91
        5
280
     0
281
     0
  0
CLASS
  1
CELLSTYLEMAP
  2
AcDbCellStyleMap
  3
ObjectDBX Classes
 90
     1152
 91
        1
280
     0
281
     0
  0
ENDSEC
  0
SECTION
  2
TABLES
  0
TABLE
  2
VPORT
  5
8
330
0
100
AcDbSymbolTable
 70
     1
1001
ACAD
1000
DbSaveVer
1071
      291
  0
VPORT
  5
57
330
8
100
AcDbSymbolTableRecord
100
AcDbViewportTableRecord
  2
*Active
 70
     0
 10
0.0
 20
0.0
 11
1.0
 21
1.0
 12
500.0
 22
500.0
 13
0.0
 23
0.0
 14
1.0
 24
1.0
 15
0.0
 25
0.0
 16
0.0
 26
0.0
 36
1.0
 17
0.0
 27
0.0
 37
0.0
 40
12.0
 41
1.0
 42
50.0
 43
0.0
 44
0.0
 50
0.0
 51
0.0
 71
     0
 72
   100
 73
     1
 74
     1
 75
     0
 76
     0
 77
     0
 78
     0
281
     0
 65
     1
110
0.0
120
0.0
130
0.0
111
1.0
121
0.0
131
0.0
112
0.0
122
1.0
132
0.0
 79
     0
146
0.0
 60
     3
 61
     5
292
     1
282
     1
141
0.0
142
0.0
 63
   250
421
  3355443
  0
ENDTAB
  0
TABLE
  2
LTYPE
  5
5
330
0
100
AcDbSymbolTable
 70
     1
  0
LTYPE
  5
5B
330
5
100
AcDbSymbolTableRecord
100
AcDbLinetypeTableRecord
  2
ByBlock
 70
     0
  3

 72
    65
 73
     0
 40
0.0
  0
LTYPE
  5
5C
330
5
100
AcDbSymbolTableRecord
100
AcDbLinetypeTableRecord
  2
ByLayer
 70
     0
  3

 72
    65
 73
     0
 40
0.0
  0
LTYPE
  5
5D
330
5
100
AcDbSymbolTableRecord
100
AcDbLinetypeTableRecord
  2
Continuous
 70
     0
  3
Solid line
 72
    65
 73
     0
 40
0.0
  0
ENDTAB
  0
TABLE
  2
LAYER
  5
2
330
0
100
AcDbSymbolTable
 70
     7
  0
LAYER
  5
54
330
2
100
AcDbSymbolTableRecord
100
AcDbLayerTableRecord
  2
0
 70
     0
 62
     7
  6
Continuous
370
    -3
390
F
347
21
348
0
  0
LAYER
  5
7A
330
2
100
AcDbSymbolTableRecord
100
AcDbLayerTableRecord
  2
box (1) v3 v1_box (1) v4_front_outsideCutPath
 70
     0
 62
     7
  6
Continuous
370
    -3
390
F
347
21
348
0
1001
NFusion_SketchTransform
1000
1.000000;0.000000;0.000000;0.000000;0.000000;1.000000;0.000000;0.000000;0.000000;0.000000;1.000000;0.000000;0.000000;0.000000;0.000000;1.000000
  0
LAYER
  5
FC
330
2
100
AcDbSymbolTableRecord
100
AcDbLayerTableRecord
  2
box (1) v3 v1_box (1) v4_left_outsideCutPath
 70
     0
 62
     7
  6
Continuous
370
    -3
390
F
347
21
348
0
1001
NFusion_SketchTransform
1000
1.000000;0.000000;0.000000;0.000000;0.000000;1.000000;0.000000;0.000000;0.000000;0.000000;1.000000;0.000000;0.000000;0.000000;0.000000;1.000000
  0
LAYER
  5
137
330
2
100
AcDbSymbolTableRecord
100
AcDbLayerTableRecord
  2
box (1) v3 v1_box (1) v4_top_outsideCutPath
 70
     0
 62
     7
  6
Continuous
370
    -3
390
F
347
21
348
0
1001
NFusion_SketchTransform
1000
1.000000;0.000000;0.000000;0.000000;0.000000;1.000000;0.000000;0.000000;0.000000;0.000000;1.000000;0.000000;0.000000;0.000000;0.000000;1.000000
  0
LAYER
  5
15A
330
2
100
AcDbSymbolTableRecord
100
AcDbLayerTableRecord
  2
box (1) v3 v1_box (1) v4_back_outsideCutPath
 70
     0
 62
     7
  6
Continuous
370
    -3
390
F
347
21
348
0
1001
NFusion_SketchTransform
1000
1.000000;0.000000;0.000000;0.000000;0.000000;1.000000;0.000000;0.000000;0.000000;0.000000;1.000000;0.000000;0.000000;0.000000;0.000000;1.000000
  0
LAYER
  5
1BC
330
2
100
AcDbSymbolTableRecord
100
AcDbLayerTableRecord
  2
box (1) v3 v1_box (1) v4_right_outsideCutPath
 70
     0
 62
     7
  6
Continuous
370
    -3
390
F
347
21
348
0
1001
NFusion_SketchTransform
1000
1.000000;0.000000;0.000000;0.000000;0.000000;1.000000;0.000000;0.000000;0.000000;0.000000;1.000000;0.000000;0.000000;0.000000;0.000000;1.000000
  0
LAYER
  5
1F8
330
2
100
AcDbSymbolTableRecord
100
AcDbLayerTableRecord
  2
box (1) v3 v1_box (1) v4_bottom_outsideCutPath
 70
     0
 62
     7
  6
Continuous
370
    -3
390
F
347
21
348
0
1001
NFusion_SketchTransform
1000
1.000000;0.000000;0.000000;0.000000;0.000000;1.000000;0.000000;0.000000;0.000000;0.000000;1.000000;0.000000;0.000000;0.000000;0.000000;1.000000
  0
ENDTAB
  0
TABLE
  2
STYLE
  5
3
330
0
100
AcDbSymbolTable
 70
     2
  0
STYLE
  5
55
330
3
100
AcDbSymbolTableRecord
100
AcDbTextStyleTableRecord
  2
Standard
 70
     0
 40
0.0
 41
1.0
 50
0.0
 71
     0
 42
0.2
  3
txt
  4

  0
STYLE
  5
5A
330
3
100
AcDbSymbolTableRecord
100
AcDbTextStyleTableRecord
  2
Annotative
 70
     0
 40
0.0
 41
1.0
 50
0.0
 71
     0
 42
0.2
  3
txt
  4

1001
AcadAnnotative
1000
AnnotativeData
1002
{
1070
     1
1070
     1
1002
}
  0
ENDTAB
  0
TABLE
  2
VIEW
  5
6
330
0
100
AcDbSymbolTable
 70
     0
  0
ENDTAB
  0
TABLE
  2
UCS
  5
7
330
0
100
AcDbSymbolTable
 70
     0
  0
ENDTAB
  0
TABLE
  2
APPID
  5
9
330
0
100
AcDbSymbolTable
 70
     4
  0
APPID
  5
56
330
9
100
AcDbSymbolTableRecord
100
AcDbRegAppTableRecord
  2
ACAD
 70
     0
  0
APPID
  5
5E
330
9
100
AcDbSymbolTableRecord
100
AcDbRegAppTableRecord
  2
AcadAnnotative
 70
     0
  0
APPID
  5
78
330
9
100
AcDbSymbolTableRecord
100
AcDbRegAppTableRecord
  2
EDIT_IN_FUSION_ACAD_ADDIN
 70
     0
  0
APPID
  5
79
330
9
100
AcDbSymbolTableRecord
100
AcDbRegAppTableRecord
  2
NFusion_SketchTransform
 70
     0
  0
ENDTAB
  0
TABLE
  2
DIMSTYLE
  5
A
330
0
100
AcDbSymbolTable
 70
     2
100
AcDbDimStyleTable
 71
     0
  0
DIMSTYLE
105
58
330
A
100
AcDbSymbolTableRecord
100
AcDbDimStyleTableRecord
  2
Standard
 70
     0
340
55
  0
DIMSTYLE
105
59
330
A
100
AcDbSymbolTableRecord
100
AcDbDimStyleTableRecord
  2
Annotative
 70
     0
340
55
1001
AcadAnnotative
1000
AnnotativeData
1002
{
1070
     1
1070
     1
1002
}
  0
ENDTAB
  0
TABLE
  2
BLOCK_RECORD
  5
1
330
0
100
AcDbSymbolTable
 70
     1
  0
BLOCK_RECORD
  5
70
330
1
100
AcDbSymbolTableRecord
100
AcDbBlockTableRecord
  2
*Model_Space
340
73
 70
     0
280
     1
281
     0
  0
BLOCK_RECORD
  5
6C
330
1
100
AcDbSymbolTableRecord
100
AcDbBlockTableRecord
  2
*Paper_Space
340
6F
 70
     0
280
     1
281
     0
  0
BLOCK_RECORD
  5
74
330
1
100
AcDbSymbolTableRecord
100
AcDbBlockTableRecord
  2
*Paper_Space0
340
77
 70
     0
280
     1
281
     0
  0
ENDTAB
  0
ENDSEC
  0
SECTION
  2
BLOCKS
  0
BLOCK
  5
71
330
70
100
AcDbEntity
  8
0
100
AcDbBlockBegin
  2
*Model_Space
 70
     0
 10
0.0
 20
0.0
 30
0.0
  3
*Model_Space
  1

  0
ENDBLK
  5
72
330
70
100
AcDbEntity
  8
0
100
AcDbBlockEnd
  0
BLOCK
  5
6D
330
6C
100
AcDbEntity
 67
     1
  8
0
100
AcDbBlockBegin
  2
*Paper_Space
 70
     0
 10
0.0
 20
0.0
 30
0.0
  3
*Paper_Space
  1

  0
ENDBLK
  5
6E
330
6C
100
AcDbEntity
 67
     1
  8
0
100
AcDbBlockEnd
  0
BLOCK
  5
75
330
74
100
AcDbEntity
 67
     1
  8
0
100
AcDbBlockBegin
  2
*Paper_Space0
 70
     0
 10
0.0
 20
0.0
 30
0.0
  3
*Paper_Space0
  1

  0
ENDBLK
  5
76
330
74
100
AcDbEntity
 67
     1
  8
0
100
AcDbBlockEnd
  0
ENDSEC
  0
SECTION
  2
ENTITIES
  0
LINE
  5
7B
330
70
100
AcDbEntity
  8
box (1) v3 v1_box (1) v4_front_outsideCutPath
100
AcDbLine
 10
16.6
 20
21.031025
 30
0.0
 11
16.3
 21
21.031025
 31
0.0
  0
LINE
  5
7C
330
70
100
AcDbEntity
  8
box (1) v3 v1_box (1) v4_front_outsideCutPath
100
AcDbLine
 10
0.3
 20
23.803435
 30
0.0
 11
0.3
 21
21.031025
 31
0.0
  0
LINE
  5
7D
330
70
100
AcDbEntity
  8
box (1) v3 v1_box (1) v4_front_outsideCutPath
100
AcDbLine
 10
16.3
 20
15.486205
 30
0.0
 11
16.3
 21
18.258615
 31
0.0
  0
LINE
  5
7E
330
70
100
AcDbEntity
  8
box (1) v3 v1_box (1) v4_front_outsideCutPath
100
AcDbLine
 10
0.0
 20
21.031025
 30
0.0
 11
0.0
 21
18.258615
 31
0.0
  0
LINE
  5
7F
330
70
100
AcDbEntity
  8
box (1) v3 v1_box (1) v4_front_outsideCutPath
100
AcDbLine
 10
0.3
 20
4.396564999999998
 30
0.0
 11
0.0
 21
4.396564999999998
 31
0.0
  0
LINE
  5
80
330
70
100
AcDbEntity
  8
box (1) v3 v1_box (1) v4_front_outsideCutPath
100
AcDbLine
 10
6.913794999999999
 20
27.6
 30
0.0
 11
4.141384999999998
 21
27.6
 31
0.0
  0
LINE
  5
81
330
70
100
AcDbEntity
  8
box (1) v3 v1_box (1) v4_front_outsideCutPath
100
AcDbLine
 10
0.0
 20
18.258615
 30
0.0
 11
0.3
 21
18.258615
 31
0.0
  0
LINE
  5
82
330
70
100
AcDbEntity
  8
box (1) v3 v1_box (1) v4_front_outsideCutPath
100
AcDbLine
 10
16.6
 20
9.941385
 30
0.0
 11
16.3
 21
9.941385
 31
0.0
  0
LINE
  5
83
330
70
100
AcDbEntity
  8
box (1) v3 v1_box (1) v4_front_outsideCutPath
100
AcDbLine
 10
16.6
 20
27.9
 30
0.0
 11
12.458615
 21
27.9
 31
0.0
  0
LINE
  5
84
330
70
100
AcDbEntity
  8
box (1) v3 v1_box (1) v4_front_outsideCutPath
100
AcDbLine
 10
19.17752383295106
 20
9.567426879164301
 30
0.0
 11
19.37752383295106
 21
9.567426879164301
 31
0.0
  0
LINE
  5
85
330
70
100
AcDbEntity
  8
box (1) v3 v1_box (1) v4_front_outsideCutPath
100
AcDbLine
 10
12.458615
 20
0.6000000000000001
 30
0.0
 11
12.458615
 21
0.3
 31
0.0
  0
LINE
  5
86
330
70
100
AcDbEntity
  8
box (1) v3 v1_box (1) v4_front_outsideCutPath
100
AcDbLine
 10
0.0
 20
0.3
 30
0.0
 11
4.141384999999998
 21
0.3
 31
0.0
  0
LINE
  5
87
330
70
100
AcDbEntity
  8
box (1) v3 v1_box (1) v4_front_outsideCutPath
100
AcDbLine
 10
0.3
 20
12.713795
 30
0.0
 11
0.3
 21
9.941385
 31
0.0
  0
LINE
  5
88
330
70
100
AcDbEntity
  8
box (1) v3 v1_box (1) v4_front_outsideCutPath
100
AcDbLine
 10
0.0
 20
4.396564999999998
 30
0.0
 11
0.0
 21
1.624155
 31
0.0
  0
LINE
  5
89
330
70
100
AcDbEntity
  8
box (1) v3 v1_box (1) v4_front_outsideCutPath
100
AcDbLine
 10
0.0
 20
7.168974999999999
 30
0.0
 11
0.3
 21
7.168974999999999
 31
0.0
  0
LINE
  5
8A
330
70
100
AcDbEntity
  8
box (1) v3 v1_box (1) v4_front_outsideCutPath
100
AcDbLine
 10
16.6
 20
23.803435
 30
0.0
 11
16.6
 21
26.575845
 31
0.0
  0
LINE
  5
8B
330
70
100
AcDbEntity
  8
box (1) v3 v1_box (1) v4_front_outsideCutPath
100
AcDbLine
 10
0.0
 20
1.624155
 30
0.0
 11
0.0
 21
0.3
 31
0.0
  0
LINE
  5
8C
330
70
100
AcDbEntity
  8
box (1) v3 v1_box (1) v4_front_outsideCutPath
100
AcDbLine
 10
36.13989986668494
 20
8.91216179301263
 30
0.0
 11
35.93989986668494
 21
8.912161793012632
 31
0.0
  0
LINE
  5
8D
330
70
100
AcDbEntity
  8
box (1) v3 v1_box (1) v4_front_outsideCutPath
100
AcDbLine
 10
9.686204999999999
 20
27.9
 30
0.0
 11
6.913794999999999
 21
27.9
 31
0.0
  0
LINE
  5
8E
330
70
100
AcDbEntity
  8
box (1) v3 v1_box (1) v4_front_outsideCutPath
100
AcDbLine
 10
16.3
 20
18.258615
 30
0.0
 11
16.6
 21
18.258615
 31
0.0
  0
LINE
  5
8F
330
70
100
AcDbEntity
  8
box (1) v3 v1_box (1) v4_front_outsideCutPath
100
AcDbLine
 10
9.686204999999999
 20
0.3
 30
0.0
 11
9.686204999999999
 21
0.6000000000000001
 31
0.0
  0
LINE
  5
90
330
70
100
AcDbEntity
  8
box (1) v3 v1_box (1) v4_front_outsideCutPath
100
AcDbLine
 10
0.3
 20
21.031025
 30
0.0
 11
0.0
 21
21.031025
 31
0.0
  0
LINE
  5
91
330
70
100
AcDbEntity
  8
box (1) v3 v1_box (1) v4_front_outsideCutPath
100
AcDbLine
 10
15.231025
 20
0.3
 30
0.0
 11
16.6
 21
0.3
 31
0.0
  0
LINE
  5
92
330
70
100
AcDbEntity
  8
box (1) v3 v1_box (1) v4_front_outsideCutPath
100
AcDbLine
 10
6.913794999999999
 20
0.3
 30
0.0
 11
9.686204999999999
 21
0.3
 31
0.0
  0
LINE
  5
93
330
70
100
AcDbEntity
  8
box (1) v3 v1_box (1) v4_front_outsideCutPath
100
AcDbLine
 10
16.6
 20
4.396564999999998
 30
0.0
 11
16.3
 21
4.396564999999998
 31
0.0
  0
LINE
  5
94
330
70
100
AcDbEntity
  8
box (1) v3 v1_box (1) v4_front_outsideCutPath
100
AcDbLine
 10
16.3
 20
7.168974999999999
 30
0.0
 11
16.6
 21
7.168974999999999
 31
0.0
  0
LINE
  5
95
330
70
100
AcDbEntity
  8
box (1) v3 v1_box (1) v4_front_outsideCutPath
100
AcDbLine
 10
0.0
 20
23.803435
 30
0.0
 11
0.3
 21
23.803435
 31
0.0
  0
LINE
  5
96
330
70
100
AcDbEntity
  8
box (1) v3 v1_box (1) v4_front_outsideCutPath
100
AcDbLine
 10
4.141384999999998
 20
0.3
 30
0.0
 11
4.141384999999998
 21
0.6000000000000001
 31
0.0
  0
LINE
  5
97
330
70
100
AcDbEntity
  8
box (1) v3 v1_box (1) v4_front_outsideCutPath
100
AcDbLine
 10
6.913794999999999
 20
0.6000000000000001
 30
0.0
 11
6.913794999999999
 21
0.3
 31
0.0
  0
LINE
  5
98
330
70
100
AcDbEntity
  8
box (1) v3 v1_box (1) v4_front_outsideCutPath
100
AcDbLine
 10
16.3
 20
9.941385
 30
0.0
 11
16.3
 21
12.713795
 31
0.0
  0
LINE
  5
99
330
70
100
AcDbEntity
  8
box (1) v3 v1_box (1) v4_front_outsideCutPath
100
AcDbLine
 10
16.3
 20
12.713795
 30
0.0
 11
16.6
 21
12.713795
 31
0.0
  0
LINE
  5
9A
330
70
100
AcDbEntity
  8
box (1) v3 v1_box (1) v4_front_outsideCutPath
100
AcDbLine
 10
16.3
 20
23.803435
 30
0.0
 11
16.6
 21
23.803435
 31
0.0
  0
LINE
  5
9B
330
70
100
AcDbEntity
  8
box (1) v3 v1_box (1) v4_front_outsideCutPath
100
AcDbLine
 10
4.141384999999998
 20
27.6
 30
0.0
 11
4.141384999999998
 21
27.9
 31
0.0
  0
LINE
  5
9C
330
70
100
AcDbEntity
  8
box (1) v3 v1_box (1) v4_front_outsideCutPath
100
AcDbLine
 10
11.8476825482648
 20
26.39865831472687
 30
0.0
 11
11.8476825482648
 21
23.79865831472686
 31
0.0
  0
LINE
  5
9D
330
70
100
AcDbEntity
  8
box (1) v3 v1_box (1) v4_front_outsideCutPath
100
AcDbLine
 10
0.0
 20
15.486205
 30
0.0
 11
0.0
 21
12.713795
 31
0.0
  0
LINE
  5
9E
330
70
100
AcDbEntity
  8
box (1) v3 v1_box (1) v4_front_outsideCutPath
100
AcDbLine
 10
16.3
 20
21.031025
 30
0.0
 11
16.3
 21
23.803435
 31
0.0
  0
CIRCLE
  5
9F
330
70
100
AcDbEntity
  8
box (1) v3 v1_box (1) v4_front_outsideCutPath
100
AcDbCircle
 10
1.9
 20
2.45
 30
0.0
 40
0.3500000000000002
  0
LINE
  5
A0
330
70
100
AcDbEntity
  8
box (1) v3 v1_box (1) v4_front_outsideCutPath
100
AcDbLine
 10
4.141384999999998
 20
27.9
 30
0.0
 11
1.368974999999998
 21
27.9
 31
0.0
  0
LINE
  5
A1
330
70
100
AcDbEntity
  8
box (1) v3 v1_box (1) v4_front_outsideCutPath
100
AcDbLine
 10
4.647682548264801
 20
23.79865831472686
 30
0.0
 11
4.647682548264801
 21
26.39865831472687
 31
0.0
  0
LINE
  5
A2
330
70
100
AcDbEntity
  8
box (1) v3 v1_box (1) v4_front_outsideCutPath
100
AcDbLine
 10
0.3
 20
18.258615
 30
0.0
 11
0.3
 21
15.486205
 31
0.0
  0
LINE
  5
A3
330
70
100
AcDbEntity
  8
box (1) v3 v1_box (1) v4_front_outsideCutPath
100
AcDbLine
 10
9.686204999999999
 20
27.6
 30
0.0
 11
9.686204999999999
 21
27.9
 31
0.0
  0
LINE
  5
A4
330
70
100
AcDbEntity
  8
box (1) v3 v1_box (1) v4_front_outsideCutPath
100
AcDbLine
 10
1.368974999999998
 20
27.9
 30
0.0
 11
0.0
 21
27.9
 31
0.0
  0
LINE
  5
A5
330
70
100
AcDbEntity
  8
box (1) v3 v1_box (1) v4_front_outsideCutPath
100
AcDbLine
 10
36.13989986668494
 20
12.91216179301263
 30
0.0
 11
36.13989986668494
 21
8.91216179301263
 31
0.0
  0
LINE
  5
A6
330
70
100
AcDbEntity
  8
box (1) v3 v1_box (1) v4_front_outsideCutPath
100
AcDbLine
 10
16.6
 20
7.168974999999999
 30
0.0
 11
16.6
 21
9.941385
 31
0.0
  0
LINE
  5
A7
330
70
100
AcDbEntity
  8
box (1) v3 v1_box (1) v4_front_outsideCutPath
100
AcDbLine
 10
12.458615
 20
27.9
 30
0.0
 11
12.458615
 21
27.6
 31
0.0
  0
LINE
  5
A8
330
70
100
AcDbEntity
  8
box (1) v3 v1_box (1) v4_front_outsideCutPath
100
AcDbLine
 10
16.6
 20
0.3
 30
0.0
 11
16.6
 21
4.396564999999998
 31
0.0
  0
LINE
  5
A9
330
70
100
AcDbEntity
  8
box (1) v3 v1_box (1) v4_front_outsideCutPath
100
AcDbLine
 10
0.0
 20
9.941385
 30
0.0
 11
0.0
 21
7.168974999999999
 31
0.0
  0
LINE
  5
AA
330
70
100
AcDbEntity
  8
box (1) v3 v1_box (1) v4_front_outsideCutPath
100
AcDbLine
 10
6.913794999999999
 20
27.9
 30
0.0
 11
6.913794999999999
 21
27.6
 31
0.0
  0
LINE
  5
AB
330
70
100
AcDbEntity
  8
box (1) v3 v1_box (1) v4_front_outsideCutPath
100
AcDbLine
 10
35.93989986668494
 20
12.91216179301263
 30
0.0
 11
36.13989986668494
 21
12.91216179301263
 31
0.0
  0
LINE
  5
AC
330
70
100
AcDbEntity
  8
box (1) v3 v1_box (1) v4_front_outsideCutPath
100
AcDbLine
 10
35.93989986668494
 20
8.912161793012632
 30
0.0
 11
35.93989986668494
 21
12.91216179301263
 31
0.0
  0
LINE
  5
AD
330
70
100
AcDbEntity
  8
box (1) v3 v1_box (1) v4_front_outsideCutPath
100
AcDbLine
 10
16.6
 20
15.486205
 30
0.0
 11
16.3
 21
15.486205
 31
0.0
  0
LINE
  5
AE
330
70
100
AcDbEntity
  8
box (1) v3 v1_box (1) v4_front_outsideCutPath
100
AcDbLine
 10
16.6
 20
12.713795
 30
0.0
 11
16.6
 21
15.486205
 31
0.0
  0
LINE
  5
AF
330
70
100
AcDbEntity
  8
box (1) v3 v1_box (1) v4_front_outsideCutPath
100
AcDbLine
 10
12.458615
 20
0.3
 30
0.0
 11
15.231025
 21
0.3
 31
0.0
  0
LINE
  5
B0
330
70
100
AcDbEntity
  8
box (1) v3 v1_box (1) v4_front_outsideCutPath
100
AcDbLine
 10
12.458615
 20
27.6
 30
0.0
 11
9.686204999999999
 21
27.6
 31
0.0
  0
LINE
  5
B1
330
70
100
AcDbEntity
  8
box (1) v3 v1_box (1) v4_front_outsideCutPath
100
AcDbLine
 10
32.84185516224531
 20
12.91216179301263
 30
0.0
 11
32.84185516224531
 21
8.912161793012636
 31
0.0
  0
LINE
  5
B2
330
70
100
AcDbEntity
  8
box (1) v3 v1_box (1) v4_front_outsideCutPath
100
AcDbLine
 10
32.64185516224531
 20
8.912161793012636
 30
0.0
 11
32.64185516224531
 21
12.91216179301263
 31
0.0
  0
LINE
  5
B3
330
70
100
AcDbEntity
  8
box (1) v3 v1_box (1) v4_front_outsideCutPath
100
AcDbLine
 10
19.37752383295106
 20
9.567426879164301
 30
0.0
 11
19.37752383295106
 21
5.567426879164299
 31
0.0
  0
LINE
  5
B4
330
70
100
AcDbEntity
  8
box (1) v3 v1_box (1) v4_front_outsideCutPath
100
AcDbLine
 10
33.34185516224531
 20
12.91216179301263
 30
0.0
 11
33.34185516224531
 21
8.912161793012634
 31
0.0
  0
LINE
  5
B5
330
70
100
AcDbEntity
  8
box (1) v3 v1_box (1) v4_front_outsideCutPath
100
AcDbLine
 10
33.64185516224531
 20
12.91216179301263
 30
0.0
 11
33.84185516224531
 21
12.91216179301263
 31
0.0
  0
LINE
  5
B6
330
70
100
AcDbEntity
  8
box (1) v3 v1_box (1) v4_front_outsideCutPath
100
AcDbLine
 10
19.87752383295106
 20
5.567426879164298
 30
0.0
 11
19.67752383295106
 21
5.567426879164298
 31
0.0
  0
LINE
  5
B7
330
70
100
AcDbEntity
  8
box (1) v3 v1_box (1) v4_front_outsideCutPath
100
AcDbLine
 10
4.141384999999998
 20
0.6000000000000001
 30
0.0
 11
6.913794999999999
 21
0.6000000000000001
 31
0.0
  0
LINE
  5
B8
330
70
100
AcDbEntity
  8
box (1) v3 v1_box (1) v4_front_outsideCutPath
100
AcDbLine
 10
19.67752383295106
 20
9.567426879164305
 30
0.0
 11
19.87752383295106
 21
9.567426879164305
 31
0.0
  0
LINE
  5
B9
330
70
100
AcDbEntity
  8
box (1) v3 v1_box (1) v4_front_outsideCutPath
100
AcDbLine
 10
31.31677463775343
 20
12.93919761306486
 30
0.0
 11
31.51677463775343
 21
12.93919761306486
 31
0.0
  0
LINE
  5
BA
330
70
100
AcDbEntity
  8
box (1) v3 v1_box (1) v4_front_outsideCutPath
100
AcDbLine
 10
34.43989986668495
 20
12.91216179301263
 30
0.0
 11
34.63989986668496
 21
12.91216179301263
 31
0.0
  0
LINE
  5
BB
330
70
100
AcDbEntity
  8
box (1) v3 v1_box (1) v4_front_outsideCutPath
100
AcDbLine
 10
20.67752383295106
 20
5.567426879164299
 30
0.0
 11
20.67752383295106
 21
9.567426879164301
 31
0.0
  0
LINE
  5
BC
330
70
100
AcDbEntity
  8
box (1) v3 v1_box (1) v4_front_outsideCutPath
100
AcDbLine
 10
0.3
 20
9.941385
 30
0.0
 11
0.0
 21
9.941385
 31
0.0
  0
LINE
  5
BD
330
70
100
AcDbEntity
  8
box (1) v3 v1_box (1) v4_front_outsideCutPath
100
AcDbLine
 10
30.81677463775343
 20
12.93919761306486
 30
0.0
 11
31.01677463775343
 21
12.93919761306486
 31
0.0
  0
LINE
  5
BE
330
70
100
AcDbEntity
  8
box (1) v3 v1_box (1) v4_front_outsideCutPath
100
AcDbLine
 10
16.6
 20
18.258615
 30
0.0
 11
16.6
 21
21.031025
 31
0.0
  0
LINE
  5
BF
330
70
100
AcDbEntity
  8
box (1) v3 v1_box (1) v4_front_outsideCutPath
100
AcDbLine
 10
33.14185516224531
 20
12.91216179301263
 30
0.0
 11
33.34185516224531
 21
12.91216179301263
 31
0.0
  0
LINE
  5
C0
330
70
100
AcDbEntity
  8
box (1) v3 v1_box (1) v4_front_outsideCutPath
100
AcDbLine
 10
31.51677463775343
 20
8.939197613064866
 30
0.0
 11
31.31677463775343
 21
8.939197613064866
 31
0.0
  0
LINE
  5
C1
330
70
100
AcDbEntity
  8
box (1) v3 v1_box (1) v4_front_outsideCutPath
100
AcDbLine
 10
33.84185516224531
 20
12.91216179301263
 30
0.0
 11
33.84185516224531
 21
8.912161793012634
 31
0.0
  0
LINE
  5
C2
330
70
100
AcDbEntity
  8
box (1) v3 v1_box (1) v4_front_outsideCutPath
100
AcDbLine
 10
34.93989986668495
 20
8.912161793012632
 30
0.0
 11
34.93989986668495
 21
12.91216179301263
 31
0.0
  0
LINE
  5
C3
330
70
100
AcDbEntity
  8
box (1) v3 v1_box (1) v4_front_outsideCutPath
100
AcDbLine
 10
16.3
 20
4.396564999999998
 30
0.0
 11
16.3
 21
7.168974999999999
 31
0.0
  0
LINE
  5
C4
330
70
100
AcDbEntity
  8
box (1) v3 v1_box (1) v4_front_outsideCutPath
100
AcDbLine
 10
35.13989986668496
 20
12.91216179301263
 30
0.0
 11
35.13989986668496
 21
8.912161793012632
 31
0.0
  0
LINE
  5
C5
330
70
100
AcDbEntity
  8
box (1) v3 v1_box (1) v4_front_outsideCutPath
100
AcDbLine
 10
9.686204999999999
 20
0.6000000000000001
 30
0.0
 11
12.458615
 21
0.6000000000000001
 31
0.0
  0
LINE
  5
C6
330
70
100
AcDbEntity
  8
box (1) v3 v1_box (1) v4_front_outsideCutPath
100
AcDbLine
 10
19.87752383295106
 20
9.567426879164305
 30
0.0
 11
19.87752383295106
 21
5.567426879164298
 31
0.0
  0
LINE
  5
C7
330
70
100
AcDbEntity
  8
box (1) v3 v1_box (1) v4_front_outsideCutPath
100
AcDbLine
 10
20.37752383295106
 20
9.567426879164301
 30
0.0
 11
20.37752383295106
 21
5.567426879164299
 31
0.0
  0
LINE
  5
C8
330
70
100
AcDbEntity
  8
box (1) v3 v1_box (1) v4_front_outsideCutPath
100
AcDbLine
 10
0.0
 20
12.713795
 30
0.0
 11
0.3
 21
12.713795
 31
0.0
  0
LINE
  5
C9
330
70
100
AcDbEntity
  8
box (1) v3 v1_box (1) v4_front_outsideCutPath
100
AcDbLine
 10
19.17752383295106
 20
5.567426879164299
 30
0.0
 11
19.17752383295106
 21
9.567426879164301
 31
0.0
  0
LINE
  5
CA
330
70
100
AcDbEntity
  8
box (1) v3 v1_box (1) v4_front_outsideCutPath
100
AcDbLine
 10
20.17752383295106
 20
5.567426879164299
 30
0.0
 11
20.17752383295106
 21
9.567426879164301
 31
0.0
  0
LINE
  5
CB
330
70
100
AcDbEntity
  8
box (1) v3 v1_box (1) v4_front_outsideCutPath
100
AcDbLine
 10
30.31677463775344
 20
12.93919761306487
 30
0.0
 11
30.51677463775343
 21
12.93919761306487
 31
0.0
  0
LINE
  5
CC
330
70
100
AcDbEntity
  8
box (1) v3 v1_box (1) v4_front_outsideCutPath
100
AcDbLine
 10
0.3
 20
7.168974999999999
 30
0.0
 11
0.3
 21
4.396564999999998
 31
0.0
  0
LINE
  5
CD
330
70
100
AcDbEntity
  8
box (1) v3 v1_box (1) v4_front_outsideCutPath
100
AcDbLine
 10
32.14185516224531
 20
12.91216179301263
 30
0.0
 11
32.34185516224531
 21
12.91216179301263
 31
0.0
  0
LINE
  5
CE
330
70
100
AcDbEntity
  8
box (1) v3 v1_box (1) v4_front_outsideCutPath
100
AcDbLine
 10
35.63989986668495
 20
12.91216179301263
 30
0.0
 11
35.63989986668495
 21
8.912161793012632
 31
0.0
  0
LINE
  5
CF
330
70
100
AcDbEntity
  8
box (1) v3 v1_box (1) v4_front_outsideCutPath
100
AcDbLine
 10
0.0
 20
27.9
 30
0.0
 11
0.0
 21
23.803435
 31
0.0
  0
LINE
  5
D0
330
70
100
AcDbEntity
  8
box (1) v3 v1_box (1) v4_front_outsideCutPath
100
AcDbLine
 10
30.01677463775344
 20
12.93919761306487
 30
0.0
 11
30.01677463775343
 21
8.939197613064868
 31
0.0
  0
LINE
  5
D1
330
70
100
AcDbEntity
  8
box (1) v3 v1_box (1) v4_front_outsideCutPath
100
AcDbLine
 10
35.13989986668496
 20
8.912161793012632
 30
0.0
 11
34.93989986668495
 21
8.912161793012632
 31
0.0
  0
LINE
  5
D2
330
70
100
AcDbEntity
  8
box (1) v3 v1_box (1) v4_front_outsideCutPath
100
AcDbLine
 10
29.81677463775344
 20
12.93919761306487
 30
0.0
 11
30.01677463775344
 21
12.93919761306487
 31
0.0
  0
LINE
  5
D3
330
70
100
AcDbEntity
  8
box (1) v3 v1_box (1) v4_front_outsideCutPath
100
AcDbLine
 10
34.63989986668496
 20
8.912161793012632
 30
0.0
 11
34.43989986668495
 21
8.912161793012632
 31
0.0
  0
LINE
  5
D4
330
70
100
AcDbEntity
  8
box (1) v3 v1_box (1) v4_front_outsideCutPath
100
AcDbLine
 10
32.64185516224531
 20
12.91216179301263
 30
0.0
 11
32.84185516224531
 21
12.91216179301263
 31
0.0
  0
LINE
  5
D5
330
70
100
AcDbEntity
  8
box (1) v3 v1_box (1) v4_front_outsideCutPath
100
AcDbLine
 10
35.43989986668494
 20
12.91216179301263
 30
0.0
 11
35.63989986668495
 21
12.91216179301263
 31
0.0
  0
LINE
  5
D6
330
70
100
AcDbEntity
  8
box (1) v3 v1_box (1) v4_front_outsideCutPath
100
AcDbLine
 10
11.8476825482648
 20
23.79865831472686
 30
0.0
 11
4.647682548264801
 21
23.79865831472686
 31
0.0
  0
LINE
  5
D7
330
70
100
AcDbEntity
  8
box (1) v3 v1_box (1) v4_front_outsideCutPath
100
AcDbLine
 10
33.84185516224531
 20
8.912161793012634
 30
0.0
 11
33.64185516224531
 21
8.912161793012634
 31
0.0
  0
LINE
  5
D8
330
70
100
AcDbEntity
  8
box (1) v3 v1_box (1) v4_front_outsideCutPath
100
AcDbLine
 10
35.43989986668494
 20
8.912161793012632
 30
0.0
 11
35.43989986668494
 21
12.91216179301263
 31
0.0
  0
LINE
  5
D9
330
70
100
AcDbEntity
  8
box (1) v3 v1_box (1) v4_front_outsideCutPath
100
AcDbLine
 10
31.01677463775343
 20
12.93919761306486
 30
0.0
 11
31.01677463775343
 21
8.939197613064866
 31
0.0
  0
LINE
  5
DA
330
70
100
AcDbEntity
  8
box (1) v3 v1_box (1) v4_front_outsideCutPath
100
AcDbLine
 10
20.87752383295106
 20
5.567426879164299
 30
0.0
 11
20.67752383295106
 21
5.567426879164299
 31
0.0
  0
LINE
  5
DB
330
70
100
AcDbEntity
  8
box (1) v3 v1_box (1) v4_front_outsideCutPath
100
AcDbLine
 10
19.37752383295106
 20
5.567426879164299
 30
0.0
 11
19.17752383295106
 21
5.567426879164299
 31
0.0
  0
LINE
  5
DC
330
70
100
AcDbEntity
  8
box (1) v3 v1_box (1) v4_front_outsideCutPath
100
AcDbLine
 10
31.01677463775343
 20
8.939197613064866
 30
0.0
 11
30.81677463775343
 21
8.939197613064866
 31
0.0
  0
LINE
  5
DD
330
70
100
AcDbEntity
  8
box (1) v3 v1_box (1) v4_front_outsideCutPath
100
AcDbLine
 10
34.63989986668496
 20
12.91216179301263
 30
0.0
 11
34.63989986668496
 21
8.912161793012632
 31
0.0
  0
LINE
  5
DE
330
70
100
AcDbEntity
  8
box (1) v3 v1_box (1) v4_front_outsideCutPath
100
AcDbLine
 10
33.34185516224531
 20
8.912161793012634
 30
0.0
 11
33.14185516224531
 21
8.912161793012636
 31
0.0
  0
LINE
  5
DF
330
70
100
AcDbEntity
  8
box (1) v3 v1_box (1) v4_front_outsideCutPath
100
AcDbLine
 10
29.81677463775343
 20
8.93919761306487
 30
0.0
 11
29.81677463775344
 21
12.93919761306487
 31
0.0
  0
LINE
  5
E0
330
70
100
AcDbEntity
  8
box (1) v3 v1_box (1) v4_front_outsideCutPath
100
AcDbLine
 10
30.81677463775343
 20
8.939197613064866
 30
0.0
 11
30.81677463775343
 21
12.93919761306486
 31
0.0
  0
LINE
  5
E1
330
70
100
AcDbEntity
  8
box (1) v3 v1_box (1) v4_front_outsideCutPath
100
AcDbLine
 10
35.63989986668495
 20
8.912161793012632
 30
0.0
 11
35.43989986668494
 21
8.912161793012632
 31
0.0
  0
LINE
  5
E2
330
70
100
AcDbEntity
  8
box (1) v3 v1_box (1) v4_front_outsideCutPath
100
AcDbLine
 10
31.51677463775343
 20
12.93919761306486
 30
0.0
 11
31.51677463775343
 21
8.939197613064866
 31
0.0
  0
LINE
  5
E3
330
70
100
AcDbEntity
  8
box (1) v3 v1_box (1) v4_front_outsideCutPath
100
AcDbLine
 10
30.51677463775343
 20
12.93919761306487
 30
0.0
 11
30.51677463775343
 21
8.939197613064868
 31
0.0
  0
LINE
  5
E4
330
70
100
AcDbEntity
  8
box (1) v3 v1_box (1) v4_front_outsideCutPath
100
AcDbLine
 10
20.37752383295106
 20
5.567426879164299
 30
0.0
 11
20.17752383295106
 21
5.567426879164299
 31
0.0
  0
LINE
  5
E5
330
70
100
AcDbEntity
  8
box (1) v3 v1_box (1) v4_front_outsideCutPath
100
AcDbLine
 10
16.6
 20
26.575845
 30
0.0
 11
16.6
 21
27.9
 31
0.0
  0
LINE
  5
E6
330
70
100
AcDbEntity
  8
box (1) v3 v1_box (1) v4_front_outsideCutPath
100
AcDbLine
 10
32.34185516224531
 20
8.912161793012636
 30
0.0
 11
32.14185516224531
 21
8.912161793012636
 31
0.0
  0
LINE
  5
E7
330
70
100
AcDbEntity
  8
box (1) v3 v1_box (1) v4_front_outsideCutPath
100
AcDbLine
 10
30.01677463775343
 20
8.939197613064868
 30
0.0
 11
29.81677463775343
 21
8.93919761306487
 31
0.0
  0
LINE
  5
E8
330
70
100
AcDbEntity
  8
box (1) v3 v1_box (1) v4_front_outsideCutPath
100
AcDbLine
 10
0.3
 20
15.486205
 30
0.0
 11
0.0
 21
15.486205
 31
0.0
  0
LINE
  5
E9
330
70
100
AcDbEntity
  8
box (1) v3 v1_box (1) v4_front_outsideCutPath
100
AcDbLine
 10
34.93989986668495
 20
12.91216179301263
 30
0.0
 11
35.13989986668496
 21
12.91216179301263
 31
0.0
  0
LINE
  5
EA
330
70
100
AcDbEntity
  8
box (1) v3 v1_box (1) v4_front_outsideCutPath
100
AcDbLine
 10
20.17752383295106
 20
9.567426879164301
 30
0.0
 11
20.37752383295106
 21
9.567426879164301
 31
0.0
  0
LINE
  5
EB
330
70
100
AcDbEntity
  8
box (1) v3 v1_box (1) v4_front_outsideCutPath
100
AcDbLine
 10
19.67752383295106
 20
5.567426879164298
 30
0.0
 11
19.67752383295106
 21
9.567426879164305
 31
0.0
  0
LINE
  5
EC
330
70
100
AcDbEntity
  8
box (1) v3 v1_box (1) v4_front_outsideCutPath
100
AcDbLine
 10
30.51677463775343
 20
8.939197613064868
 30
0.0
 11
30.31677463775344
 21
8.939197613064868
 31
0.0
  0
LINE
  5
ED
330
70
100
AcDbEntity
  8
box (1) v3 v1_box (1) v4_front_outsideCutPath
100
AcDbLine
 10
4.647682548264801
 20
26.39865831472687
 30
0.0
 11
11.8476825482648
 21
26.39865831472687
 31
0.0
  0
LINE
  5
EE
330
70
100
AcDbEntity
  8
box (1) v3 v1_box (1) v4_front_outsideCutPath
100
AcDbLine
 10
20.87752383295106
 20
9.567426879164301
 30
0.0
 11
20.87752383295106
 21
5.567426879164299
 31
0.0
  0
LINE
  5
EF
330
70
100
AcDbEntity
  8
box (1) v3 v1_box (1) v4_front_outsideCutPath
100
AcDbLine
 10
31.31677463775343
 20
8.939197613064866
 30
0.0
 11
31.31677463775343
 21
12.93919761306486
 31
0.0
  0
LINE
  5
F0
330
70
100
AcDbEntity
  8
box (1) v3 v1_box (1) v4_front_outsideCutPath
100
AcDbLine
 10
34.43989986668495
 20
8.912161793012632
 30
0.0
 11
34.43989986668495
 21
12.91216179301263
 31
0.0
  0
LINE
  5
F1
330
70
100
AcDbEntity
  8
box (1) v3 v1_box (1) v4_front_outsideCutPath
100
AcDbLine
 10
20.67752383295106
 20
9.567426879164301
 30
0.0
 11
20.87752383295106
 21
9.567426879164301
 31
0.0
  0
LINE
  5
F2
330
70
100
AcDbEntity
  8
box (1) v3 v1_box (1) v4_front_outsideCutPath
100
AcDbLine
 10
30.31677463775344
 20
8.939197613064868
 30
0.0
 11
30.31677463775344
 21
12.93919761306487
 31
0.0
  0
CIRCLE
  5
F3
330
70
100
AcDbEntity
  8
box (1) v3 v1_box (1) v4_front_outsideCutPath
100
AcDbCircle
 10
14.57660068715147
 20
2.197491908050634
 30
0.0
 40
0.1499999999999999
  0
LINE
  5
F4
330
70
100
AcDbEntity
  8
box (1) v3 v1_box (1) v4_front_outsideCutPath
100
AcDbLine
 10
32.14185516224531
 20
8.912161793012636
 30
0.0
 11
32.14185516224531
 21
12.91216179301263
 31
0.0
  0
LINE
  5
F5
330
70
100
AcDbEntity
  8
box (1) v3 v1_box (1) v4_front_outsideCutPath
100
AcDbLine
 10
33.14185516224531
 20
8.912161793012636
 30
0.0
 11
33.14185516224531
 21
12.91216179301263
 31
0.0
  0
LINE
  5
F6
330
70
100
AcDbEntity
  8
box (1) v3 v1_box (1) v4_front_outsideCutPath
100
AcDbLine
 10
33.64185516224531
 20
8.912161793012634
 30
0.0
 11
33.64185516224531
 21
12.91216179301263
 31
0.0
  0
CIRCLE
  5
F7
330
70
100
AcDbEntity
  8
box (1) v3 v1_box (1) v4_front_outsideCutPath
100
AcDbCircle
 10
14.57921771454814
 20
22.64056237315204
 30
0.0
 40
0.149999999999999
  0
CIRCLE
  5
F8
330
70
100
AcDbEntity
  8
box (1) v3 v1_box (1) v4_front_outsideCutPath
100
AcDbCircle
 10
3.412344717654831
 20
22.58579729215091
 30
0.0
 40
0.1500000000000008
  0
LINE
  5
F9
330
70
100
AcDbEntity
  8
box (1) v3 v1_box (1) v4_front_outsideCutPath
100
AcDbLine
 10
32.34185516224531
 20
12.91216179301263
 30
0.0
 11
32.34185516224531
 21
8.912161793012636
 31
0.0
  0
CIRCLE
  5
FA
330
70
100
AcDbEntity
  8
box (1) v3 v1_box (1) v4_front_outsideCutPath
100
AcDbCircle
 10
3.412852719846419
 20
2.025677529693671
 30
0.0
 40
0.15
  0
LINE
  5
FB
330
70
100
AcDbEntity
  8
box (1) v3 v1_box (1) v4_front_outsideCutPath
100
AcDbLine
 10
32.84185516224531
 20
8.912161793012636
 30
0.0
 11
32.64185516224531
 21
8.912161793012636
 31
0.0
  0
LINE
  5
FD
330
70
100
AcDbEntity
  8
box (1) v3 v1_box (1) v4_left_outsideCutPath
100
AcDbLine
 10
22.086205
 20
0.3
 30
0.0
 11
24.2
 21
0.3
 31
0.0
  0
LINE
  5
FE
330
70
100
AcDbEntity
  8
box (1) v3 v1_box (1) v4_left_outsideCutPath
100
AcDbLine
 10
16.9
 20
21.031025
 30
0.0
 11
17.2
 21
21.031025
 31
0.0
  0
LINE
  5
FF
330
70
100
AcDbEntity
  8
box (1) v3 v1_box (1) v4_left_outsideCutPath
100
AcDbLine
 10
24.2
 20
26.575845
 30
0.0
 11
24.2
 21
27.9
 31
0.0
  0
LINE
  5
100
330
70
100
AcDbEntity
  8
box (1) v3 v1_box (1) v4_left_outsideCutPath
100
AcDbLine
 10
21.13836736587411
 20
7.083174683734331
 30
0.0
 11
21.13836736587411
 21
8.183174700125606
 31
0.0
  0
LINE
  5
101
330
70
100
AcDbEntity
  8
box (1) v3 v1_box (1) v4_left_outsideCutPath
100
AcDbLine
 10
17.2
 20
4.396564999999998
 30
0.0
 11
17.2
 21
1.624155
 31
0.0
  0
LINE
  5
102
330
70
100
AcDbEntity
  8
box (1) v3 v1_box (1) v4_left_outsideCutPath
100
AcDbLine
 10
17.2
 20
1.624155
 30
0.0
 11
17.2
 21
0.3
 31
0.0
  0
LINE
  5
103
330
70
100
AcDbEntity
  8
box (1) v3 v1_box (1) v4_left_outsideCutPath
100
AcDbLine
 10
17.2
 20
7.168974999999999
 30
0.0
 11
16.9
 21
7.168974999999999
 31
0.0
  0
LINE
  5
104
330
70
100
AcDbEntity
  8
box (1) v3 v1_box (1) v4_left_outsideCutPath
100
AcDbLine
 10
17.2
 20
9.941385
 30
0.0
 11
17.2
 21
7.168974999999999
 31
0.0
  0
LINE
  5
105
330
70
100
AcDbEntity
  8
box (1) v3 v1_box (1) v4_left_outsideCutPath
100
AcDbLine
 10
24.5
 20
23.803435
 30
0.0
 11
24.2
 21
23.803435
 31
0.0
  0
LINE
  5
106
330
70
100
AcDbEntity
  8
box (1) v3 v1_box (1) v4_left_outsideCutPath
100
AcDbLine
 10
16.9
 20
15.486205
 30
0.0
 11
17.2
 21
15.486205
 31
0.0
  0
LINE
  5
107
330
70
100
AcDbEntity
  8
box (1) v3 v1_box (1) v4_left_outsideCutPath
100
AcDbLine
 10
21.13836736587411
 20
8.183174700125606
 30
0.0
 11
21.53836737183457
 21
8.183174700125606
 31
0.0
  0
LINE
  5
108
330
70
100
AcDbEntity
  8
box (1) v3 v1_box (1) v4_left_outsideCutPath
100
AcDbLine
 10
24.2
 20
21.031025
 30
0.0
 11
24.5
 21
21.031025
 31
0.0
  0
LINE
  5
109
330
70
100
AcDbEntity
  8
box (1) v3 v1_box (1) v4_left_outsideCutPath
100
AcDbLine
 10
17.2
 20
21.031025
 30
0.0
 11
17.2
 21
18.258615
 31
0.0
  0
CIRCLE
  5
10A
330
70
100
AcDbEntity
  8
box (1) v3 v1_box (1) v4_left_outsideCutPath
100
AcDbCircle
 10
21.65959371767
 20
5.90905828898587
 30
0.0
 40
0.1499999999999993
  0
LINE
  5
10B
330
70
100
AcDbEntity
  8
box (1) v3 v1_box (1) v4_left_outsideCutPath
100
AcDbLine
 10
16.9
 20
9.941385
 30
0.0
 11
17.2
 21
9.941385
 31
0.0
  0
LINE
  5
10C
330
70
100
AcDbEntity
  8
box (1) v3 v1_box (1) v4_left_outsideCutPath
100
AcDbLine
 10
24.5
 20
4.396564999999998
 30
0.0
 11
24.5
 21
7.168974999999999
 31
0.0
  0
LINE
  5
10D
330
70
100
AcDbEntity
  8
box (1) v3 v1_box (1) v4_left_outsideCutPath
100
AcDbLine
 10
17.2
 20
0.3
 30
0.0
 11
19.313795
 21
0.3
 31
0.0
  0
LINE
  5
10E
330
70
100
AcDbEntity
  8
box (1) v3 v1_box (1) v4_left_outsideCutPath
100
AcDbLine
 10
24.5
 20
12.713795
 30
0.0
 11
24.2
 21
12.713795
 31
0.0
  0
LINE
  5
10F
330
70
100
AcDbEntity
  8
box (1) v3 v1_box (1) v4_left_outsideCutPath
100
AcDbLine
 10
22.086205
 20
27.6
 30
0.0
 11
19.313795
 21
27.6
 31
0.0
  0
LINE
  5
110
330
70
100
AcDbEntity
  8
box (1) v3 v1_box (1) v4_left_outsideCutPath
100
AcDbLine
 10
24.2
 20
27.9
 30
0.0
 11
22.086205
 21
27.9
 31
0.0
  0
LINE
  5
111
330
70
100
AcDbEntity
  8
box (1) v3 v1_box (1) v4_left_outsideCutPath
100
AcDbLine
 10
17.2
 20
12.713795
 30
0.0
 11
16.9
 21
12.713795
 31
0.0
  0
LINE
  5
112
330
70
100
AcDbEntity
  8
box (1) v3 v1_box (1) v4_left_outsideCutPath
100
AcDbLine
 10
16.9
 20
23.803435
 30
0.0
 11
16.9
 21
21.031025
 31
0.0
  0
LINE
  5
113
330
70
100
AcDbEntity
  8
box (1) v3 v1_box (1) v4_left_outsideCutPath
100
AcDbLine
 10
24.2
 20
9.941385
 30
0.0
 11
24.5
 21
9.941385
 31
0.0
  0
LINE
  5
114
330
70
100
AcDbEntity
  8
box (1) v3 v1_box (1) v4_left_outsideCutPath
100
AcDbLine
 10
17.2
 20
23.803435
 30
0.0
 11
16.9
 21
23.803435
 31
0.0
  0
CIRCLE
  5
115
330
70
100
AcDbEntity
  8
box (1) v3 v1_box (1) v4_left_outsideCutPath
100
AcDbCircle
 10
21.65959371767
 20
9.209058288985874
 30
0.0
 40
0.15
  0
LINE
  5
116
330
70
100
AcDbEntity
  8
box (1) v3 v1_box (1) v4_left_outsideCutPath
100
AcDbLine
 10
24.2
 20
15.486205
 30
0.0
 11
24.5
 21
15.486205
 31
0.0
  0
LINE
  5
117
330
70
100
AcDbEntity
  8
box (1) v3 v1_box (1) v4_left_outsideCutPath
100
AcDbLine
 10
19.313795
 20
27.9
 30
0.0
 11
17.2
 21
27.9
 31
0.0
  0
LINE
  5
118
330
70
100
AcDbEntity
  8
box (1) v3 v1_box (1) v4_left_outsideCutPath
100
AcDbLine
 10
16.9
 20
7.168974999999999
 30
0.0
 11
16.9
 21
4.396564999999998
 31
0.0
  0
LINE
  5
119
330
70
100
AcDbEntity
  8
box (1) v3 v1_box (1) v4_left_outsideCutPath
100
AcDbLine
 10
17.2
 20
18.258615
 30
0.0
 11
16.9
 21
18.258615
 31
0.0
  0
LINE
  5
11A
330
70
100
AcDbEntity
  8
box (1) v3 v1_box (1) v4_left_outsideCutPath
100
AcDbLine
 10
24.2
 20
18.258615
 30
0.0
 11
24.2
 21
21.031025
 31
0.0
  0
LINE
  5
11B
330
70
100
AcDbEntity
  8
box (1) v3 v1_box (1) v4_left_outsideCutPath
100
AcDbLine
 10
16.9
 20
18.258615
 30
0.0
 11
16.9
 21
15.486205
 31
0.0
  0
LINE
  5
11C
330
70
100
AcDbEntity
  8
box (1) v3 v1_box (1) v4_left_outsideCutPath
100
AcDbLine
 10
24.2
 20
7.168974999999999
 30
0.0
 11
24.2
 21
9.941385
 31
0.0
  0
LINE
  5
11D
330
70
100
AcDbEntity
  8
box (1) v3 v1_box (1) v4_left_outsideCutPath
100
AcDbLine
 10
24.2
 20
0.3
 30
0.0
 11
24.2
 21
4.396564999999998
 31
0.0
  0
LINE
  5
11E
330
70
100
AcDbEntity
  8
box (1) v3 v1_box (1) v4_left_outsideCutPath
100
AcDbLine
 10
24.5
 20
15.486205
 30
0.0
 11
24.5
 21
18.258615
 31
0.0
  0
LINE
  5
11F
330
70
100
AcDbEntity
  8
box (1) v3 v1_box (1) v4_left_outsideCutPath
100
AcDbLine
 10
24.5
 20
21.031025
 30
0.0
 11
24.5
 21
23.803435
 31
0.0
  0
LINE
  5
120
330
70
100
AcDbEntity
  8
box (1) v3 v1_box (1) v4_left_outsideCutPath
100
AcDbLine
 10
16.9
 20
4.396564999999998
 30
0.0
 11
17.2
 21
4.396564999999998
 31
0.0
  0
CIRCLE
  5
121
330
70
100
AcDbEntity
  8
box (1) v3 v1_box (1) v4_left_outsideCutPath
100
AcDbCircle
 10
18.35959371767
 20
5.90905828898587
 30
0.0
 40
0.1500000000000003
  0
LINE
  5
122
330
70
100
AcDbEntity
  8
box (1) v3 v1_box (1) v4_left_outsideCutPath
100
AcDbLine
 10
24.5
 20
9.941385
 30
0.0
 11
24.5
 21
12.713795
 31
0.0
  0
CIRCLE
  5
123
330
70
100
AcDbEntity
  8
box (1) v3 v1_box (1) v4_left_outsideCutPath
100
AcDbCircle
 10
18.35959371767
 20
9.209058288985874
 30
0.0
 40
0.1500000000000003
  0
LINE
  5
124
330
70
100
AcDbEntity
  8
box (1) v3 v1_box (1) v4_left_outsideCutPath
100
AcDbLine
 10
19.313795
 20
0.6000000000000001
 30
0.0
 11
22.086205
 21
0.6000000000000001
 31
0.0
  0
LINE
  5
125
330
70
100
AcDbEntity
  8
box (1) v3 v1_box (1) v4_left_outsideCutPath
100
AcDbLine
 10
18.51966336597375
 20
8.200000122189521
 30
0.0
 11
18.91966337193421
 21
8.200000122189521
 31
0.0
  0
LINE
  5
126
330
70
100
AcDbEntity
  8
box (1) v3 v1_box (1) v4_left_outsideCutPath
100
AcDbLine
 10
19.313795
 20
27.6
 30
0.0
 11
19.313795
 21
27.9
 31
0.0
  0
LINE
  5
127
330
70
100
AcDbEntity
  8
box (1) v3 v1_box (1) v4_left_outsideCutPath
100
AcDbLine
 10
21.53836737183457
 20
8.183174700125606
 30
0.0
 11
21.53836737183457
 21
7.083174683734331
 31
0.0
  0
LINE
  5
128
330
70
100
AcDbEntity
  8
box (1) v3 v1_box (1) v4_left_outsideCutPath
100
AcDbLine
 10
24.2
 20
12.713795
 30
0.0
 11
24.2
 21
15.486205
 31
0.0
  0
LINE
  5
129
330
70
100
AcDbEntity
  8
box (1) v3 v1_box (1) v4_left_outsideCutPath
100
AcDbLine
 10
24.5
 20
18.258615
 30
0.0
 11
24.2
 21
18.258615
 31
0.0
  0
LINE
  5
12A
330
70
100
AcDbEntity
  8
box (1) v3 v1_box (1) v4_left_outsideCutPath
100
AcDbLine
 10
18.91966337193421
 20
7.100000105798244
 30
0.0
 11
18.51966336597375
 21
7.100000105798244
 31
0.0
  0
LINE
  5
12B
330
70
100
AcDbEntity
  8
box (1) v3 v1_box (1) v4_left_outsideCutPath
100
AcDbLine
 10
24.2
 20
4.396564999999998
 30
0.0
 11
24.5
 21
4.396564999999998
 31
0.0
  0
LINE
  5
12C
330
70
100
AcDbEntity
  8
box (1) v3 v1_box (1) v4_left_outsideCutPath
100
AcDbLine
 10
16.9
 20
12.713795
 30
0.0
 11
16.9
 21
9.941385
 31
0.0
  0
LINE
  5
12D
330
70
100
AcDbEntity
  8
box (1) v3 v1_box (1) v4_left_outsideCutPath
100
AcDbLine
 10
24.5
 20
7.168974999999999
 30
0.0
 11
24.2
 21
7.168974999999999
 31
0.0
  0
LINE
  5
12E
330
70
100
AcDbEntity
  8
box (1) v3 v1_box (1) v4_left_outsideCutPath
100
AcDbLine
 10
19.313795
 20
0.3
 30
0.0
 11
19.313795
 21
0.6000000000000001
 31
0.0
  0
LINE
  5
12F
330
70
100
AcDbEntity
  8
box (1) v3 v1_box (1) v4_left_outsideCutPath
100
AcDbLine
 10
18.51966336597375
 20
7.100000105798244
 30
0.0
 11
18.51966336597375
 21
8.200000122189521
 31
0.0
  0
LINE
  5
130
330
70
100
AcDbEntity
  8
box (1) v3 v1_box (1) v4_left_outsideCutPath
100
AcDbLine
 10
18.91966337193421
 20
8.200000122189521
 30
0.0
 11
18.91966337193421
 21
7.100000105798244
 31
0.0
  0
LINE
  5
131
330
70
100
AcDbEntity
  8
box (1) v3 v1_box (1) v4_left_outsideCutPath
100
AcDbLine
 10
21.53836737183457
 20
7.083174683734331
 30
0.0
 11
21.13836736587411
 21
7.083174683734331
 31
0.0
  0
LINE
  5
132
330
70
100
AcDbEntity
  8
box (1) v3 v1_box (1) v4_left_outsideCutPath
100
AcDbLine
 10
24.2
 20
23.803435
 30
0.0
 11
24.2
 21
26.575845
 31
0.0
  0
LINE
  5
133
330
70
100
AcDbEntity
  8
box (1) v3 v1_box (1) v4_left_outsideCutPath
100
AcDbLine
 10
22.086205
 20
0.6000000000000001
 30
0.0
 11
22.086205
 21
0.3
 31
0.0
  0
LINE
  5
134
330
70
100
AcDbEntity
  8
box (1) v3 v1_box (1) v4_left_outsideCutPath
100
AcDbLine
 10
22.086205
 20
27.9
 30
0.0
 11
22.086205
 21
27.6
 31
0.0
  0
LINE
  5
135
330
70
100
AcDbEntity
  8
box (1) v3 v1_box (1) v4_left_outsideCutPath
100
AcDbLine
 10
17.2
 20
27.9
 30
0.0
 11
17.2
 21
23.803435
 31
0.0
  0
LINE
  5
136
330
70
100
AcDbEntity
  8
box (1) v3 v1_box (1) v4_left_outsideCutPath
100
AcDbLine
 10
17.2
 20
15.486205
 30
0.0
 11
17.2
 21
12.713795
 31
0.0
  0
LINE
  5
138
330
70
100
AcDbEntity
  8
box (1) v3 v1_box (1) v4_top_outsideCutPath
100
AcDbLine
 10
26.168975
 20
7.599999999999999
 30
0.0
 11
25.1
 21
7.599999999999999
 31
0.0
  0
LINE
  5
139
330
70
100
AcDbEntity
  8
box (1) v3 v1_box (1) v4_top_outsideCutPath
100
AcDbLine
 10
31.713795
 20
7.9
 30
0.0
 11
28.941385
 21
7.9
 31
0.0
  0
LINE
  5
13A
330
70
100
AcDbEntity
  8
box (1) v3 v1_box (1) v4_top_outsideCutPath
100
AcDbLine
 10
33.2
 20
1.619589665633856
 30
0.0
 11
32.0
 21
1.619589665633856
 31
0.0
  0
LINE
  5
13B
330
70
100
AcDbEntity
  8
box (1) v3 v1_box (1) v4_top_outsideCutPath
100
AcDbLine
 10
37.258615
 20
7.599999999999999
 30
0.0
 11
37.258615
 21
7.9
 31
0.0
  0
LINE
  5
13C
330
70
100
AcDbEntity
  8
box (1) v3 v1_box (1) v4_top_outsideCutPath
100
AcDbLine
 10
41.39999999999999
 20
2.713795
 30
0.0
 11
41.39999999999999
 21
5.486204999999999
 31
0.0
  0
LINE
  5
13D
330
70
100
AcDbEntity
  8
box (1) v3 v1_box (1) v4_top_outsideCutPath
100
AcDbLine
 10
25.1
 20
2.713795
 30
0.0
 11
25.1
 21
0.6000000000000001
 31
0.0
  0
LINE
  5
13E
330
70
100
AcDbEntity
  8
box (1) v3 v1_box (1) v4_top_outsideCutPath
100
AcDbLine
 10
34.486205
 20
0.3
 30
0.0
 11
37.258615
 21
0.3
 31
0.0
  0
LINE
  5
13F
330
70
100
AcDbEntity
  8
box (1) v3 v1_box (1) v4_top_outsideCutPath
100
AcDbLine
 10
24.8
 20
5.486204999999999
 30
0.0
 11
24.8
 21
2.713795
 31
0.0
  0
LINE
  5
140
330
70
100
AcDbEntity
  8
box (1) v3 v1_box (1) v4_top_outsideCutPath
100
AcDbLine
 10
37.258615
 20
0.6000000000000001
 30
0.0
 11
40.03102499999999
 21
0.6000000000000001
 31
0.0
  0
LINE
  5
141
330
70
100
AcDbEntity
  8
box (1) v3 v1_box (1) v4_top_outsideCutPath
100
AcDbLine
 10
37.258615
 20
0.3
 30
0.0
 11
37.258615
 21
0.6000000000000001
 31
0.0
  0
LINE
  5
142
330
70
100
AcDbEntity
  8
box (1) v3 v1_box (1) v4_top_outsideCutPath
100
AcDbLine
 10
25.1
 20
0.6000000000000001
 30
0.0
 11
28.941385
 21
0.6000000000000001
 31
0.0
  0
LINE
  5
143
330
70
100
AcDbEntity
  8
box (1) v3 v1_box (1) v4_top_outsideCutPath
100
AcDbLine
 10
41.39999999999999
 20
5.486204999999999
 30
0.0
 11
41.1
 21
5.486204999999999
 31
0.0
  0
LINE
  5
144
330
70
100
AcDbEntity
  8
box (1) v3 v1_box (1) v4_top_outsideCutPath
100
AcDbLine
 10
32.0
 20
2.819589665633855
 30
0.0
 11
33.2
 21
2.819589665633855
 31
0.0
  0
LINE
  5
145
330
70
100
AcDbEntity
  8
box (1) v3 v1_box (1) v4_top_outsideCutPath
100
AcDbLine
 10
34.486205
 20
0.6000000000000001
 30
0.0
 11
34.486205
 21
0.3
 31
0.0
  0
LINE
  5
146
330
70
100
AcDbEntity
  8
box (1) v3 v1_box (1) v4_top_outsideCutPath
100
AcDbLine
 10
24.8
 20
2.713795
 30
0.0
 11
25.1
 21
2.713795
 31
0.0
  0
LINE
  5
147
330
70
100
AcDbEntity
  8
box (1) v3 v1_box (1) v4_top_outsideCutPath
100
AcDbLine
 10
28.941385
 20
0.3
 30
0.0
 11
31.713795
 21
0.3
 31
0.0
  0
LINE
  5
148
330
70
100
AcDbEntity
  8
box (1) v3 v1_box (1) v4_top_outsideCutPath
100
AcDbLine
 10
28.941385
 20
7.599999999999999
 30
0.0
 11
26.168975
 21
7.599999999999999
 31
0.0
  0
LINE
  5
149
330
70
100
AcDbEntity
  8
box (1) v3 v1_box (1) v4_top_outsideCutPath
100
AcDbLine
 10
37.258615
 20
7.9
 30
0.0
 11
34.486205
 21
7.9
 31
0.0
  0
LINE
  5
14A
330
70
100
AcDbEntity
  8
box (1) v3 v1_box (1) v4_top_outsideCutPath
100
AcDbLine
 10
41.1
 20
7.599999999999999
 30
0.0
 11
37.258615
 21
7.599999999999999
 31
0.0
  0
LINE
  5
14B
330
70
100
AcDbEntity
  8
box (1) v3 v1_box (1) v4_top_outsideCutPath
100
AcDbLine
 10
28.941385
 20
0.6000000000000001
 30
0.0
 11
28.941385
 21
0.3
 31
0.0
  0
LINE
  5
14C
330
70
100
AcDbEntity
  8
box (1) v3 v1_box (1) v4_top_outsideCutPath
100
AcDbLine
 10
34.486205
 20
7.9
 30
0.0
 11
34.486205
 21
7.599999999999999
 31
0.0
  0
LINE
  5
14D
330
70
100
AcDbEntity
  8
box (1) v3 v1_box (1) v4_top_outsideCutPath
100
AcDbLine
 10
34.486205
 20
7.599999999999999
 30
0.0
 11
31.713795
 21
7.599999999999999
 31
0.0
  0
LINE
  5
14E
330
70
100
AcDbEntity
  8
box (1) v3 v1_box (1) v4_top_outsideCutPath
100
AcDbLine
 10
28.941385
 20
7.9
 30
0.0
 11
28.941385
 21
7.599999999999999
 31
0.0
  0
LINE
  5
14F
330
70
100
AcDbEntity
  8
box (1) v3 v1_box (1) v4_top_outsideCutPath
100
AcDbLine
 10
31.713795
 20
7.599999999999999
 30
0.0
 11
31.713795
 21
7.9
 31
0.0
  0
LINE
  5
150
330
70
100
AcDbEntity
  8
box (1) v3 v1_box (1) v4_top_outsideCutPath
100
AcDbLine
 10
31.713795
 20
0.3
 30
0.0
 11
31.713795
 21
0.6000000000000001
 31
0.0
  0
LINE
  5
151
330
70
100
AcDbEntity
  8
box (1) v3 v1_box (1) v4_top_outsideCutPath
100
AcDbLine
 10
41.1
 20
5.486204999999999
 30
0.0
 11
41.1
 21
7.599999999999999
 31
0.0
  0
LINE
  5
152
330
70
100
AcDbEntity
  8
box (1) v3 v1_box (1) v4_top_outsideCutPath
100
AcDbLine
 10
31.713795
 20
0.6000000000000001
 30
0.0
 11
34.486205
 21
0.6000000000000001
 31
0.0
  0
LINE
  5
153
330
70
100
AcDbEntity
  8
box (1) v3 v1_box (1) v4_top_outsideCutPath
100
AcDbLine
 10
41.1
 20
0.6000000000000001
 30
0.0
 11
41.1
 21
2.713795
 31
0.0
  0
LINE
  5
154
330
70
100
AcDbEntity
  8
box (1) v3 v1_box (1) v4_top_outsideCutPath
100
AcDbLine
 10
40.03102499999999
 20
0.6000000000000001
 30
0.0
 11
41.1
 21
0.6000000000000001
 31
0.0
  0
LINE
  5
155
330
70
100
AcDbEntity
  8
box (1) v3 v1_box (1) v4_top_outsideCutPath
100
AcDbLine
 10
25.1
 20
5.486204999999999
 30
0.0
 11
24.8
 21
5.486204999999999
 31
0.0
  0
LINE
  5
156
330
70
100
AcDbEntity
  8
box (1) v3 v1_box (1) v4_top_outsideCutPath
100
AcDbLine
 10
41.1
 20
2.713795
 30
0.0
 11
41.39999999999999
 21
2.713795
 31
0.0
  0
LINE
  5
157
330
70
100
AcDbEntity
  8
box (1) v3 v1_box (1) v4_top_outsideCutPath
100
AcDbLine
 10
32.0
 20
1.619589665633856
 30
0.0
 11
32.0
 21
2.819589665633855
 31
0.0
  0
LINE
  5
158
330
70
100
AcDbEntity
  8
box (1) v3 v1_box (1) v4_top_outsideCutPath
100
AcDbLine
 10
33.2
 20
2.819589665633855
 30
0.0
 11
33.2
 21
1.619589665633856
 31
0.0
  0
LINE
  5
159
330
70
100
AcDbEntity
  8
box (1) v3 v1_box (1) v4_top_outsideCutPath
100
AcDbLine
 10
25.1
 20
7.599999999999999
 30
0.0
 11
25.1
 21
5.486204999999999
 31
0.0
  0
POINT
  5
15B
330
70
100
AcDbEntity
  8
box (1) v3 v1_box (1) v4_back_outsideCutPath
100
AcDbPoint
 10
5.599999999999999
 20
53.79999999999999
 30
0.0
  0
LINE
  5
15C
330
70
100
AcDbEntity
  8
box (1) v3 v1_box (1) v4_back_outsideCutPath
100
AcDbLine
 10
0.3
 20
40.613795
 30
0.0
 11
0.3
 21
37.841385
 31
0.0
  0
LINE
  5
15D
330
70
100
AcDbEntity
  8
box (1) v3 v1_box (1) v4_back_outsideCutPath
100
AcDbLine
 10
12.458615
 20
28.2
 30
0.0
 11
15.231025
 21
28.2
 31
0.0
  0
LINE
  5
15E
330
70
100
AcDbEntity
  8
box (1) v3 v1_box (1) v4_back_outsideCutPath
100
AcDbLine
 10
0.3
 20
35.068975
 30
0.0
 11
0.3
 21
32.296565
 31
0.0
  0
LINE
  5
15F
330
70
100
AcDbEntity
  8
box (1) v3 v1_box (1) v4_back_outsideCutPath
100
AcDbLine
 10
0.0
 20
48.93102500000001
 30
0.0
 11
0.0
 21
46.158615
 31
0.0
  0
LINE
  5
160
330
70
100
AcDbEntity
  8
box (1) v3 v1_box (1) v4_back_outsideCutPath
100
AcDbLine
 10
0.0
 20
28.2
 30
0.0
 11
4.141384999999998
 21
28.2
 31
0.0
  0
LINE
  5
161
330
70
100
AcDbEntity
  8
box (1) v3 v1_box (1) v4_back_outsideCutPath
100
AcDbLine
 10
4.141384999999998
 20
28.2
 30
0.0
 11
4.141384999999998
 21
28.5
 31
0.0
  0
LINE
  5
162
330
70
100
AcDbEntity
  8
box (1) v3 v1_box (1) v4_back_outsideCutPath
100
AcDbLine
 10
6.913794999999999
 20
28.2
 30
0.0
 11
9.686204999999999
 21
28.2
 31
0.0
  0
LINE
  5
163
330
70
100
AcDbEntity
  8
box (1) v3 v1_box (1) v4_back_outsideCutPath
100
AcDbLine
 10
9.686204999999999
 20
28.2
 30
0.0
 11
9.686204999999999
 21
28.5
 31
0.0
  0
LINE
  5
164
330
70
100
AcDbEntity
  8
box (1) v3 v1_box (1) v4_back_outsideCutPath
100
AcDbLine
 10
0.3
 20
48.93102500000001
 30
0.0
 11
0.0
 21
48.93102500000001
 31
0.0
  0
LINE
  5
165
330
70
100
AcDbEntity
  8
box (1) v3 v1_box (1) v4_back_outsideCutPath
100
AcDbLine
 10
16.6
 20
32.296565
 30
0.0
 11
16.3
 21
32.296565
 31
0.0
  0
LINE
  5
166
330
70
100
AcDbEntity
  8
box (1) v3 v1_box (1) v4_back_outsideCutPath
100
AcDbLine
 10
0.0
 20
40.613795
 30
0.0
 11
0.3
 21
40.613795
 31
0.0
  0
LINE
  5
167
330
70
100
AcDbEntity
  8
box (1) v3 v1_box (1) v4_back_outsideCutPath
100
AcDbLine
 10
0.0
 20
51.70343500000001
 30
0.0
 11
0.3
 21
51.70343500000001
 31
0.0
  0
LINE
  5
168
330
70
100
AcDbEntity
  8
box (1) v3 v1_box (1) v4_back_outsideCutPath
100
AcDbLine
 10
4.141384999999998
 20
28.5
 30
0.0
 11
6.913794999999999
 21
28.5
 31
0.0
  0
LINE
  5
169
330
70
100
AcDbEntity
  8
box (1) v3 v1_box (1) v4_back_outsideCutPath
100
AcDbLine
 10
9.686204999999999
 20
28.5
 30
0.0
 11
12.458615
 21
28.5
 31
0.0
  0
LINE
  5
16A
330
70
100
AcDbEntity
  8
box (1) v3 v1_box (1) v4_back_outsideCutPath
100
AcDbLine
 10
6.913794999999999
 20
28.5
 30
0.0
 11
6.913794999999999
 21
28.2
 31
0.0
  0
LINE
  5
16B
330
70
100
AcDbEntity
  8
box (1) v3 v1_box (1) v4_back_outsideCutPath
100
AcDbLine
 10
0.0
 20
35.068975
 30
0.0
 11
0.3
 21
35.068975
 31
0.0
  0
LINE
  5
16C
330
70
100
AcDbEntity
  8
box (1) v3 v1_box (1) v4_back_outsideCutPath
100
AcDbLine
 10
0.0
 20
32.296565
 30
0.0
 11
0.0
 21
29.52415500000001
 31
0.0
  0
LINE
  5
16D
330
70
100
AcDbEntity
  8
box (1) v3 v1_box (1) v4_back_outsideCutPath
100
AcDbLine
 10
12.458615
 20
28.5
 30
0.0
 11
12.458615
 21
28.2
 31
0.0
  0
LINE
  5
16E
330
70
100
AcDbEntity
  8
box (1) v3 v1_box (1) v4_back_outsideCutPath
100
AcDbLine
 10
0.3
 20
32.296565
 30
0.0
 11
0.0
 21
32.296565
 31
0.0
  0
LINE
  5
16F
330
70
100
AcDbEntity
  8
box (1) v3 v1_box (1) v4_back_outsideCutPath
100
AcDbLine
 10
0.3
 20
46.158615
 30
0.0
 11
0.3
 21
43.386205
 31
0.0
  0
LINE
  5
170
330
70
100
AcDbEntity
  8
box (1) v3 v1_box (1) v4_back_outsideCutPath
100
AcDbLine
 10
0.0
 20
46.158615
 30
0.0
 11
0.3
 21
46.158615
 31
0.0
  0
LINE
  5
171
330
70
100
AcDbEntity
  8
box (1) v3 v1_box (1) v4_back_outsideCutPath
100
AcDbLine
 10
0.0
 20
29.52415500000001
 30
0.0
 11
0.0
 21
28.2
 31
0.0
  0
LINE
  5
172
330
70
100
AcDbEntity
  8
box (1) v3 v1_box (1) v4_back_outsideCutPath
100
AcDbLine
 10
0.0
 20
37.841385
 30
0.0
 11
0.0
 21
35.068975
 31
0.0
  0
LINE
  5
173
330
70
100
AcDbEntity
  8
box (1) v3 v1_box (1) v4_back_outsideCutPath
100
AcDbLine
 10
16.3
 20
32.296565
 30
0.0
 11
16.3
 21
35.068975
 31
0.0
  0
LINE
  5
174
330
70
100
AcDbEntity
  8
box (1) v3 v1_box (1) v4_back_outsideCutPath
100
AcDbLine
 10
16.6
 20
28.2
 30
0.0
 11
16.6
 21
32.296565
 31
0.0
  0
CIRCLE
  5
175
330
70
100
AcDbEntity
  8
box (1) v3 v1_box (1) v4_back_outsideCutPath
100
AcDbCircle
 10
15.76496085858423
 20
42.16566097272954
 30
0.0
 40
0.1999999999999981
  0
CIRCLE
  5
176
330
70
100
AcDbEntity
  8
box (1) v3 v1_box (1) v4_back_outsideCutPath
100
AcDbCircle
 10
8.308145998474966
 20
30.2090254476252
 30
0.0
 40
0.2000000000000019
  0
CIRCLE
  5
177
330
70
100
AcDbEntity
  8
box (1) v3 v1_box (1) v4_back_outsideCutPath
100
AcDbCircle
 10
4.482682548264801
 20
23.48363066565114
 30
0.0
 40
0.1349999999999995
  0
CIRCLE
  5
178
330
70
100
AcDbEntity
  8
box (1) v3 v1_box (1) v4_back_outsideCutPath
100
AcDbCircle
 10
5.599999999999999
 20
54.95
 30
0.0
 40
0.199999999999998
  0
LINE
  5
179
330
70
100
AcDbEntity
  8
box (1) v3 v1_box (1) v4_back_outsideCutPath
100
AcDbLine
 10
25.1
 20
7.599999999999999
 30
0.0
 11
25.1
 21
5.486204999999999
 31
0.0
  0
CIRCLE
  5
17A
330
70
100
AcDbEntity
  8
box (1) v3 v1_box (1) v4_back_outsideCutPath
100
AcDbCircle
 10
23.64198569221351
 20
41.81669999999999
 30
0.0
 40
0.1999999999999981
  0
CIRCLE
  5
17B
330
70
100
AcDbEntity
  8
box (1) v3 v1_box (1) v4_back_outsideCutPath
100
AcDbCircle
 10
5.599999999999999
 20
54.95
 30
0.0
 40
0.199999999999998
  0
LINE
  5
17C
330
70
100
AcDbEntity
  8
box (1) v3 v1_box (1) v4_back_outsideCutPath
100
AcDbLine
 10
4.141384999999998
 20
55.8
 30
0.0
 11
1.368974999999998
 21
55.8
 31
0.0
  0
LINE
  5
17D
330
70
100
AcDbEntity
  8
box (1) v3 v1_box (1) v4_back_outsideCutPath
100
AcDbLine
 10
16.6
 20
54.47584500000001
 30
0.0
 11
16.6
 21
55.8
 31
0.0
  0
CIRCLE
  5
17E
330
70
100
AcDbEntity
  8
box (1) v3 v1_box (1) v4_back_outsideCutPath
100
AcDbCircle
 10
11.02112131941692
 20
53.78677775287947
 30
0.0
 40
0.2000000000000018
  0
CIRCLE
  5
17F
330
70
100
AcDbEntity
  8
box (1) v3 v1_box (1) v4_back_outsideCutPath
100
AcDbCircle
 10
8.308145998474962
 20
29.05902544762522
 30
0.0
 40
0.1999999999999982
  0
LINE
  5
180
330
70
100
AcDbEntity
  8
box (1) v3 v1_box (1) v4_back_outsideCutPath
100
AcDbLine
 10
15.231025
 20
28.2
 30
0.0
 11
16.6
 21
28.2
 31
0.0
  0
LINE
  5
181
330
70
100
AcDbEntity
  8
box (1) v3 v1_box (1) v4_back_outsideCutPath
100
AcDbLine
 10
16.3
 20
43.386205
 30
0.0
 11
16.3
 21
46.158615
 31
0.0
  0
LINE
  5
182
330
70
100
AcDbEntity
  8
box (1) v3 v1_box (1) v4_back_outsideCutPath
100
AcDbLine
 10
6.913794999999999
 20
55.8
 30
0.0
 11
6.913794999999999
 21
55.5
 31
0.0
  0
LINE
  5
183
330
70
100
AcDbEntity
  8
box (1) v3 v1_box (1) v4_back_outsideCutPath
100
AcDbLine
 10
16.3
 20
40.613795
 30
0.0
 11
16.6
 21
40.613795
 31
0.0
  0
CIRCLE
  5
184
330
70
100
AcDbEntity
  8
box (1) v3 v1_box (1) v4_back_outsideCutPath
100
AcDbCircle
 10
5.599999999999999
 20
53.79999999999999
 30
0.0
 40
0.2000000000000018
  0
CIRCLE
  5
185
330
70
100
AcDbEntity
  8
box (1) v3 v1_box (1) v4_back_outsideCutPath
100
AcDbCircle
 10
36.12112703147389
 20
5.906373552447059
 30
0.0
 40
0.2000000000000018
  0
LINE
  5
186
330
70
100
AcDbEntity
  8
box (1) v3 v1_box (1) v4_back_outsideCutPath
100
AcDbLine
 10
0.0
 20
43.386205
 30
0.0
 11
0.0
 21
40.613795
 31
0.0
  0
LINE
  5
187
330
70
100
AcDbEntity
  8
box (1) v3 v1_box (1) v4_back_outsideCutPath
100
AcDbLine
 10
16.6
 20
37.841385
 30
0.0
 11
16.3
 21
37.841385
 31
0.0
  0
CIRCLE
  5
188
330
70
100
AcDbEntity
  8
box (1) v3 v1_box (1) v4_back_outsideCutPath
100
AcDbCircle
 10
5.599999999999999
 20
53.79999999999999
 30
0.0
 40
0.2000000000000018
  0
LINE
  5
189
330
70
100
AcDbEntity
  8
box (1) v3 v1_box (1) v4_back_outsideCutPath
100
AcDbLine
 10
16.3
 20
48.93102500000001
 30
0.0
 11
16.3
 21
51.70343500000001
 31
0.0
  0
LINE
  5
18A
330
70
100
AcDbEntity
  8
box (1) v3 v1_box (1) v4_back_outsideCutPath
100
AcDbLine
 10
16.6
 20
55.8
 30
0.0
 11
12.458615
 21
55.8
 31
0.0
  0
LINE
  5
18B
330
70
100
AcDbEntity
  8
box (1) v3 v1_box (1) v4_back_outsideCutPath
100
AcDbLine
 10
0.0
 20
55.8
 30
0.0
 11
0.0
 21
51.70343500000001
 31
0.0
  0
LINE
  5
18C
330
70
100
AcDbEntity
  8
box (1) v3 v1_box (1) v4_back_outsideCutPath
100
AcDbLine
 10
16.6
 20
43.386205
 30
0.0
 11
16.3
 21
43.386205
 31
0.0
  0
LINE
  5
18D
330
70
100
AcDbEntity
  8
box (1) v3 v1_box (1) v4_back_outsideCutPath
100
AcDbLine
 10
4.141384999999998
 20
55.5
 30
0.0
 11
4.141384999999998
 21
55.8
 31
0.0
  0
LINE
  5
18E
330
70
100
AcDbEntity
  8
box (1) v3 v1_box (1) v4_back_outsideCutPath
100
AcDbLine
 10
9.686204999999999
 20
55.5
 30
0.0
 11
9.686204999999999
 21
55.8
 31
0.0
  0
CIRCLE
  5
18F
330
70
100
AcDbEntity
  8
box (1) v3 v1_box (1) v4_back_outsideCutPath
100
AcDbCircle
 10
5.599999999999999
 20
54.95
 30
0.0
 40
0.199999999999998
  0
LINE
  5
190
330
70
100
AcDbEntity
  8
box (1) v3 v1_box (1) v4_back_outsideCutPath
100
AcDbLine
 10
16.3
 20
46.158615
 30
0.0
 11
16.6
 21
46.158615
 31
0.0
  0
CIRCLE
  5
191
330
70
100
AcDbEntity
  8
box (1) v3 v1_box (1) v4_back_outsideCutPath
100
AcDbCircle
 10
11.02112131941692
 20
54.93677775287947
 30
0.0
 40
0.199999999999998
  0
CIRCLE
  5
192
330
70
100
AcDbEntity
  8
box (1) v3 v1_box (1) v4_back_outsideCutPath
100
AcDbCircle
 10
30.7
 20
5.91959579956759
 30
0.0
 40
0.2000000000000018
  0
LINE
  5
193
330
70
100
AcDbEntity
  8
box (1) v3 v1_box (1) v4_back_outsideCutPath
100
AcDbLine
 10
16.6
 20
35.068975
 30
0.0
 11
16.6
 21
37.841385
 31
0.0
  0
LINE
  5
194
330
70
100
AcDbEntity
  8
box (1) v3 v1_box (1) v4_back_outsideCutPath
100
AcDbLine
 10
0.3
 20
37.841385
 30
0.0
 11
0.0
 21
37.841385
 31
0.0
  0
CIRCLE
  5
195
330
70
100
AcDbEntity
  8
box (1) v3 v1_box (1) v4_back_outsideCutPath
100
AcDbCircle
 10
5.599999999999999
 20
53.79999999999999
 30
0.0
 40
0.2000000000000018
  0
CIRCLE
  5
196
330
70
100
AcDbEntity
  8
box (1) v3 v1_box (1) v4_back_outsideCutPath
100
AcDbCircle
 10
0.8468713157843312
 20
42.11665753702503
 30
0.0
 40
0.1999999999999981
  0
CIRCLE
  5
197
330
70
100
AcDbEntity
  8
box (1) v3 v1_box (1) v4_back_outsideCutPath
100
AcDbCircle
 10
5.599999999999999
 20
54.95
 30
0.0
 40
0.199999999999998
  0
LINE
  5
198
330
70
100
AcDbEntity
  8
box (1) v3 v1_box (1) v4_back_outsideCutPath
100
AcDbLine
 10
16.6
 20
40.613795
 30
0.0
 11
16.6
 21
43.386205
 31
0.0
  0
CIRCLE
  5
199
330
70
100
AcDbEntity
  8
box (1) v3 v1_box (1) v4_back_outsideCutPath
100
AcDbCircle
 10
22.49198569221352
 20
41.81669999999999
 30
0.0
 40
0.2000000000000019
  0
LINE
  5
19A
330
70
100
AcDbEntity
  8
box (1) v3 v1_box (1) v4_back_outsideCutPath
100
AcDbLine
 10
16.6
 20
46.158615
 30
0.0
 11
16.6
 21
48.93102500000001
 31
0.0
  0
CIRCLE
  5
19B
330
70
100
AcDbEntity
  8
box (1) v3 v1_box (1) v4_back_outsideCutPath
100
AcDbCircle
 10
5.599999999999999
 20
53.79999999999999
 30
0.0
 40
0.2000000000000018
  0
LINE
  5
19C
330
70
100
AcDbEntity
  8
box (1) v3 v1_box (1) v4_back_outsideCutPath
100
AcDbLine
 10
24.2
 20
55.8
 30
0.0
 11
22.086205
 21
55.8
 31
0.0
  0
CIRCLE
  5
19D
330
70
100
AcDbEntity
  8
box (1) v3 v1_box (1) v4_back_outsideCutPath
100
AcDbCircle
 10
12.0126825482648
 20
23.48363066565114
 30
0.0
 40
0.1349999999999996
  0
LINE
  5
19E
330
70
100
AcDbEntity
  8
box (1) v3 v1_box (1) v4_back_outsideCutPath
100
AcDbLine
 10
16.6
 20
51.70343500000001
 30
0.0
 11
16.6
 21
54.47584500000001
 31
0.0
  0
LINE
  5
19F
330
70
100
AcDbEntity
  8
box (1) v3 v1_box (1) v4_back_outsideCutPath
100
AcDbLine
 10
0.3
 20
51.70343500000001
 30
0.0
 11
0.3
 21
48.93102500000001
 31
0.0
  0
LINE
  5
1A0
330
70
100
AcDbEntity
  8
box (1) v3 v1_box (1) v4_back_outsideCutPath
100
AcDbLine
 10
16.3
 20
37.841385
 30
0.0
 11
16.3
 21
40.613795
 31
0.0
  0
LINE
  5
1A1
330
70
100
AcDbEntity
  8
box (1) v3 v1_box (1) v4_back_outsideCutPath
100
AcDbLine
 10
6.913794999999999
 20
55.5
 30
0.0
 11
4.141384999999998
 21
55.5
 31
0.0
  0
LINE
  5
1A2
330
70
100
AcDbEntity
  8
box (1) v3 v1_box (1) v4_back_outsideCutPath
100
AcDbLine
 10
12.458615
 20
55.5
 30
0.0
 11
9.686204999999999
 21
55.5
 31
0.0
  0
LINE
  5
1A3
330
70
100
AcDbEntity
  8
box (1) v3 v1_box (1) v4_back_outsideCutPath
100
AcDbLine
 10
16.3
 20
35.068975
 30
0.0
 11
16.6
 21
35.068975
 31
0.0
  0
LINE
  5
1A4
330
70
100
AcDbEntity
  8
box (1) v3 v1_box (1) v4_back_outsideCutPath
100
AcDbLine
 10
4.647682548264801
 20
23.79865831472686
 30
0.0
 11
4.647682548264801
 21
26.39865831472687
 31
0.0
  0
LINE
  5
1A5
330
70
100
AcDbEntity
  8
box (1) v3 v1_box (1) v4_back_outsideCutPath
100
AcDbLine
 10
16.3
 20
51.70343500000001
 30
0.0
 11
16.6
 21
51.70343500000001
 31
0.0
  0
CIRCLE
  5
1A6
330
70
100
AcDbEntity
  8
box (1) v3 v1_box (1) v4_back_outsideCutPath
100
AcDbCircle
 10
12.0126825482648
 20
26.61363066565114
 30
0.0
 40
0.1350000000000006
  0
CIRCLE
  5
1A7
330
70
100
AcDbEntity
  8
box (1) v3 v1_box (1) v4_back_outsideCutPath
100
AcDbCircle
 10
5.599999999999999
 20
53.79999999999999
 30
0.0
 40
0.2000000000000018
  0
CIRCLE
  5
1A8
330
70
100
AcDbEntity
  8
box (1) v3 v1_box (1) v4_back_outsideCutPath
100
AcDbCircle
 10
11.02112131941692
 20
53.78677775287947
 30
0.0
 40
0.2000000000000018
  0
CIRCLE
  5
1A9
330
70
100
AcDbEntity
  8
box (1) v3 v1_box (1) v4_back_outsideCutPath
100
AcDbCircle
 10
5.599999999999999
 20
54.95
 30
0.0
 40
0.199999999999998
  0
CIRCLE
  5
1AA
330
70
100
AcDbEntity
  8
box (1) v3 v1_box (1) v4_back_outsideCutPath
100
AcDbCircle
 10
14.61496085858424
 20
42.16566097272954
 30
0.0
 40
0.2000000000000019
  0
CIRCLE
  5
1AB
330
70
100
AcDbEntity
  8
box (1) v3 v1_box (1) v4_back_outsideCutPath
100
AcDbCircle
 10
30.7
 20
7.069595799567595
 30
0.0
 40
0.199999999999998
  0
LINE
  5
1AC
330
70
100
AcDbEntity
  8
box (1) v3 v1_box (1) v4_back_outsideCutPath
100
AcDbLine
 10
1.368974999999999
 20
55.8
 30
0.0
 11
0.0
 21
55.8
 31
0.0
  0
LINE
  5
1AD
330
70
100
AcDbEntity
  8
box (1) v3 v1_box (1) v4_back_outsideCutPath
100
AcDbLine
 10
16.6
 20
48.93102500000001
 30
0.0
 11
16.3
 21
48.93102500000001
 31
0.0
  0
CIRCLE
  5
1AE
330
70
100
AcDbEntity
  8
box (1) v3 v1_box (1) v4_back_outsideCutPath
100
AcDbCircle
 10
36.12112703147389
 20
7.056373552447064
 30
0.0
 40
0.199999999999998
  0
LINE
  5
1AF
330
70
100
AcDbEntity
  8
box (1) v3 v1_box (1) v4_back_outsideCutPath
100
AcDbLine
 10
0.3
 20
43.386205
 30
0.0
 11
0.0
 21
43.386205
 31
0.0
  0
CIRCLE
  5
1B0
330
70
100
AcDbEntity
  8
box (1) v3 v1_box (1) v4_back_outsideCutPath
100
AcDbCircle
 10
1.99687131578433
 20
42.11665753702503
 30
0.0
 40
0.2000000000000019
  0
CIRCLE
  5
1B1
330
70
100
AcDbEntity
  8
box (1) v3 v1_box (1) v4_back_outsideCutPath
100
AcDbCircle
 10
4.482682548264801
 20
26.61363066565114
 30
0.0
 40
0.1350000000000004
  0
LINE
  5
1B2
330
70
100
AcDbEntity
  8
box (1) v3 v1_box (1) v4_back_outsideCutPath
100
AcDbLine
 10
9.686204999999999
 20
55.8
 30
0.0
 11
6.913794999999999
 21
55.8
 31
0.0
  0
LINE
  5
1B3
330
70
100
AcDbEntity
  8
box (1) v3 v1_box (1) v4_back_outsideCutPath
100
AcDbLine
 10
12.458615
 20
55.8
 30
0.0
 11
12.458615
 21
55.5
 31
0.0
  0
CIRCLE
  5
1B4
330
70
100
AcDbEntity
  8
box (1) v3 v1_box (1) v4_back_outsideCutPath
100
AcDbCircle
 10
11.02112131941692
 20
54.93677775287947
 30
0.0
 40
0.199999999999998
  0
CIRCLE
  5
1B5
330
70
100
AcDbEntity
  8
box (1) v3 v1_box (1) v4_back_outsideCutPath
100
AcDbCircle
 10
4.42235170492458
 20
50.26856387061627
 30
0.0
 40
0.1999999999999989
  0
CIRCLE
  5
1B6
330
70
100
AcDbEntity
  8
box (1) v3 v1_box (1) v4_back_outsideCutPath
100
AcDbCircle
 10
12.36912922049832
 20
50.26857589617218
 30
0.0
 40
0.2000000000000005
  0
CIRCLE
  5
1B7
330
70
100
AcDbEntity
  8
box (1) v3 v1_box (1) v4_back_outsideCutPath
100
AcDbCircle
 10
19.34219784917714
 20
14.2657
 30
0.0
 40
0.1999999999999981
  0
LINE
  5
1B8
330
70
100
AcDbEntity
  8
box (1) v3 v1_box (1) v4_back_outsideCutPath
100
AcDbLine
 10
19.313795
 20
27.9
 30
0.0
 11
17.2
 21
27.9
 31
0.0
  0
CIRCLE
  5
1B9
330
70
100
AcDbEntity
  8
box (1) v3 v1_box (1) v4_back_outsideCutPath
100
AcDbCircle
 10
4.417058099837456
 20
45.7963013571281
 30
0.0
 40
0.200000000000003
  0
CIRCLE
  5
1BA
330
70
100
AcDbEntity
  8
box (1) v3 v1_box (1) v4_back_outsideCutPath
100
AcDbCircle
 10
18.19219784917715
 20
14.2657
 30
0.0
 40
0.2000000000000019
  0
CIRCLE
  5
1BB
330
70
100
AcDbEntity
  8
box (1) v3 v1_box (1) v4_back_outsideCutPath
100
AcDbCircle
 10
12.36768506018958
 20
45.79541683881287
 30
0.0
 40
0.1999999999999984
  0
LINE
  5
1BD
330
70
100
AcDbEntity
  8
box (1) v3 v1_box (1) v4_right_outsideCutPath
100
AcDbLine
 10
17.2
 20
32.296565
 30
0.0
 11
17.2
 21
29.52415500000001
 31
0.0
  0
LINE
  5
1BE
330
70
100
AcDbEntity
  8
box (1) v3 v1_box (1) v4_right_outsideCutPath
100
AcDbLine
 10
16.9
 20
46.158615
 30
0.0
 11
16.9
 21
43.386205
 31
0.0
  0
LINE
  5
1BF
330
70
100
AcDbEntity
  8
box (1) v3 v1_box (1) v4_right_outsideCutPath
100
AcDbLine
 10
22.086205
 20
28.2
 30
0.0
 11
24.2
 21
28.2
 31
0.0
  0
LINE
  5
1C0
330
70
100
AcDbEntity
  8
box (1) v3 v1_box (1) v4_right_outsideCutPath
100
AcDbLine
 10
17.2
 20
51.70343500000001
 30
0.0
 11
16.9
 21
51.70343500000001
 31
0.0
  0
LINE
  5
1C1
330
70
100
AcDbEntity
  8
box (1) v3 v1_box (1) v4_right_outsideCutPath
100
AcDbLine
 10
22.086205
 20
28.5
 30
0.0
 11
22.086205
 21
28.2
 31
0.0
  0
LINE
  5
1C2
330
70
100
AcDbEntity
  8
box (1) v3 v1_box (1) v4_right_outsideCutPath
100
AcDbLine
 10
17.2
 20
37.841385
 30
0.0
 11
17.2
 21
35.068975
 31
0.0
  0
LINE
  5
1C3
330
70
100
AcDbEntity
  8
box (1) v3 v1_box (1) v4_right_outsideCutPath
100
AcDbLine
 10
16.9
 20
40.613795
 30
0.0
 11
16.9
 21
37.841385
 31
0.0
  0
LINE
  5
1C4
330
70
100
AcDbEntity
  8
box (1) v3 v1_box (1) v4_right_outsideCutPath
100
AcDbLine
 10
17.2
 20
40.613795
 30
0.0
 11
16.9
 21
40.613795
 31
0.0
  0
LINE
  5
1C5
330
70
100
AcDbEntity
  8
box (1) v3 v1_box (1) v4_right_outsideCutPath
100
AcDbLine
 10
24.5
 20
32.296565
 30
0.0
 11
24.5
 21
35.068975
 31
0.0
  0
LINE
  5
1C6
330
70
100
AcDbEntity
  8
box (1) v3 v1_box (1) v4_right_outsideCutPath
100
AcDbLine
 10
24.2
 20
43.386205
 30
0.0
 11
24.5
 21
43.386205
 31
0.0
  0
LINE
  5
1C7
330
70
100
AcDbEntity
  8
box (1) v3 v1_box (1) v4_right_outsideCutPath
100
AcDbLine
 10
24.5
 20
37.841385
 30
0.0
 11
24.5
 21
40.613795
 31
0.0
  0
LINE
  5
1C8
330
70
100
AcDbEntity
  8
box (1) v3 v1_box (1) v4_right_outsideCutPath
100
AcDbLine
 10
24.2
 20
54.47584500000001
 30
0.0
 11
24.2
 21
55.8
 31
0.0
  0
LINE
  5
1C9
330
70
100
AcDbEntity
  8
box (1) v3 v1_box (1) v4_right_outsideCutPath
100
AcDbLine
 10
19.313795
 20
55.5
 30
0.0
 11
19.313795
 21
55.8
 31
0.0
  0
LINE
  5
1CA
330
70
100
AcDbEntity
  8
box (1) v3 v1_box (1) v4_right_outsideCutPath
100
AcDbLine
 10
24.2
 20
51.70343500000001
 30
0.0
 11
24.2
 21
54.47584500000001
 31
0.0
  0
LINE
  5
1CB
330
70
100
AcDbEntity
  8
box (1) v3 v1_box (1) v4_right_outsideCutPath
100
AcDbLine
 10
24.2
 20
48.93102500000001
 30
0.0
 11
24.5
 21
48.93102500000001
 31
0.0
  0
LINE
  5
1CC
330
70
100
AcDbEntity
  8
box (1) v3 v1_box (1) v4_right_outsideCutPath
100
AcDbLine
 10
24.2
 20
46.158615
 30
0.0
 11
24.2
 21
48.93102500000001
 31
0.0
  0
LINE
  5
1CD
330
70
100
AcDbEntity
  8
box (1) v3 v1_box (1) v4_right_outsideCutPath
100
AcDbLine
 10
0.3
 20
18.258615
 30
0.0
 11
0.3
 21
15.486205
 31
0.0
  0
CIRCLE
  5
1CE
330
70
100
AcDbEntity
  8
box (1) v3 v1_box (1) v4_right_outsideCutPath
100
AcDbCircle
 10
18.13406727129857
 20
46.892138905363
 30
0.0
 40
0.0999999999999998
  0
LINE
  5
1CF
330
70
100
AcDbEntity
  8
box (1) v3 v1_box (1) v4_right_outsideCutPath
100
AcDbLine
 10
24.5
 20
43.386205
 30
0.0
 11
24.5
 21
46.158615
 31
0.0
  0
LINE
  5
1D0
330
70
100
AcDbEntity
  8
box (1) v3 v1_box (1) v4_right_outsideCutPath
100
AcDbLine
 10
17.2
 20
29.52415500000001
 30
0.0
 11
17.2
 21
28.2
 31
0.0
  0
CIRCLE
  5
1D1
330
70
100
AcDbEntity
  8
box (1) v3 v1_box (1) v4_right_outsideCutPath
100
AcDbCircle
 10
23.33406727129858
 20
46.892138905363
 30
0.0
 40
0.1000000000000023
  0
LINE
  5
1D2
330
70
100
AcDbEntity
  8
box (1) v3 v1_box (1) v4_right_outsideCutPath
100
AcDbLine
 10
24.5
 20
48.93102500000001
 30
0.0
 11
24.5
 21
51.70343500000001
 31
0.0
  0
LINE
  5
1D3
330
70
100
AcDbEntity
  8
box (1) v3 v1_box (1) v4_right_outsideCutPath
100
AcDbLine
 10
24.5
 20
46.158615
 30
0.0
 11
24.2
 21
46.158615
 31
0.0
  0
CIRCLE
  5
1D4
330
70
100
AcDbEntity
  8
box (1) v3 v1_box (1) v4_right_outsideCutPath
100
AcDbCircle
 10
23.33406727129858
 20
37.69213890536299
 30
0.0
 40
0.0999999999999987
  0
LINE
  5
1D5
330
70
100
AcDbEntity
  8
box (1) v3 v1_box (1) v4_right_outsideCutPath
100
AcDbLine
 10
19.313795
 20
28.5
 30
0.0
 11
22.086205
 21
28.5
 31
0.0
  0
LINE
  5
1D6
330
70
100
AcDbEntity
  8
box (1) v3 v1_box (1) v4_right_outsideCutPath
100
AcDbLine
 10
16.9
 20
35.068975
 30
0.0
 11
16.9
 21
32.296565
 31
0.0
  0
LINE
  5
1D7
330
70
100
AcDbEntity
  8
box (1) v3 v1_box (1) v4_right_outsideCutPath
100
AcDbLine
 10
24.2
 20
32.296565
 30
0.0
 11
24.5
 21
32.296565
 31
0.0
  0
CIRCLE
  5
1D8
330
70
100
AcDbEntity
  8
box (1) v3 v1_box (1) v4_right_outsideCutPath
100
AcDbCircle
 10
1.9
 20
22.18801724773478
 30
0.0
 40
0.1499999999999995
  0
CIRCLE
  5
1D9
330
70
100
AcDbEntity
  8
box (1) v3 v1_box (1) v4_right_outsideCutPath
100
AcDbCircle
 10
1.9
 20
11.6921
 30
0.0
 40
0.35
  0
LINE
  5
1DA
330
70
100
AcDbEntity
  8
box (1) v3 v1_box (1) v4_right_outsideCutPath
100
AcDbLine
 10
16.9
 20
32.296565
 30
0.0
 11
17.2
 21
32.296565
 31
0.0
  0
CIRCLE
  5
1DB
330
70
100
AcDbEntity
  8
box (1) v3 v1_box (1) v4_right_outsideCutPath
100
AcDbCircle
 10
18.13406727129857
 20
37.69213890536299
 30
0.0
 40
0.1000000000000014
  0
LINE
  5
1DC
330
70
100
AcDbEntity
  8
box (1) v3 v1_box (1) v4_right_outsideCutPath
100
AcDbLine
 10
24.2
 20
28.2
 30
0.0
 11
24.2
 21
32.296565
 31
0.0
  0
LINE
  5
1DD
330
70
100
AcDbEntity
  8
box (1) v3 v1_box (1) v4_right_outsideCutPath
100
AcDbLine
 10
17.2
 20
35.068975
 30
0.0
 11
16.9
 21
35.068975
 31
0.0
  0
LINE
  5
1DE
330
70
100
AcDbEntity
  8
box (1) v3 v1_box (1) v4_right_outsideCutPath
100
AcDbLine
 10
17.2
 20
48.93102500000001
 30
0.0
 11
17.2
 21
46.158615
 31
0.0
  0
LINE
  5
1DF
330
70
100
AcDbEntity
  8
box (1) v3 v1_box (1) v4_right_outsideCutPath
100
AcDbLine
 10
24.5
 20
40.613795
 30
0.0
 11
24.2
 21
40.613795
 31
0.0
  0
LINE
  5
1E0
330
70
100
AcDbEntity
  8
box (1) v3 v1_box (1) v4_right_outsideCutPath
100
AcDbLine
 10
16.9
 20
51.70343500000001
 30
0.0
 11
16.9
 21
48.93102500000001
 31
0.0
  0
LINE
  5
1E1
330
70
100
AcDbEntity
  8
box (1) v3 v1_box (1) v4_right_outsideCutPath
100
AcDbLine
 10
17.2
 20
28.2
 30
0.0
 11
19.313795
 21
28.2
 31
0.0
  0
LINE
  5
1E2
330
70
100
AcDbEntity
  8
box (1) v3 v1_box (1) v4_right_outsideCutPath
100
AcDbLine
 10
24.2
 20
35.068975
 30
0.0
 11
24.2
 21
37.841385
 31
0.0
  0
LINE
  5
1E3
330
70
100
AcDbEntity
  8
box (1) v3 v1_box (1) v4_right_outsideCutPath
100
AcDbLine
 10
24.2
 20
37.841385
 30
0.0
 11
24.5
 21
37.841385
 31
0.0
  0
LINE
  5
1E4
330
70
100
AcDbEntity
  8
box (1) v3 v1_box (1) v4_right_outsideCutPath
100
AcDbLine
 10
24.2
 20
40.613795
 30
0.0
 11
24.2
 21
43.386205
 31
0.0
  0
LINE
  5
1E5
330
70
100
AcDbEntity
  8
box (1) v3 v1_box (1) v4_right_outsideCutPath
100
AcDbLine
 10
17.2
 20
55.8
 30
0.0
 11
17.2
 21
51.70343500000001
 31
0.0
  0
LINE
  5
1E6
330
70
100
AcDbEntity
  8
box (1) v3 v1_box (1) v4_right_outsideCutPath
100
AcDbLine
 10
0.0
 20
0.3
 30
0.0
 11
4.141384999999998
 21
0.3
 31
0.0
  0
LINE
  5
1E7
330
70
100
AcDbEntity
  8
box (1) v3 v1_box (1) v4_right_outsideCutPath
100
AcDbLine
 10
17.2
 20
43.386205
 30
0.0
 11
17.2
 21
40.613795
 31
0.0
  0
LINE
  5
1E8
330
70
100
AcDbEntity
  8
box (1) v3 v1_box (1) v4_right_outsideCutPath
100
AcDbLine
 10
24.5
 20
35.068975
 30
0.0
 11
24.2
 21
35.068975
 31
0.0
  0
LINE
  5
1E9
330
70
100
AcDbEntity
  8
box (1) v3 v1_box (1) v4_right_outsideCutPath
100
AcDbLine
 10
0.3
 20
23.803435
 30
0.0
 11
0.3
 21
21.031025
 31
0.0
  0
LINE
  5
1EA
330
70
100
AcDbEntity
  8
box (1) v3 v1_box (1) v4_right_outsideCutPath
100
AcDbLine
 10
0.3
 20
23.803435
 30
0.0
 11
0.3
 21
21.031025
 31
0.0
  0
LINE
  5
1EB
330
70
100
AcDbEntity
  8
box (1) v3 v1_box (1) v4_right_outsideCutPath
100
AcDbLine
 10
19.313795
 20
55.8
 30
0.0
 11
17.2
 21
55.8
 31
0.0
  0
LINE
  5
1EC
330
70
100
AcDbEntity
  8
box (1) v3 v1_box (1) v4_right_outsideCutPath
100
AcDbLine
 10
16.9
 20
48.93102500000001
 30
0.0
 11
17.2
 21
48.93102500000001
 31
0.0
  0
LINE
  5
1ED
330
70
100
AcDbEntity
  8
box (1) v3 v1_box (1) v4_right_outsideCutPath
100
AcDbLine
 10
24.2
 20
55.8
 30
0.0
 11
22.086205
 21
55.8
 31
0.0
  0
LINE
  5
1EE
330
70
100
AcDbEntity
  8
box (1) v3 v1_box (1) v4_right_outsideCutPath
100
AcDbLine
 10
16.9
 20
37.841385
 30
0.0
 11
17.2
 21
37.841385
 31
0.0
  0
LINE
  5
1EF
330
70
100
AcDbEntity
  8
box (1) v3 v1_box (1) v4_right_outsideCutPath
100
AcDbLine
 10
17.2
 20
46.158615
 30
0.0
 11
16.9
 21
46.158615
 31
0.0
  0
LINE
  5
1F0
330
70
100
AcDbEntity
  8
box (1) v3 v1_box (1) v4_right_outsideCutPath
100
AcDbLine
 10
19.313795
 20
28.2
 30
0.0
 11
19.313795
 21
28.5
 31
0.0
  0
LINE
  5
1F1
330
70
100
AcDbEntity
  8
box (1) v3 v1_box (1) v4_right_outsideCutPath
100
AcDbLine
 10
22.086205
 20
55.8
 30
0.0
 11
22.086205
 21
55.5
 31
0.0
  0
CIRCLE
  5
1F2
330
70
100
AcDbEntity
  8
box (1) v3 v1_box (1) v4_right_outsideCutPath
100
AcDbCircle
 10
1.9
 20
15.9921
 30
0.0
 40
0.3000000000000009
  0
LINE
  5
1F3
330
70
100
AcDbEntity
  8
box (1) v3 v1_box (1) v4_right_outsideCutPath
100
AcDbLine
 10
24.5
 20
51.70343500000001
 30
0.0
 11
24.2
 21
51.70343500000001
 31
0.0
  0
CIRCLE
  5
1F4
330
70
100
AcDbEntity
  8
box (1) v3 v1_box (1) v4_right_outsideCutPath
100
AcDbCircle
 10
1.9
 20
20.68801724773479
 30
0.0
 40
0.1500000000000007
  0
LINE
  5
1F5
330
70
100
AcDbEntity
  8
box (1) v3 v1_box (1) v4_right_outsideCutPath
100
AcDbLine
 10
16.9
 20
43.386205
 30
0.0
 11
17.2
 21
43.386205
 31
0.0
  0
LINE
  5
1F6
330
70
100
AcDbEntity
  8
box (1) v3 v1_box (1) v4_right_outsideCutPath
100
AcDbLine
 10
22.086205
 20
55.5
 30
0.0
 11
19.313795
 21
55.5
 31
0.0
  0
LINE
  5
1F7
330
70
100
AcDbEntity
  8
box (1) v3 v1_box (1) v4_right_outsideCutPath
100
AcDbLine
 10
0.3
 20
12.713795
 30
0.0
 11
0.3
 21
9.941385
 31
0.0
  0
LINE
  5
1F9
330
70
100
AcDbEntity
  8
box (1) v3 v1_box (1) v4_bottom_outsideCutPath
100
AcDbLine
 10
40.03102499999999
 20
8.5
 30
0.0
 11
41.1
 21
8.5
 31
0.0
  0
LINE
  5
1FA
330
70
100
AcDbEntity
  8
box (1) v3 v1_box (1) v4_bottom_outsideCutPath
100
AcDbLine
 10
25.1
 20
10.613795
 30
0.0
 11
25.1
 21
8.5
 31
0.0
  0
LINE
  5
1FB
330
70
100
AcDbEntity
  8
box (1) v3 v1_box (1) v4_bottom_outsideCutPath
100
AcDbLine
 10
25.1
 20
13.386205
 30
0.0
 11
24.8
 21
13.386205
 31
0.0
  0
LINE
  5
1FC
330
70
100
AcDbEntity
  8
box (1) v3 v1_box (1) v4_bottom_outsideCutPath
100
AcDbLine
 10
34.486205
 20
15.8
 30
0.0
 11
34.486205
 21
15.5
 31
0.0
  0
LINE
  5
1FD
330
70
100
AcDbEntity
  8
box (1) v3 v1_box (1) v4_bottom_outsideCutPath
100
AcDbLine
 10
41.1
 20
8.5
 30
0.0
 11
41.1
 21
10.613795
 31
0.0
  0
CIRCLE
  5
1FE
330
70
100
AcDbEntity
  8
box (1) v3 v1_box (1) v4_bottom_outsideCutPath
100
AcDbCircle
 10
33.40812703147387
 20
14.95453831642868
 30
0.0
 40
0.1999999999999982
  0
LINE
  5
1FF
330
70
100
AcDbEntity
  8
box (1) v3 v1_box (1) v4_bottom_outsideCutPath
100
AcDbLine
 10
24.8
 20
10.613795
 30
0.0
 11
25.1
 21
10.613795
 31
0.0
  0
LINE
  5
200
330
70
100
AcDbEntity
  8
box (1) v3 v1_box (1) v4_bottom_outsideCutPath
100
AcDbLine
 10
25.1
 20
8.5
 30
0.0
 11
28.941385
 21
8.5
 31
0.0
  0
CIRCLE
  5
201
330
70
100
AcDbEntity
  8
box (1) v3 v1_box (1) v4_bottom_outsideCutPath
100
AcDbCircle
 10
8.308145998474966
 20
30.2090254476252
 30
0.0
 40
0.2000000000000019
  0
LINE
  5
202
330
70
100
AcDbEntity
  8
box (1) v3 v1_box (1) v4_bottom_outsideCutPath
100
AcDbLine
 10
37.258615
 20
15.8
 30
0.0
 11
34.486205
 21
15.8
 31
0.0
  0
LINE
  5
203
330
70
100
AcDbEntity
  8
box (1) v3 v1_box (1) v4_bottom_outsideCutPath
100
AcDbLine
 10
28.941385
 20
8.5
 30
0.0
 11
28.941385
 21
8.200000000000001
 31
0.0
  0
LINE
  5
204
330
70
100
AcDbEntity
  8
box (1) v3 v1_box (1) v4_bottom_outsideCutPath
100
AcDbLine
 10
41.1
 20
13.386205
 30
0.0
 11
41.1
 21
15.5
 31
0.0
  0
LINE
  5
205
330
70
100
AcDbEntity
  8
box (1) v3 v1_box (1) v4_bottom_outsideCutPath
100
AcDbLine
 10
31.713795
 20
8.200000000000001
 30
0.0
 11
31.713795
 21
8.5
 31
0.0
  0
LINE
  5
206
330
70
100
AcDbEntity
  8
box (1) v3 v1_box (1) v4_bottom_outsideCutPath
100
AcDbLine
 10
41.1
 20
10.613795
 30
0.0
 11
41.39999999999999
 21
10.613795
 31
0.0
  0
CIRCLE
  5
207
330
70
100
AcDbEntity
  8
box (1) v3 v1_box (1) v4_bottom_outsideCutPath
100
AcDbCircle
 10
8.308145998474966
 20
30.2090254476252
 30
0.0
 40
0.2000000000000019
  0
LINE
  5
208
330
70
100
AcDbEntity
  8
box (1) v3 v1_box (1) v4_bottom_outsideCutPath
100
AcDbLine
 10
41.39999999999999
 20
13.386205
 30
0.0
 11
41.1
 21
13.386205
 31
0.0
  0
LINE
  5
209
330
70
100
AcDbEntity
  8
box (1) v3 v1_box (1) v4_bottom_outsideCutPath
100
AcDbLine
 10
28.941385
 20
8.200000000000001
 30
0.0
 11
31.713795
 21
8.200000000000001
 31
0.0
  0
LINE
  5
20A
330
70
100
AcDbEntity
  8
box (1) v3 v1_box (1) v4_bottom_outsideCutPath
100
AcDbLine
 10
41.39999999999999
 20
10.613795
 30
0.0
 11
41.39999999999999
 21
13.386205
 31
0.0
  0
LINE
  5
20B
330
70
100
AcDbEntity
  8
box (1) v3 v1_box (1) v4_bottom_outsideCutPath
100
AcDbLine
 10
28.941385
 20
15.8
 30
0.0
 11
28.941385
 21
15.5
 31
0.0
  0
LINE
  5
20C
330
70
100
AcDbEntity
  8
box (1) v3 v1_box (1) v4_bottom_outsideCutPath
100
AcDbLine
 10
34.486205
 20
8.5
 30
0.0
 11
34.486205
 21
8.200000000000001
 31
0.0
  0
LINE
  5
20D
330
70
100
AcDbEntity
  8
box (1) v3 v1_box (1) v4_bottom_outsideCutPath
100
AcDbLine
 10
26.168975
 20
15.5
 30
0.0
 11
25.1
 21
15.5
 31
0.0
  0
LINE
  5
20E
330
70
100
AcDbEntity
  8
box (1) v3 v1_box (1) v4_bottom_outsideCutPath
100
AcDbLine
 10
25.1
 20
15.5
 30
0.0
 11
25.1
 21
13.386205
 31
0.0
  0
LINE
  5
20F
330
70
100
AcDbEntity
  8
box (1) v3 v1_box (1) v4_bottom_outsideCutPath
100
AcDbLine
 10
31.713795
 20
8.5
 30
0.0
 11
34.486205
 21
8.5
 31
0.0
  0
LINE
  5
210
330
70
100
AcDbEntity
  8
box (1) v3 v1_box (1) v4_bottom_outsideCutPath
100
AcDbLine
 10
31.713795
 20
15.8
 30
0.0
 11
28.941385
 21
15.8
 31
0.0
  0
LINE
  5
211
330
70
100
AcDbEntity
  8
box (1) v3 v1_box (1) v4_bottom_outsideCutPath
100
AcDbLine
 10
37.258615
 20
8.200000000000001
 30
0.0
 11
37.258615
 21
8.5
 31
0.0
  0
LINE
  5
212
330
70
100
AcDbEntity
  8
box (1) v3 v1_box (1) v4_bottom_outsideCutPath
100
AcDbLine
 10
37.258615
 20
15.5
 30
0.0
 11
37.258615
 21
15.8
 31
0.0
  0
LINE
  5
213
330
70
100
AcDbEntity
  8
box (1) v3 v1_box (1) v4_bottom_outsideCutPath
100
AcDbLine
 10
34.486205
 20
8.200000000000001
 30
0.0
 11
37.258615
 21
8.200000000000001
 31
0.0
  0
LINE
  5
214
330
70
100
AcDbEntity
  8
box (1) v3 v1_box (1) v4_bottom_outsideCutPath
100
AcDbLine
 10
28.941385
 20
15.5
 30
0.0
 11
26.168975
 21
15.5
 31
0.0
  0
LINE
  5
215
330
70
100
AcDbEntity
  8
box (1) v3 v1_box (1) v4_bottom_outsideCutPath
100
AcDbLine
 10
37.258615
 20
8.5
 30
0.0
 11
40.03102499999999
 21
8.5
 31
0.0
  0
LINE
  5
216
330
70
100
AcDbEntity
  8
box (1) v3 v1_box (1) v4_bottom_outsideCutPath
100
AcDbLine
 10
41.1
 20
15.5
 30
0.0
 11
37.258615
 21
15.5
 31
0.0
  0
LINE
  5
217
330
70
100
AcDbEntity
  8
box (1) v3 v1_box (1) v4_bottom_outsideCutPath
100
AcDbLine
 10
34.486205
 20
15.5
 30
0.0
 11
31.713795
 21
15.5
 31
0.0
  0
LINE
  5
218
330
70
100
AcDbEntity
  8
box (1) v3 v1_box (1) v4_bottom_outsideCutPath
100
AcDbLine
 10
24.8
 20
13.386205
 30
0.0
 11
24.8
 21
10.613795
 31
0.0
  0
CIRCLE
  5
219
330
70
100
AcDbEntity
  8
box (1) v3 v1_box (1) v4_bottom_outsideCutPath
100
AcDbCircle
 10
33.40812703147387
 20
13.80453831642869
 30
0.0
 40
0.2000000000000019
  0
LINE
  5
21A
330
70
100
AcDbEntity
  8
box (1) v3 v1_box (1) v4_bottom_outsideCutPath
100
AcDbLine
 10
31.713795
 20
15.5
 30
0.0
 11
31.713795
 21
15.8
 31
0.0
  0
LINE
  5
21B
330
70
100
AcDbEntity
  8
box (1) v3 v1_box (1) v4_bottom_outsideCutPath
100
AcDbLine
 10
0.0
 20
32.296565
 30
0.0
 11
0.0
 21
29.52415500000001
 31
0.0
  0
ENDSEC
  0
SECTION
  2
OBJECTS
  0
DICTIONARY
  5
C
330
0
100
AcDbDictionary
281
     1
  3
ACAD_COLOR
350
63
  3
ACAD_DETAILVIEWSTYLE
350
6A
  3
ACAD_GROUP
350
D
  3
ACAD_LAYOUT
350
62
  3
ACAD_MATERIAL
350
10
  3
ACAD_MLEADERSTYLE
350
66
  3
ACAD_MLINESTYLE
350
5F
  3
ACAD_PLOTSETTINGS
350
61
  3
ACAD_PLOTSTYLENAME
350
E
  3
ACAD_SCALELIST
350
42
  3
ACAD_SECTIONVIEWSTYLE
350
68
  3
ACAD_TABLESTYLE
350
64
  3
ACAD_VISUALSTYLE
350
29
  3
ACDB_RECOMPOSE_DATA
350
224
  3
AcDbVariableDictionary
350
21C
  0
DICTIONARY
  5
63
102
{ACAD_REACTORS
330
C
102
}
330
C
100
AcDbDictionary
281
     1
  0
DICTIONARY
  5
6A
102
{ACAD_REACTORS
330
C
102
}
330
C
100
AcDbDictionary
281
     1
  3
Imperial24
350
6B
  0
DICTIONARY
  5
D
102
{ACAD_REACTORS
330
C
102
}
330
C
100
AcDbDictionary
281
     1
  0
DICTIONARY
  5
62
102
{ACAD_REACTORS
330
C
102
}
330
C
100
AcDbDictionary
281
     1
  3
Layout1
350
6F
  3
Layout2
350
77
  3
Model
350
73
  0
DICTIONARY
  5
10
102
{ACAD_REACTORS
330
C
102
}
330
C
100
AcDbDictionary
281
     1
  3
ByBlock
350
19
  3
ByLayer
350
11
  3
Global
350
21
  0
DICTIONARY
  5
66
102
{ACAD_REACTORS
330
C
102
}
330
C
100
AcDbDictionary
281
     1
  3
Standard
350
67
  0
DICTIONARY
  5
5F
102
{ACAD_REACTORS
330
C
102
}
330
C
100
AcDbDictionary
281
     1
  3
Standard
350
60
  0
DICTIONARY
  5
61
102
{ACAD_REACTORS
330
C
102
}
330
C
100
AcDbDictionary
281
     1
  0
ACDBDICTIONARYWDFLT
  5
E
102
{ACAD_REACTORS
330
C
102
}
330
C
100
AcDbDictionary
281
     1
  3
Normal
350
F
100
AcDbDictionaryWithDefault
340
F
  0
DICTIONARY
  5
42
102
{ACAD_REACTORS
330
C
102
}
330
C
100
AcDbDictionary
281
     1
  3
A0
350
43
  3
A1
350
44
  3
A2
350
45
  3
A3
350
46
  3
A4
350
47
  3
A5
350
48
  3
A6
350
49
  3
A7
350
4A
  3
A8
350
4B
  3
A9
350
4C
  3
B0
350
4D
  3
B1
350
4E
  3
B2
350
4F
  3
B3
350
50
  3
B4
350
51
  3
B5
350
52
  3
B6
350
53
  0
DICTIONARY
  5
68
102
{ACAD_REACTORS
330
C
102
}
330
C
100
AcDbDictionary
281
     1
  3
Imperial24
350
69
  0
DICTIONARY
  5
64
102
{ACAD_REACTORS
330
C
102
}
330
C
100
AcDbDictionary
281
     1
  3
Standard
350
65
  0
DICTIONARY
  5
29
102
{ACAD_REACTORS
330
C
102
}
330
C
100
AcDbDictionary
281
     1
  3
2dWireframe
350
2F
  3
Basic
350
2E
  3
Brighten
350
35
  3
ColorChange
350
39
  3
Conceptual
350
32
  3
Dim
350
34
  3
EdgeColorOff
350
41
  3
Facepattern
350
38
  3
Flat
350
2A
  3
FlatWithEdges
350
2B
  3
Gouraud
350
2C
  3
GouraudWithEdges
350
2D
  3
Hidden
350
31
  3
JitterOff
350
3F
  3
Linepattern
350
37
  3
OverhangOff
350
40
  3
Realistic
350
33
  3
Shaded
350
3E
  3
Shaded with edges
350
3D
  3
Shades of Gray
350
3A
  3
Sketchy
350
3B
  3
Thicken
350
36
  3
Wireframe
350
30
  3
X-Ray
350
3C
  0
XRECORD
  5
224
102
{ACAD_REACTORS
330
C
102
}
330
C
100
AcDbXrecord
280
     1
 90
        1
330
65
  0
DICTIONARY
  5
21C
102
{ACAD_REACTORS
330
C
102
}
330
C
100
AcDbDictionary
281
     1
  3
CANNOSCALE
350
221
  3
CMLEADERSTYLE
350
21E
  3
CTABLESTYLE
350
21D
  3
CVIEWDETAILSTYLE
350
21F
  3
CVIEWSECTIONSTYLE
350
220
  0
ACDBDETAILVIEWSTYLE
  5
6B
102
{ACAD_XDICTIONARY
360
227
102
}
102
{ACAD_REACTORS
330
6A
102
}
330
6A
100
AcDbModelDocViewStyle
 70
     0
  3
Imperial24
290
     0
100
AcDbDetailViewStyle
 70
     0
 71
     0
 90
        3
 71
     1
340
55
 62
   256
 40
0.24
340
0
 62
   256
 40
0.24
300

 40
0.36
280
     3
 71
     2
340
5D
 90
       25
 62
   256
 71
     3
340
55
 62
   256
 40
0.24
 90
        1
 40
0.75
 90
        1
300
%<\AcVar ViewType \f "%tc1">% %<\AcVar ViewDetailId>%\PSCALE %<\AcVar ViewScale \f "%sn">%
 71
     4
340
5D
 90
       25
 62
   256
340
5D
 90
       25
 62
   256
280
     0
  0
LAYOUT
  5
6F
102
{ACAD_REACTORS
330
62
102
}
330
62
100
AcDbPlotSettings
  1

  2

  4

  6

 40
0.0
 41
0.0
 42
0.0
 43
0.0
 44
0.0
 45
0.0
 46
0.0
 47
0.0
 48
0.0
 49
0.0
140
0.0
141
0.0
142
1.0
143
1.0
 70
   688
 72
     0
 73
     0
 74
     5
  7

 75
    16
147
1.0
 76
     0
 77
     2
 78
   300
148
0.0
149
0.0
100
AcDbLayout
  1
Layout1
 70
     1
 71
     1
 10
0.0
 20
0.0
 11
12.0
 21
9.0
 12
0.0
 22
0.0
 32
0.0
 14
0.0
 24
0.0
 34
0.0
 15
0.0
 25
0.0
 35
0.0
146
0.0
 13
0.0
 23
0.0
 33
0.0
 16
1.0
 26
0.0
 36
0.0
 17
0.0
 27
1.0
 37
0.0
 76
     0
330
6C
  0
LAYOUT
  5
77
102
{ACAD_REACTORS
330
62
102
}
330
62
100
AcDbPlotSettings
  1

  2

  4

  6

 40
0.0
 41
0.0
 42
0.0
 43
0.0
 44
0.0
 45
0.0
 46
0.0
 47
0.0
 48
0.0
 49
0.0
140
0.0
141
0.0
142
1.0
143
1.0
 70
   688
 72
     0
 73
     0
 74
     5
  7

 75
    16
147
1.0
 76
     0
 77
     2
 78
   300
148
0.0
149
0.0
100
AcDbLayout
  1
Layout2
 70
     1
 71
     2
 10
0.0
 20
0.0
 11
12.0
 21
9.0
 12
0.0
 22
0.0
 32
0.0
 14
0.0
 24
0.0
 34
0.0
 15
0.0
 25
0.0
 35
0.0
146
0.0
 13
0.0
 23
0.0
 33
0.0
 16
1.0
 26
0.0
 36
0.0
 17
0.0
 27
1.0
 37
0.0
 76
     0
330
74
  0
LAYOUT
  5
73
102
{ACAD_REACTORS
330
62
102
}
330
62
100
AcDbPlotSettings
  1

  2

  4

  6

 40
0.0
 41
0.0
 42
0.0
 43
0.0
 44
0.0
 45
0.0
 46
0.0
 47
0.0
 48
0.0
 49
0.0
140
0.0
141
0.0
142
1.0
143
1.0
 70
  1712
 72
     0
 73
     0
 74
     0
  7

 75
     0
147
1.0
 76
     0
 77
     2
 78
   300
148
0.0
149
0.0
100
AcDbLayout
  1
Model
 70
     1
 71
     0
 10
0.0
 20
0.0
 11
12.0
 21
9.0
 12
0.0
 22
0.0
 32
0.0
 14
0.0
 24
0.0
 34
0.0
 15
0.0
 25
0.0
 35
0.0
146
0.0
 13
0.0
 23
0.0
 33
0.0
 16
1.0
 26
0.0
 36
0.0
 17
0.0
 27
1.0
 37
0.0
 76
     0
330
70
  0
MATERIAL
  5
19
102
{ACAD_XDICTIONARY
360
1A
102
}
102
{ACAD_REACTORS
330
10
102
}
330
10
100
AcDbMaterial
  1
ByBlock
 72
     0
 43
0.0208333333333333
 43
0.0
 43
0.0
 43
0.0
 43
0.0
 43
0.0208333333333333
 43
0.0
 43
0.0
 43
0.0
 43
0.0
 43
1.0
 43
0.0
 43
0.0
 43
0.0
 43
0.0
 43
1.0
 77
     0
 47
0.0208333333333333
 47
0.0
 47
0.0
 47
0.0
 47
0.0
 47
0.0208333333333333
 47
0.0
 47
0.0
 47
0.0
 47
0.0
 47
1.0
 47
0.0
 47
0.0
 47
0.0
 47
0.0
 47
1.0
171
     0
 49
0.0208333333333333
 49
0.0
 49
0.0
 49
0.0
 49
0.0
 49
0.0208333333333333
 49
0.0
 49
0.0
 49
0.0
 49
0.0
 49
1.0
 49
0.0
 49
0.0
 49
0.0
 49
0.0
 49
1.0
175
     0
142
0.0208333333333333
142
0.0
142
0.0
142
0.0
142
0.0
142
0.0208333333333333
142
0.0
142
0.0
142
0.0
142
0.0
142
1.0
142
0.0
142
0.0
142
0.0
142
0.0
142
1.0
179
     0
144
0.0208333333333333
144
0.0
144
0.0
144
0.0
144
0.0
144
0.0208333333333333
144
0.0
144
0.0
144
0.0
144
0.0
144
1.0
144
0.0
144
0.0
144
0.0
144
0.0
144
1.0
147
0.0208333333333333
147
0.0
147
0.0
147
0.0
147
0.0
147
0.0208333333333333
147
0.0
147
0.0
147
0.0
147
0.0
147
1.0
147
0.0
147
0.0
147
0.0
147
0.0
147
1.0
  0
MATERIAL
  5
11
102
{ACAD_XDICTIONARY
360
12
102
}
102
{ACAD_REACTORS
330
10
102
}
330
10
100
AcDbMaterial
  1
ByLayer
 72
     0
 43
0.0208333333333333
 43
0.0
 43
0.0
 43
0.0
 43
0.0
 43
0.0208333333333333
 43
0.0
 43
0.0
 43
0.0
 43
0.0
 43
1.0
 43
0.0
 43
0.0
 43
0.0
 43
0.0
 43
1.0
 77
     0
 47
0.0208333333333333
 47
0.0
 47
0.0
 47
0.0
 47
0.0
 47
0.0208333333333333
 47
0.0
 47
0.0
 47
0.0
 47
0.0
 47
1.0
 47
0.0
 47
0.0
 47
0.0
 47
0.0
 47
1.0
171
     0
 49
0.0208333333333333
 49
0.0
 49
0.0
 49
0.0
 49
0.0
 49
0.0208333333333333
 49
0.0
 49
0.0
 49
0.0
 49
0.0
 49
1.0
 49
0.0
 49
0.0
 49
0.0
 49
0.0
 49
1.0
175
     0
142
0.0208333333333333
142
0.0
142
0.0
142
0.0
142
0.0
142
0.0208333333333333
142
0.0
142
0.0
142
0.0
142
0.0
142
1.0
142
0.0
142
0.0
142
0.0
142
0.0
142
1.0
179
     0
144
0.0208333333333333
144
0.0
144
0.0
144
0.0
144
0.0
144
0.0208333333333333
144
0.0
144
0.0
144
0.0
144
0.0
144
1.0
144
0.0
144
0.0
144
0.0
144
0.0
144
1.0
147
0.0208333333333333
147
0.0
147
0.0
147
0.0
147
0.0
147
0.0208333333333333
147
0.0
147
0.0
147
0.0
147
0.0
147
1.0
147
0.0
147
0.0
147
0.0
147
0.0
147
1.0
  0
MATERIAL
  5
21
102
{ACAD_XDICTIONARY
360
22
102
}
102
{ACAD_REACTORS
330
10
102
}
330
10
100
AcDbMaterial
  1
Global
 72
     0
 43
0.0208333333333333
 43
0.0
 43
0.0
 43
0.0
 43
0.0
 43
0.0208333333333333
 43
0.0
 43
0.0
 43
0.0
 43
0.0
 43
1.0
 43
0.0
 43
0.0
 43
0.0
 43
0.0
 43
1.0
 77
     0
 47
0.0208333333333333
 47
0.0
 47
0.0
 47
0.0
 47
0.0
 47
0.0208333333333333
 47
0.0
 47
0.0
 47
0.0
 47
0.0
 47
1.0
 47
0.0
 47
0.0
 47
0.0
 47
0.0
 47
1.0
171
     0
 49
0.0208333333333333
 49
0.0
 49
0.0
 49
0.0
 49
0.0
 49
0.0208333333333333
 49
0.0
 49
0.0
 49
0.0
 49
0.0
 49
1.0
 49
0.0
 49
0.0
 49
0.0
 49
0.0
 49
1.0
175
     0
142
0.0208333333333333
142
0.0
142
0.0
142
0.0
142
0.0
142
0.0208333333333333
142
0.0
142
0.0
142
0.0
142
0.0
142
1.0
142
0.0
142
0.0
142
0.0
142
0.0
142
1.0
179
     0
144
0.0208333333333333
144
0.0
144
0.0
144
0.0
144
0.0
144
0.0208333333333333
144
0.0
144
0.0
144
0.0
144
0.0
144
1.0
144
0.0
144
0.0
144
0.0
144
0.0
144
1.0
147
0.0208333333333333
147
0.0
147
0.0
147
0.0
147
0.0
147
0.0208333333333333
147
0.0
147
0.0
147
0.0
147
0.0
147
1.0
147
0.0
147
0.0
147
0.0
147
0.0
147
1.0
  0
MLEADERSTYLE
  5
67
102
{ACAD_REACTORS
330
66
102
}
330
66
100
AcDbMLeaderStyle
179
     2
170
     2
171
     1
172
     0
 90
        2
 40
0.0
 41
0.0
173
     1
 91
-1056964608
340
5B
 92
       -2
290
     1
 42
0.09
291
     1
 43
0.36
  3
Standard
 44
0.18
300

342
55
174
     1
178
     6
175
     1
176
     0
 93
-1056964608
 45
0.18
292
     0
297
     0
 46
0.18
 94
-1056964608
 47
1.0
 49
1.0
140
1.0
293
     1
141
0.0
294
     1
177
     0
142
1.0
295
     0
296
     0
143
0.125
271
     0
272
     9
273
     9
298
     1
  0
MLINESTYLE
  5
60
102
{ACAD_REACTORS
330
5F
102
}
330
5F
100
AcDbMlineStyle
  2
STANDARD
 70
     0
  3

 62
   256
 51
90.0
 52
90.0
 71
     2
 49
0.5
 62
   256
  6
BYLAYER
 49
-0.5
 62
   256
  6
BYLAYER
  0
ACDBPLACEHOLDER
  5
F
102
{ACAD_REACTORS
330
E
102
}
330
E
  0
SCALE
  5
43
102
{ACAD_REACTORS
330
42
102
}
330
42
100
AcDbScale
 70
     0
300
1:1
140
1.0
141
1.0
290
     1
  0
SCALE
  5
44
102
{ACAD_REACTORS
330
42
102
}
330
42
100
AcDbScale
 70
     0
300
1/128" = 1'-0"
140
0.0078125
141
12.0
290
     0
  0
SCALE
  5
45
102
{ACAD_REACTORS
330
42
102
}
330
42
100
AcDbScale
 70
     0
300
1/64" = 1'-0"
140
0.015625
141
12.0
290
     0
  0
SCALE
  5
46
102
{ACAD_REACTORS
330
42
102
}
330
42
100
AcDbScale
 70
     0
300
1/32" = 1'-0"
140
0.03125
141
12.0
290
     0
  0
SCALE
  5
47
102
{ACAD_REACTORS
330
42
102
}
330
42
100
AcDbScale
 70
     0
300
1/16" = 1'-0"
140
0.0625
141
12.0
290
     0
  0
SCALE
  5
48
102
{ACAD_REACTORS
330
42
102
}
330
42
100
AcDbScale
 70
     0
300
3/32" = 1'-0"
140
0.09375
141
12.0
290
     0
  0
SCALE
  5
49
102
{ACAD_REACTORS
330
42
102
}
330
42
100
AcDbScale
 70
     0
300
1/8" = 1'-0"
140
0.125
141
12.0
290
     0
  0
SCALE
  5
4A
102
{ACAD_REACTORS
330
42
102
}
330
42
100
AcDbScale
 70
     0
300
3/16" = 1'-0"
140
0.1875
141
12.0
290
     0
  0
SCALE
  5
4B
102
{ACAD_REACTORS
330
42
102
}
330
42
100
AcDbScale
 70
     0
300
1/4" = 1'-0"
140
0.25
141
12.0
290
     0
  0
SCALE
  5
4C
102
{ACAD_REACTORS
330
42
102
}
330
42
100
AcDbScale
 70
     0
300
3/8" = 1'-0"
140
0.375
141
12.0
290
     0
  0
SCALE
  5
4D
102
{ACAD_REACTORS
330
42
102
}
330
42
100
AcDbScale
 70
     0
300
1/2" = 1'-0"
140
0.5
141
12.0
290
     0
  0
SCALE
  5
4E
102
{ACAD_REACTORS
330
42
102
}
330
42
100
AcDbScale
 70
     0
300
3/4" = 1'-0"
140
0.75
141
12.0
290
     0
  0
SCALE
  5
4F
102
{ACAD_REACTORS
330
42
102
}
330
42
100
AcDbScale
 70
     0
300
1" = 1'-0"
140
1.0
141
12.0
290
     0
  0
SCALE
  5
50
102
{ACAD_REACTORS
330
42
102
}
330
42
100
AcDbScale
 70
     0
300
1-1/2" = 1'-0"
140
1.5
141
12.0
290
     0
  0
SCALE
  5
51
102
{ACAD_REACTORS
330
42
102
}
330
42
100
AcDbScale
 70
     0
300
3" = 1'-0"
140
3.0
141
12.0
290
     0
  0
SCALE
  5
52
102
{ACAD_REACTORS
330
42
102
}
330
42
100
AcDbScale
 70
     0
300
6" = 1'-0"
140
6.0
141
12.0
290
     0
  0
SCALE
  5
53
102
{ACAD_REACTORS
330
42
102
}
330
42
100
AcDbScale
 70
     0
300
1'-0" = 1'-0"
140
12.0
141
12.0
290
     0
  0
ACDBSECTIONVIEWSTYLE
  5
69
102
{ACAD_XDICTIONARY
360
225
102
}
102
{ACAD_REACTORS
330
68
102
}
330
68
100
AcDbModelDocViewStyle
 70
     0
  3
Imperial24
290
     0
100
AcDbSectionViewStyle
 70
     0
 71
     0
 90
       78
 71
     1
340
55
 62
   256
 40
0.24
340
0
340
0
 62
   256
 40
0.24
300
I, O, Q, S, X, Z
 40
0.48
 90
        3
 40
0.18
 90
        1
 71
     2
340
5D
 90
       25
 62
   256
340
5D
 90
       50
 62
   256
 40
0.24
 40
0.0
 40
0.24
 71
     3
340
55
 62
   256
 40
0.24
 90
        1
 40
0.75
 90
        1
300
%<\AcVar ViewType \f "%tc1">% %<\AcVar ViewSectionStartId>%-%<\AcVar ViewSectionEndId>%\PSCALE %<\AcVar ViewScale \f "%sn">%
 71
     4
 62
   256
 62
   257
300
ANSI31
 40
1.0
 90
        0
290
     0
290
     0
 90
        6
 40
0.0
 40
1.570796326794896
 40
0.2617993877991494
 40
1.308996938995747
 40
-0.2617993877991494
 40
1.832595714594046
  0
TABLESTYLE
  5
65
102
{ACAD_XDICTIONARY
360
222
102
}
102
{ACAD_REACTORS
330
64
102
}
330
64
100
AcDbTableStyle
280
     0
  3
Standard
 70
     0
 71
     0
 40
0.06
 41
0.06
280
     0
281
     0
  7
Standard
140
0.18
170
     2
 62
     0
 63
     7
283
     0
 90
      512
 91
        0
  1

274
    -2
284
     1
 64
     0
275
    -2
285
     1
 65
     0
276
    -2
286
     1
 66
     0
277
    -2
287
     1
 67
     0
278
    -2
288
     1
 68
     0
279
    -2
289
     1
 69
     0
  7
Standard
140
0.25
170
     5
 62
     0
 63
     7
283
     0
 90
      512
 91
        0
  1

274
    -2
284
     1
 64
     0
275
    -2
285
     1
 65
     0
276
    -2
286
     1
 66
     0
277
    -2
287
     1
 67
     0
278
    -2
288
     1
 68
     0
279
    -2
289
     1
 69
     0
  7
Standard
140
0.18
170
     5
 62
     0
 63
     7
283
     0
 90
      512
 91
        0
  1

274
    -2
284
     1
 64
     0
275
    -2
285
     1
 65
     0
276
    -2
286
     1
 66
     0
277
    -2
287
     1
 67
     0
278
    -2
288
     1
 68
     0
279
    -2
289
     1
 69
     0
  0
VISUALSTYLE
  5
2F
102
{ACAD_REACTORS
330
29
102
}
330
29
100
AcDbVisualStyle
  2
2dWireframe
 70
     4
177
     3
291
     0
 70
    58
 90
        0
176
     1
 90
        2
176
     1
 90
        0
176
     1
 90
        0
176
     1
 40
0.6
176
     1
 40
30.0
176
     1
 62
     7
420
 16777215
176
     1
 90
        1
176
     1
 90
        4
176
     1
 62
     7
176
     1
 62
   257
176
     1
 90
        1
176
     1
 90
        1
176
     1
 40
1.0
176
     1
 90
        0
176
     1
 62
   257
176
     1
 40
1.0
176
     1
 90
        1
176
     1
 90
        6
176
     1
 90
        2
176
     1
 62
     7
176
     1
 90
        5
176
     1
 90
        0
176
     1
 90
        0
176
     1
290
     0
176
     1
 90
        1
176
     1
 40
0.0
176
     1
 90
        0
176
     1
290
     1
176
     1
290
     1
176
     1
290
     0
176
     1
290
     0
176
     1
290
     0
176
     1
290
     0
176
     1
290
     0
176
     1
290
     0
176
     1
290
     0
176
     1
 90
       50
176
     1
 40
0.0
176
     1
 40
1.0
176
     1
 90
        0
176
     1
 62
    18
420
        0
176
     1
 90
       50
176
     1
 90
        3
176
     1
 62
     5
420
      255
176
     1
290
     0
176
     1
 90
       50
176
     1
 90
       50
176
     1
 90
       50
176
     1
290
     0
176
     1
 90
       50
176
     1
 62
   256
176
     0
 40
1.0
176
     0
 90
        2
176
     1
  1
strokes_ogs.tif
176
     1
290
     0
176
     1
 40
1.0
176
     1
 40
1.0
176
     1
1001
ACAD
1000
AcDbSavedByObjectVersion
1070
     0
  0
VISUALSTYLE
  5
2E
102
{ACAD_REACTORS
330
29
102
}
330
29
100
AcDbVisualStyle
  2
Basic
 70
     7
177
     3
291
     1
 70
    58
 90
        1
176
     1
 90
        0
176
     1
 90
        1
176
     1
 90
        0
176
     1
 40
0.6
176
     1
 40
30.0
176
     1
 62
     7
420
 16777215
176
     1
 90
        0
176
     1
 90
        4
176
     1
 62
     7
176
     1
 62
   257
176
     1
 90
        1
176
     1
 90
        1
176
     1
 40
1.0
176
     1
 90
        8
176
     1
 62
     7
176
     1
 40
1.0
176
     1
 90
        1
176
     1
 90
        6
176
     1
 90
        2
176
     1
 62
     7
176
     1
 90
        5
176
     1
 90
        0
176
     1
 90
        0
176
     1
290
     0
176
     1
 90
        1
176
     1
 40
0.0
176
     1
 90
        0
176
     1
290
     0
176
     1
290
     1
176
     1
290
     1
176
     1
290
     0
176
     1
290
     0
176
     1
290
     0
176
     1
290
     0
176
     1
290
     0
176
     1
290
     0
176
     1
 90
       50
176
     1
 40
0.0
176
     1
 40
1.0
176
     1
 90
        0
176
     1
 62
    18
420
        0
176
     1
 90
       50
176
     1
 90
        3
176
     1
 62
     5
420
      255
176
     1
290
     0
176
     1
 90
       50
176
     1
 90
       50
176
     1
 90
       50
176
     1
290
     0
176
     1
 90
       50
176
     1
 62
   256
176
     0
 40
1.0
176
     0
 90
        2
176
     1
  1
strokes_ogs.tif
176
     1
290
     0
176
     1
 40
1.0
176
     1
 40
1.0
176
     1
1001
ACAD
1000
AcDbSavedByObjectVersion
1070
     0
  0
VISUALSTYLE
  5
35
102
{ACAD_REACTORS
330
29
102
}
330
29
100
AcDbVisualStyle
  2
Brighten
 70
    12
177
     3
291
     1
 70
    58
 90
        2
176
     1
 90
        2
176
     1
 90
        0
176
     1
 90
        0
176
     1
 40
0.6
176
     1
 40
30.0
176
     1
 62
     7
420
 16777215
176
     1
 90
        1
176
     1
 90
        4
176
     1
 62
     7
176
     1
 62
   257
176
     1
 90
        1
176
     1
 90
        1
176
     1
 40
1.0
176
     1
 90
        8
176
     1
 62
     7
176
     1
 40
1.0
176
     1
 90
        1
176
     1
 90
        6
176
     1
 90
        2
176
     1
 62
     7
176
     1
 90
        5
176
     1
 90
        0
176
     1
 90
        0
176
     1
290
     0
176
     1
 90
        1
176
     1
 40
50.0
176
     1
 90
        0
176
     1
290
     0
176
     1
290
     1
176
     1
290
     1
176
     1
290
     0
176
     1
290
     0
176
     1
290
     0
176
     1
290
     0
176
     1
290
     0
176
     1
290
     0
176
     1
 90
       50
176
     1
 40
0.0
176
     1
 40
1.0
176
     1
 90
        0
176
     1
 62
    18
420
        0
176
     1
 90
       50
176
     1
 90
        3
176
     1
 62
     5
420
      255
176
     1
290
     0
176
     1
 90
       50
176
     1
 90
       50
176
     1
 90
       50
176
     1
290
     0
176
     1
 90
       50
176
     1
 62
   256
176
     0
 40
1.0
176
     0
 90
        2
176
     1
  1
strokes_ogs.tif
176
     1
290
     0
176
     1
 40
1.0
176
     1
 40
1.0
176
     1
1001
ACAD
1000
AcDbSavedByObjectVersion
1070
     0
  0
VISUALSTYLE
  5
39
102
{ACAD_REACTORS
330
29
102
}
330
29
100
AcDbVisualStyle
  2
ColorChange
 70
    16
177
     3
291
     1
 70
    58
 90
        2
176
     1
 90
        2
176
     1
 90
        3
176
     1
 90
        0
176
     1
 40
0.6
176
     1
 40
30.0
176
     1
 62
     8
420
  8421504
176
     1
 90
        1
176
     1
 90
        4
176
     1
 62
     7
176
     1
 62
   257
176
     1
 90
        1
176
     1
 90
        1
176
     1
 40
1.0
176
     1
 90
        8
176
     1
 62
     8
420
  8421504
176
     1
 40
1.0
176
     1
 90
        1
176
     1
 90
        6
176
     1
 90
        2
176
     1
 62
     7
176
     1
 90
        5
176
     1
 90
        0
176
     1
 90
        0
176
     1
290
     0
176
     1
 90
        1
176
     1
 40
0.0
176
     1
 90
        0
176
     1
290
     0
176
     1
290
     1
176
     1
290
     1
176
     1
290
     0
176
     1
290
     0
176
     1
290
     0
176
     1
290
     0
176
     1
290
     0
176
     1
290
     0
176
     1
 90
       50
176
     1
 40
0.0
176
     1
 40
1.0
176
     1
 90
        0
176
     1
 62
    18
420
        0
176
     1
 90
       50
176
     1
 90
        3
176
     1
 62
     5
420
      255
176
     1
290
     0
176
     1
 90
       50
176
     1
 90
       50
176
     1
 90
       50
176
     1
290
     0
176
     1
 90
       50
176
     1
 62
   256
176
     0
 40
1.0
176
     0
 90
        2
176
     1
  1
strokes_ogs.tif
176
     1
290
     0
176
     1
 40
1.0
176
     1
 40
1.0
176
     1
1001
ACAD
1000
AcDbSavedByObjectVersion
1070
     0
  0
VISUALSTYLE
  5
32
102
{ACAD_REACTORS
330
29
102
}
330
29
100
AcDbVisualStyle
  2
Conceptual
 70
     9
177
     3
291
     0
 70
    58
 90
        3
176
     1
 90
        2
176
     1
 90
        0
176
     1
 90
        0
176
     1
 40
0.6
176
     1
 40
30.0
176
     1
 62
     7
420
 16777215
176
     1
 90
        2
176
     1
 90
        2
176
     1
 62
     7
176
     1
 62
   257
176
     1
 90
        1
176
     1
 90
        1
176
     1
 40
179.0
176
     1
 90
        8
176
     1
 62
     7
176
     1
 40
1.0
176
     1
 90
        1
176
     1
 90
        6
176
     1
 90
        2
176
     1
 62
     7
176
     1
 90
        3
176
     1
 90
        0
176
     1
 90
        0
176
     1
290
     0
176
     1
 90
        1
176
     1
 40
0.0
176
     1
 90
        0
176
     1
290
     0
176
     1
290
     1
176
     1
290
     1
176
     1
290
     0
176
     1
290
     0
176
     1
290
     0
176
     1
290
     0
176
     1
290
     0
176
     1
290
     0
176
     1
 90
       50
176
     1
 40
0.0
176
     1
 40
1.0
176
     1
 90
        0
176
     1
 62
    18
420
        0
176
     1
 90
       50
176
     1
 90
        3
176
     1
 62
     5
420
      255
176
     1
290
     0
176
     1
 90
       50
176
     1
 90
       50
176
     1
 90
       50
176
     1
290
     0
176
     1
 90
       50
176
     1
 62
   256
176
     0
 40
1.0
176
     0
 90
        2
176
     1
  1
strokes_ogs.tif
176
     1
290
     0
176
     1
 40
1.0
176
     1
 40
1.0
176
     1
1001
ACAD
1000
AcDbSavedByObjectVersion
1070
     0
  0
VISUALSTYLE
  5
34
102
{ACAD_REACTORS
330
29
102
}
330
29
100
AcDbVisualStyle
  2
Dim
 70
    11
177
     3
291
     1
 70
    58
 90
        2
176
     1
 90
        2
176
     1
 90
        0
176
     1
 90
        0
176
     1
 40
0.6
176
     1
 40
30.0
176
     1
 62
     7
420
 16777215
176
     1
 90
        1
176
     1
 90
        4
176
     1
 62
     7
176
     1
 62
   257
176
     1
 90
        1
176
     1
 90
        1
176
     1
 40
1.0
176
     1
 90
        8
176
     1
 62
     7
176
     1
 40
1.0
176
     1
 90
        1
176
     1
 90
        6
176
     1
 90
        2
176
     1
 62
     7
176
     1
 90
        5
176
     1
 90
        0
176
     1
 90
        0
176
     1
290
     0
176
     1
 90
        1
176
     1
 40
-50.0
176
     1
 90
        0
176
     1
290
     0
176
     1
290
     1
176
     1
290
     1
176
     1
290
     0
176
     1
290
     0
176
     1
290
     0
176
     1
290
     0
176
     1
290
     0
176
     1
290
     0
176
     1
 90
       50
176
     1
 40
0.0
176
     1
 40
1.0
176
     1
 90
        0
176
     1
 62
    18
420
        0
176
     1
 90
       50
176
     1
 90
        3
176
     1
 62
     5
420
      255
176
     1
290
     0
176
     1
 90
       50
176
     1
 90
       50
176
     1
 90
       50
176
     1
290
     0
176
     1
 90
       50
176
     1
 62
   256
176
     0
 40
1.0
176
     0
 90
        2
176
     1
  1
strokes_ogs.tif
176
     1
290
     0
176
     1
 40
1.0
176
     1
 40
1.0
176
     1
1001
ACAD
1000
AcDbSavedByObjectVersion
1070
     0
  0
VISUALSTYLE
  5
41
102
{ACAD_REACTORS
330
29
102
}
330
29
100
AcDbVisualStyle
  2
EdgeColorOff
 70
    22
177
     3
291
     1
 70
    58
 90
        2
176
     0
 90
        2
176
     0
 90
        0
176
     0
 90
        0
176
     0
 40
0.6
176
     0
 40
30.0
176
     0
 62
     7
420
 16777215
176
     0
 90
        1
176
     0
 90
        4
176
     0
 62
     7
176
     0
 62
   257
176
     0
 90
        1
176
     0
 90
        1
176
     0
 40
1.0
176
     0
 90
        8
176
     2
 62
     7
176
     0
 40
1.0
176
     0
 90
        1
176
     0
 90
        6
176
     0
 90
        2
176
     0
 62
     7
176
     0
 90
        5
176
     0
 90
        0
176
     0
 90
        0
176
     0
290
     0
176
     0
 90
        1
176
     0
 40
0.0
176
     0
 90
        0
176
     0
290
     0
176
     0
290
     1
176
     0
290
     1
176
     0
290
     0
176
     0
290
     0
176
     0
290
     0
176
     0
290
     0
176
     0
290
     0
176
     0
290
     0
176
     0
 90
       50
176
     0
 40
0.0
176
     0
 40
1.0
176
     0
 90
        0
176
     0
 62
    18
420
        0
176
     0
 90
       50
176
     0
 90
        3
176
     0
 62
     5
420
      255
176
     0
290
     0
176
     0
 90
       50
176
     0
 90
       50
176
     0
 90
       50
176
     0
290
     0
176
     0
 90
       50
176
     0
 62
   256
176
     0
 40
1.0
176
     0
 90
        2
176
     0
  1
strokes_ogs.tif
176
     0
290
     0
176
     0
 40
1.0
176
     0
 40
1.0
176
     0
1001
ACAD
1000
AcDbSavedByObjectVersion
1070
     0
  0
VISUALSTYLE
  5
38
102
{ACAD_REACTORS
330
29
102
}
330
29
100
AcDbVisualStyle
  2
Facepattern
 70
    15
177
     3
291
     1
 70
    58
 90
        2
176
     1
 90
        2
176
     1
 90
        0
176
     1
 90
        0
176
     1
 40
0.6
176
     1
 40
30.0
176
     1
 62
     7
420
 16777215
176
     1
 90
        1
176
     1
 90
        4
176
     1
 62
     7
176
     1
 62
   257
176
     1
 90
        1
176
     1
 90
        1
176
     1
 40
1.0
176
     1
 90
        8
176
     1
 62
     7
176
     1
 40
1.0
176
     1
 90
        1
176
     1
 90
        6
176
     1
 90
        2
176
     1
 62
     7
176
     1
 90
        5
176
     1
 90
        0
176
     1
 90
        0
176
     1
290
     0
176
     1
 90
        1
176
     1
 40
0.0
176
     1
 90
        0
176
     1
290
     0
176
     1
290
     1
176
     1
290
     1
176
     1
290
     0
176
     1
290
     0
176
     1
290
     0
176
     1
290
     0
176
     1
290
     0
176
     1
290
     0
176
     1
 90
       50
176
     1
 40
0.0
176
     1
 40
1.0
176
     1
 90
        0
176
     1
 62
    18
420
        0
176
     1
 90
       50
176
     1
 90
        3
176
     1
 62
     5
420
      255
176
     1
290
     0
176
     1
 90
       50
176
     1
 90
       50
176
     1
 90
       50
176
     1
290
     0
176
     1
 90
       50
176
     1
 62
   256
176
     0
 40
1.0
176
     0
 90
        2
176
     1
  1
strokes_ogs.tif
176
     1
290
     0
176
     1
 40
1.0
176
     1
 40
1.0
176
     1
1001
ACAD
1000
AcDbSavedByObjectVersion
1070
     0
  0
VISUALSTYLE
  5
2A
102
{ACAD_REACTORS
330
29
102
}
330
29
100
AcDbVisualStyle
  2
Flat
 70
     0
177
     3
291
     1
 70
    58
 90
        2
176
     1
 90
        1
176
     1
 90
        1
176
     1
 90
        2
176
     1
 40
0.6
176
     1
 40
30.0
176
     1
 62
     7
420
 16777215
176
     1
 90
        0
176
     1
 90
        0
176
     1
 62
     7
176
     1
 62
   257
176
     1
 90
        1
176
     1
 90
        1
176
     1
 40
1.0
176
     1
 90
        8
176
     1
 62
     7
176
     1
 40
1.0
176
     1
 90
        1
176
     1
 90
        6
176
     1
 90
        2
176
     1
 62
     7
176
     1
 90
        5
176
     1
 90
        0
176
     1
 90
        0
176
     1
290
     0
176
     1
 90
       13
176
     1
 40
0.0
176
     1
 90
        0
176
     1
290
     0
176
     1
290
     1
176
     1
290
     1
176
     1
290
     0
176
     1
290
     0
176
     1
290
     0
176
     1
290
     0
176
     1
290
     0
176
     1
290
     0
176
     1
 90
       50
176
     1
 40
0.0
176
     1
 40
1.0
176
     1
 90
        0
176
     1
 62
    18
420
        0
176
     1
 90
       50
176
     1
 90
        3
176
     1
 62
     5
420
      255
176
     1
290
     0
176
     1
 90
       50
176
     1
 90
       50
176
     1
 90
       50
176
     1
290
     0
176
     1
 90
       50
176
     1
 62
   256
176
     0
 40
1.0
176
     0
 90
        2
176
     1
  1
strokes_ogs.tif
176
     1
290
     0
176
     1
 40
1.0
176
     1
 40
1.0
176
     1
1001
ACAD
1000
AcDbSavedByObjectVersion
1070
     0
  0
VISUALSTYLE
  5
2B
102
{ACAD_REACTORS
330
29
102
}
330
29
100
AcDbVisualStyle
  2
FlatWithEdges
 70
     1
177
     3
291
     1
 70
    58
 90
        2
176
     1
 90
        1
176
     1
 90
        1
176
     1
 90
        2
176
     1
 40
0.6
176
     1
 40
30.0
176
     1
 62
     7
420
 16777215
176
     1
 90
        1
176
     1
 90
        0
176
     1
 62
     7
176
     1
 62
   257
176
     1
 90
        1
176
     1
 90
        1
176
     1
 40
1.0
176
     1
 90
        0
176
     1
 62
   257
176
     1
 40
1.0
176
     1
 90
        1
176
     1
 90
        6
176
     1
 90
        2
176
     1
 62
     7
176
     1
 90
        5
176
     1
 90
        0
176
     1
 90
        0
176
     1
290
     0
176
     1
 90
       13
176
     1
 40
0.0
176
     1
 90
        0
176
     1
290
     0
176
     1
290
     1
176
     1
290
     1
176
     1
290
     0
176
     1
290
     0
176
     1
290
     0
176
     1
290
     0
176
     1
290
     0
176
     1
290
     0
176
     1
 90
       50
176
     1
 40
0.0
176
     1
 40
1.0
176
     1
 90
        0
176
     1
 62
    18
420
        0
176
     1
 90
       50
176
     1
 90
        3
176
     1
 62
     5
420
      255
176
     1
290
     0
176
     1
 90
       50
176
     1
 90
       50
176
     1
 90
       50
176
     1
290
     0
176
     1
 90
       50
176
     1
 62
   256
176
     0
 40
1.0
176
     0
 90
        2
176
     1
  1
strokes_ogs.tif
176
     1
290
     0
176
     1
 40
1.0
176
     1
 40
1.0
176
     1
1001
ACAD
1000
AcDbSavedByObjectVersion
1070
     0
  0
VISUALSTYLE
  5
2C
102
{ACAD_REACTORS
330
29
102
}
330
29
100
AcDbVisualStyle
  2
Gouraud
 70
     2
177
     3
291
     1
 70
    58
 90
        2
176
     1
 90
        2
176
     1
 90
        1
176
     1
 90
        2
176
     1
 40
0.6
176
     1
 40
30.0
176
     1
 62
     7
420
 16777215
176
     1
 90
        0
176
     1
 90
        0
176
     1
 62
     7
176
     1
 62
   257
176
     1
 90
        1
176
     1
 90
        1
176
     1
 40
1.0
176
     1
 90
        0
176
     1
 62
     7
176
     1
 40
1.0
176
     1
 90
        1
176
     1
 90
        6
176
     1
 90
        2
176
     1
 62
     7
176
     1
 90
        5
176
     1
 90
        0
176
     1
 90
        0
176
     1
290
     0
176
     1
 90
       13
176
     1
 40
0.0
176
     1
 90
        0
176
     1
290
     0
176
     1
290
     1
176
     1
290
     1
176
     1
290
     0
176
     1
290
     0
176
     1
290
     0
176
     1
290
     0
176
     1
290
     0
176
     1
290
     0
176
     1
 90
       50
176
     1
 40
0.0
176
     1
 40
1.0
176
     1
 90
        0
176
     1
 62
    18
420
        0
176
     1
 90
       50
176
     1
 90
        3
176
     1
 62
     5
420
      255
176
     1
290
     0
176
     1
 90
       50
176
     1
 90
       50
176
     1
 90
       50
176
     1
290
     0
176
     1
 90
       50
176
     1
 62
   256
176
     0
 40
1.0
176
     0
 90
        2
176
     1
  1
strokes_ogs.tif
176
     1
290
     0
176
     1
 40
1.0
176
     1
 40
1.0
176
     1
1001
ACAD
1000
AcDbSavedByObjectVersion
1070
     0
  0
VISUALSTYLE
  5
2D
102
{ACAD_REACTORS
330
29
102
}
330
29
100
AcDbVisualStyle
  2
GouraudWithEdges
 70
     3
177
     3
291
     1
 70
    58
 90
        2
176
     1
 90
        2
176
     1
 90
        1
176
     1
 90
        2
176
     1
 40
0.6
176
     1
 40
30.0
176
     1
 62
     7
420
 16777215
176
     1
 90
        1
176
     1
 90
        0
176
     1
 62
     7
176
     1
 62
   257
176
     1
 90
        1
176
     1
 90
        1
176
     1
 40
1.0
176
     1
 90
        0
176
     1
 62
   257
176
     1
 40
1.0
176
     1
 90
        1
176
     1
 90
        6
176
     1
 90
        2
176
     1
 62
     7
176
     1
 90
        5
176
     1
 90
        0
176
     1
 90
        0
176
     1
290
     0
176
     1
 90
       13
176
     1
 40
0.0
176
     1
 90
        0
176
     1
290
     0
176
     1
290
     1
176
     1
290
     1
176
     1
290
     0
176
     1
290
     0
176
     1
290
     0
176
     1
290
     0
176
     1
290
     0
176
     1
290
     0
176
     1
 90
       50
176
     1
 40
0.0
176
     1
 40
1.0
176
     1
 90
        0
176
     1
 62
    18
420
        0
176
     1
 90
       50
176
     1
 90
        3
176
     1
 62
     5
420
      255
176
     1
290
     0
176
     1
 90
       50
176
     1
 90
       50
176
     1
 90
       50
176
     1
290
     0
176
     1
 90
       50
176
     1
 62
   256
176
     0
 40
1.0
176
     0
 90
        2
176
     1
  1
strokes_ogs.tif
176
     1
290
     0
176
     1
 40
1.0
176
     1
 40
1.0
176
     1
1001
ACAD
1000
AcDbSavedByObjectVersion
1070
     0
  0
VISUALSTYLE
  5
31
102
{ACAD_REACTORS
330
29
102
}
330
29
100
AcDbVisualStyle
  2
Hidden
 70
     6
177
     3
291
     0
 70
    58
 90
        1
176
     1
 90
        2
176
     1
 90
        2
176
     1
 90
        0
176
     1
 40
0.6
176
     1
 40
30.0
176
     1
 62
     7
420
 16777215
176
     1
 90
        2
176
     1
 90
        2
176
     1
 62
     7
176
     1
 62
   257
176
     1
 90
        2
176
     1
 90
        1
176
     1
 40
40.0
176
     1
 90
        0
176
     1
 62
   257
176
     1
 40
1.0
176
     1
 90
        1
176
     1
 90
        6
176
     1
 90
        2
176
     1
 62
     7
176
     1
 90
        3
176
     1
 90
        0
176
     1
 90
        0
176
     1
290
     0
176
     1
 90
        1
176
     1
 40
0.0
176
     1
 90
        0
176
     1
290
     0
176
     1
290
     1
176
     1
290
     1
176
     1
290
     0
176
     1
290
     0
176
     1
290
     0
176
     1
290
     0
176
     1
290
     0
176
     1
290
     0
176
     1
 90
       50
176
     1
 40
0.0
176
     1
 40
1.0
176
     1
 90
        0
176
     1
 62
    18
420
        0
176
     1
 90
       50
176
     1
 90
        3
176
     1
 62
     5
420
      255
176
     1
290
     0
176
     1
 90
       50
176
     1
 90
       50
176
     1
 90
       50
176
     1
290
     0
176
     1
 90
       50
176
     1
 62
   256
176
     0
 40
1.0
176
     0
 90
        2
176
     1
  1
strokes_ogs.tif
176
     1
290
     0
176
     1
 40
1.0
176
     1
 40
1.0
176
     1
1001
ACAD
1000
AcDbSavedByObjectVersion
1070
     0
  0
VISUALSTYLE
  5
3F
102
{ACAD_REACTORS
330
29
102
}
330
29
100
AcDbVisualStyle
  2
JitterOff
 70
    20
177
     3
291
     1
 70
    58
 90
        2
176
     0
 90
        2
176
     0
 90
        0
176
     0
 90
        0
176
     0
 40
0.6
176
     0
 40
30.0
176
     0
 62
     7
420
 16777215
176
     0
 90
        1
176
     0
 90
        4
176
     0
 62
     7
176
     0
 62
   257
176
     0
 90
        1
176
     0
 90
        1
176
     0
 40
1.0
176
     0
 90
       10
176
     2
 62
     7
176
     0
 40
1.0
176
     0
 90
        1
176
     0
 90
        6
176
     0
 90
        2
176
     0
 62
     7
176
     0
 90
        5
176
     0
 90
        0
176
     0
 90
        0
176
     0
290
     0
176
     0
 90
        1
176
     0
 40
0.0
176
     0
 90
        0
176
     0
290
     0
176
     0
290
     1
176
     0
290
     1
176
     0
290
     0
176
     0
290
     0
176
     0
290
     0
176
     0
290
     0
176
     0
290
     0
176
     0
290
     0
176
     0
 90
       50
176
     0
 40
0.0
176
     0
 40
1.0
176
     0
 90
        0
176
     0
 62
    18
420
        0
176
     0
 90
       50
176
     0
 90
        3
176
     0
 62
     5
420
      255
176
     0
290
     0
176
     0
 90
       50
176
     0
 90
       50
176
     0
 90
       50
176
     0
290
     0
176
     0
 90
       50
176
     0
 62
   256
176
     0
 40
1.0
176
     0
 90
        2
176
     0
  1
strokes_ogs.tif
176
     0
290
     0
176
     0
 40
1.0
176
     0
 40
1.0
176
     0
1001
ACAD
1000
AcDbSavedByObjectVersion
1070
     0
  0
VISUALSTYLE
  5
37
102
{ACAD_REACTORS
330
29
102
}
330
29
100
AcDbVisualStyle
  2
Linepattern
 70
    14
177
     3
291
     1
 70
    58
 90
        2
176
     1
 90
        2
176
     1
 90
        0
176
     1
 90
        0
176
     1
 40
0.6
176
     1
 40
30.0
176
     1
 62
     7
420
 16777215
176
     1
 90
        1
176
     1
 90
        4
176
     1
 62
     7
176
     1
 62
   257
176
     1
 90
        7
176
     1
 90
        7
176
     1
 40
1.0
176
     1
 90
        8
176
     1
 62
     7
176
     1
 40
1.0
176
     1
 90
        1
176
     1
 90
        6
176
     1
 90
        2
176
     1
 62
     7
176
     1
 90
        5
176
     1
 90
        0
176
     1
 90
        0
176
     1
290
     0
176
     1
 90
        1
176
     1
 40
0.0
176
     1
 90
        0
176
     1
290
     0
176
     1
290
     1
176
     1
290
     1
176
     1
290
     0
176
     1
290
     0
176
     1
290
     0
176
     1
290
     0
176
     1
290
     0
176
     1
290
     0
176
     1
 90
       50
176
     1
 40
0.0
176
     1
 40
1.0
176
     1
 90
        0
176
     1
 62
    18
420
        0
176
     1
 90
       50
176
     1
 90
        3
176
     1
 62
     5
420
      255
176
     1
290
     0
176
     1
 90
       50
176
     1
 90
       50
176
     1
 90
       50
176
     1
290
     0
176
     1
 90
       50
176
     1
 62
   256
176
     0
 40
1.0
176
     0
 90
        2
176
     1
  1
strokes_ogs.tif
176
     1
290
     0
176
     1
 40
1.0
176
     1
 40
1.0
176
     1
1001
ACAD
1000
AcDbSavedByObjectVersion
1070
     0
  0
VISUALSTYLE
  5
40
102
{ACAD_REACTORS
330
29
102
}
330
29
100
AcDbVisualStyle
  2
OverhangOff
 70
    21
177
     3
291
     1
 70
    58
 90
        2
176
     0
 90
        2
176
     0
 90
        0
176
     0
 90
        0
176
     0
 40
0.6
176
     0
 40
30.0
176
     0
 62
     7
420
 16777215
176
     0
 90
        1
176
     0
 90
        4
176
     0
 62
     7
176
     0
 62
   257
176
     0
 90
        1
176
     0
 90
        1
176
     0
 40
1.0
176
     0
 90
        9
176
     2
 62
     7
176
     0
 40
1.0
176
     0
 90
        1
176
     0
 90
        6
176
     0
 90
        2
176
     0
 62
     7
176
     0
 90
        5
176
     0
 90
        0
176
     0
 90
        0
176
     0
290
     0
176
     0
 90
        1
176
     0
 40
0.0
176
     0
 90
        0
176
     0
290
     0
176
     0
290
     1
176
     0
290
     1
176
     0
290
     0
176
     0
290
     0
176
     0
290
     0
176
     0
290
     0
176
     0
290
     0
176
     0
290
     0
176
     0
 90
       50
176
     0
 40
0.0
176
     0
 40
1.0
176
     0
 90
        0
176
     0
 62
    18
420
        0
176
     0
 90
       50
176
     0
 90
        3
176
     0
 62
     5
420
      255
176
     0
290
     0
176
     0
 90
       50
176
     0
 90
       50
176
     0
 90
       50
176
     0
290
     0
176
     0
 90
       50
176
     0
 62
   256
176
     0
 40
1.0
176
     0
 90
        2
176
     0
  1
strokes_ogs.tif
176
     0
290
     0
176
     0
 40
1.0
176
     0
 40
1.0
176
     0
1001
ACAD
1000
AcDbSavedByObjectVersion
1070
     0
  0
VISUALSTYLE
  5
33
102
{ACAD_REACTORS
330
29
102
}
330
29
100
AcDbVisualStyle
  2
Realistic
 70
     8
177
     3
291
     0
 70
    58
 90
        2
176
     1
 90
        3
176
     1
 90
        0
176
     1
 90
        2
176
     1
 40
0.6
176
     1
 40
30.0
176
     1
 62
     7
420
 16777215
176
     1
 90
        0
176
     1
 90
        0
176
     1
 62
     7
176
     1
 62
   257
176
     1
 90
        1
176
     1
 90
        1
176
     1
 40
1.0
176
     1
 90
        8
176
     1
 62
   257
176
     1
 40
1.0
176
     1
 90
        1
176
     1
 90
        6
176
     1
 90
        2
176
     1
 62
     7
176
     1
 90
        3
176
     1
 90
        0
176
     1
 90
        0
176
     1
290
     0
176
     1
 90
       13
176
     1
 40
0.0
176
     1
 90
        0
176
     1
290
     0
176
     1
290
     1
176
     1
290
     1
176
     1
290
     0
176
     1
290
     0
176
     1
290
     0
176
     1
290
     0
176
     1
290
     0
176
     1
290
     0
176
     1
 90
       50
176
     1
 40
0.0
176
     1
 40
1.0
176
     1
 90
        0
176
     1
 62
    18
420
        0
176
     1
 90
       50
176
     1
 90
        3
176
     1
 62
     5
420
      255
176
     1
290
     0
176
     1
 90
       50
176
     1
 90
       50
176
     1
 90
       50
176
     1
290
     0
176
     1
 90
       50
176
     1
 62
   256
176
     0
 40
1.0
176
     0
 90
        2
176
     1
  1
strokes_ogs.tif
176
     1
290
     0
176
     1
 40
1.0
176
     1
 40
1.0
176
     1
1001
ACAD
1000
AcDbSavedByObjectVersion
1070
     0
  0
VISUALSTYLE
  5
3E
102
{ACAD_REACTORS
330
29
102
}
330
29
100
AcDbVisualStyle
  2
Shaded
 70
    27
177
     3
291
     0
 70
    58
 90
        2
176
     1
 90
        2
176
     1
 90
        1
176
     1
 90
        2
176
     1
 40
0.6
176
     1
 40
30.0
176
     1
 62
     7
420
 16777215
176
     1
 90
        0
176
     1
 90
        4
176
     1
 62
     7
176
     1
 62
   257
176
     1
 90
        1
176
     1
 90
        1
176
     1
 40
1.0
176
     1
 90
        8
176
     1
 62
   257
176
     1
 40
1.0
176
     1
 90
        1
176
     1
 90
        6
176
     1
 90
        2
176
     1
 62
     8
420
  7895160
176
     1
 90
        3
176
     1
 90
        0
176
     1
 90
        0
176
     1
290
     0
176
     1
 90
        5
176
     1
 40
0.0
176
     1
 90
        0
176
     1
290
     0
176
     1
290
     1
176
     1
290
     1
176
     1
290
     0
176
     1
290
     0
176
     1
290
     0
176
     1
290
     0
176
     1
290
     0
176
     1
290
     0
176
     1
 90
       50
176
     1
 40
0.0
176
     1
 40
1.0
176
     1
 90
        0
176
     1
 62
    18
420
        0
176
     1
 90
       50
176
     1
 90
        3
176
     1
 62
     5
420
      255
176
     1
290
     0
176
     1
 90
       50
176
     1
 90
       50
176
     1
 90
       50
176
     1
290
     0
176
     1
 90
       50
176
     1
 62
   256
176
     0
 40
1.0
176
     0
 90
        2
176
     1
  1
strokes_ogs.tif
176
     1
290
     0
176
     1
 40
1.0
176
     1
 40
1.0
176
     1
1001
ACAD
1000
AcDbSavedByObjectVersion
1070
     0
  0
VISUALSTYLE
  5
3D
102
{ACAD_REACTORS
330
29
102
}
330
29
100
AcDbVisualStyle
  2
Shaded with edges
 70
    26
177
     3
291
     0
 70
    58
 90
        2
176
     1
 90
        2
176
     1
 90
        1
176
     1
 90
        2
176
     1
 40
0.6
176
     1
 40
30.0
176
     1
 62
     7
420
 16777215
176
     1
 90
        1
176
     1
 90
        2
176
     1
 62
     7
176
     1
 62
   257
176
     1
 90
        2
176
     1
 90
        1
176
     1
 40
1.0
176
     1
 90
        8
176
     1
 62
   257
176
     1
 40
1.0
176
     1
 90
        1
176
     1
 90
        6
176
     1
 90
        2
176
     1
 62
     7
176
     1
 90
        3
176
     1
 90
        0
176
     1
 90
        0
176
     1
290
     0
176
     1
 90
        5
176
     1
 40
0.0
176
     1
 90
        0
176
     1
290
     0
176
     1
290
     1
176
     1
290
     1
176
     1
290
     0
176
     1
290
     0
176
     1
290
     0
176
     1
290
     0
176
     1
290
     0
176
     1
290
     0
176
     1
 90
       50
176
     1
 40
0.0
176
     1
 40
1.0
176
     1
 90
        0
176
     1
 62
    18
420
        0
176
     1
 90
       50
176
     1
 90
        3
176
     1
 62
     5
420
      255
176
     1
290
     0
176
     1
 90
       50
176
     1
 90
       50
176
     1
 90
       50
176
     1
290
     0
176
     1
 90
       50
176
     1
 62
   256
176
     0
 40
1.0
176
     0
 90
        2
176
     1
  1
strokes_ogs.tif
176
     1
290
     0
176
     1
 40
1.0
176
     1
 40
1.0
176
     1
1001
ACAD
1000
AcDbSavedByObjectVersion
1070
     0
  0
VISUALSTYLE
  5
3A
102
{ACAD_REACTORS
330
29
102
}
330
29
100
AcDbVisualStyle
  2
Shades of Gray
 70
    23
177
     3
291
     0
 70
    58
 90
        2
176
     1
 90
        2
176
     1
 90
        3
176
     1
 90
        0
176
     1
 40
0.6
176
     1
 40
30.0
176
     1
 62
     7
420
 16777215
176
     1
 90
        2
176
     1
 90
        2
176
     1
 62
     7
176
     1
 62
     7
176
     1
 90
        1
176
     1
 90
        1
176
     1
 40
40.0
176
     1
 90
        8
176
     1
 62
     7
176
     1
 40
1.0
176
     1
 90
        1
176
     1
 90
        6
176
     1
 90
        2
176
     1
 62
     7
176
     1
 90
        3
176
     1
 90
        0
176
     1
 90
        0
176
     1
290
     0
176
     1
 90
        1
176
     1
 40
0.0
176
     1
 90
        0
176
     1
290
     0
176
     1
290
     1
176
     1
290
     1
176
     1
290
     0
176
     1
290
     0
176
     1
290
     0
176
     1
290
     0
176
     1
290
     0
176
     1
290
     0
176
     1
 90
       50
176
     1
 40
0.0
176
     1
 40
1.0
176
     1
 90
        0
176
     1
 62
    18
420
        0
176
     1
 90
       50
176
     1
 90
        3
176
     1
 62
     5
420
      255
176
     1
290
     0
176
     1
 90
       50
176
     1
 90
       50
176
     1
 90
       50
176
     1
290
     0
176
     1
 90
       50
176
     1
 62
   256
176
     0
 40
1.0
176
     0
 90
        2
176
     1
  1
strokes_ogs.tif
176
     1
290
     0
176
     1
 40
1.0
176
     1
 40
1.0
176
     1
1001
ACAD
1000
AcDbSavedByObjectVersion
1070
     0
  0
VISUALSTYLE
  5
3B
102
{ACAD_REACTORS
330
29
102
}
330
29
100
AcDbVisualStyle
  2
Sketchy
 70
    24
177
     3
291
     0
 70
    58
 90
        1
176
     1
 90
        2
176
     1
 90
        2
176
     1
 90
        0
176
     1
 40
0.6
176
     1
 40
30.0
176
     1
 62
     7
420
 16777215
176
     1
 90
        2
176
     1
 90
        2
176
     1
 62
     7
176
     1
 62
     7
176
     1
 90
        1
176
     1
 90
        1
176
     1
 40
40.0
176
     1
 90
       11
176
     1
 62
     7
176
     1
 40
1.0
176
     1
 90
        1
176
     1
 90
        6
176
     1
 90
        2
176
     1
 62
     7
176
     1
 90
        6
176
     1
 90
        0
176
     1
 90
        0
176
     1
290
     0
176
     1
 90
        1
176
     1
 40
0.0
176
     1
 90
        0
176
     1
290
     0
176
     1
290
     1
176
     1
290
     1
176
     1
290
     0
176
     1
290
     0
176
     1
290
     0
176
     1
290
     0
176
     1
290
     0
176
     1
290
     0
176
     1
 90
       50
176
     1
 40
0.0
176
     1
 40
1.0
176
     1
 90
        0
176
     1
 62
    18
420
        0
176
     1
 90
       50
176
     1
 90
        3
176
     1
 62
     5
420
      255
176
     1
290
     0
176
     1
 90
       50
176
     1
 90
       50
176
     1
 90
       50
176
     1
290
     0
176
     1
 90
       50
176
     1
 62
   256
176
     0
 40
1.0
176
     0
 90
        2
176
     1
  1
strokes_ogs.tif
176
     1
290
     0
176
     1
 40
1.0
176
     1
 40
1.0
176
     1
1001
ACAD
1000
AcDbSavedByObjectVersion
1070
     0
  0
VISUALSTYLE
  5
36
102
{ACAD_REACTORS
330
29
102
}
330
29
100
AcDbVisualStyle
  2
Thicken
 70
    13
177
     3
291
     1
 70
    58
 90
        2
176
     1
 90
        2
176
     1
 90
        0
176
     1
 90
        0
176
     1
 40
0.6
176
     1
 40
30.0
176
     1
 62
     7
420
 16777215
176
     1
 90
        1
176
     1
 90
        4
176
     1
 62
     7
176
     1
 62
   257
176
     1
 90
        1
176
     1
 90
        1
176
     1
 40
1.0
176
     1
 90
       12
176
     1
 62
     7
176
     1
 40
1.0
176
     1
 90
        1
176
     1
 90
        6
176
     1
 90
        2
176
     1
 62
     7
176
     1
 90
        5
176
     1
 90
        0
176
     1
 90
        0
176
     1
290
     0
176
     1
 90
        1
176
     1
 40
0.0
176
     1
 90
        0
176
     1
290
     0
176
     1
290
     1
176
     1
290
     1
176
     1
290
     0
176
     1
290
     0
176
     1
290
     0
176
     1
290
     0
176
     1
290
     0
176
     1
290
     0
176
     1
 90
       50
176
     1
 40
0.0
176
     1
 40
1.0
176
     1
 90
        0
176
     1
 62
    18
420
        0
176
     1
 90
       50
176
     1
 90
        3
176
     1
 62
     5
420
      255
176
     1
290
     0
176
     1
 90
       50
176
     1
 90
       50
176
     1
 90
       50
176
     1
290
     0
176
     1
 90
       50
176
     1
 62
   256
176
     0
 40
1.0
176
     0
 90
        2
176
     1
  1
strokes_ogs.tif
176
     1
290
     0
176
     1
 40
1.0
176
     1
 40
1.0
176
     1
1001
ACAD
1000
AcDbSavedByObjectVersion
1070
     0
  0
VISUALSTYLE
  5
30
102
{ACAD_REACTORS
330
29
102
}
330
29
100
AcDbVisualStyle
  2
Wireframe
 70
     5
177
     3
291
     0
 70
    58
 90
        0
176
     1
 90
        2
176
     1
 90
        0
176
     1
 90
        0
176
     1
 40
0.6
176
     1
 40
30.0
176
     1
 62
     7
420
 16777215
176
     1
 90
        1
176
     1
 90
        4
176
     1
 62
     7
176
     1
 62
   257
176
     1
 90
        1
176
     1
 90
        1
176
     1
 40
1.0
176
     1
 90
        0
176
     1
 62
   257
176
     1
 40
1.0
176
     1
 90
        1
176
     1
 90
        6
176
     1
 90
        2
176
     1
 62
     7
176
     1
 90
        3
176
     1
 90
        0
176
     1
 90
        0
176
     1
290
     0
176
     1
 90
        1
176
     1
 40
0.0
176
     1
 90
        0
176
     1
290
     0
176
     1
290
     1
176
     1
290
     1
176
     1
290
     0
176
     1
290
     0
176
     1
290
     0
176
     1
290
     0
176
     1
290
     0
176
     1
290
     0
176
     1
 90
       50
176
     1
 40
0.0
176
     1
 40
1.0
176
     1
 90
        0
176
     1
 62
    18
420
        0
176
     1
 90
       50
176
     1
 90
        3
176
     1
 62
     5
420
      255
176
     1
290
     0
176
     1
 90
       50
176
     1
 90
       50
176
     1
 90
       50
176
     1
290
     0
176
     1
 90
       50
176
     1
 62
   256
176
     0
 40
1.0
176
     0
 90
        2
176
     1
  1
strokes_ogs.tif
176
     1
290
     0
176
     1
 40
1.0
176
     1
 40
1.0
176
     1
1001
ACAD
1000
AcDbSavedByObjectVersion
1070
     0
  0
VISUALSTYLE
  5
3C
102
{ACAD_REACTORS
330
29
102
}
330
29
100
AcDbVisualStyle
  2
X-Ray
 70
    25
177
     3
291
     0
 70
    58
 90
        2
176
     1
 90
        2
176
     1
 90
        1
176
     1
 90
        1
176
     1
 40
0.5
176
     1
 40
30.0
176
     1
 62
     7
420
 16777215
176
     1
 90
        1
176
     1
 90
        0
176
     1
 62
     7
176
     1
 62
   257
176
     1
 90
        1
176
     1
 90
        1
176
     1
 40
1.0
176
     1
 90
        8
176
     1
 62
     7
176
     1
 40
1.0
176
     1
 90
        1
176
     1
 90
        6
176
     1
 90
        2
176
     1
 62
     7
176
     1
 90
        3
176
     1
 90
        0
176
     1
 90
        0
176
     1
290
     0
176
     1
 90
       13
176
     1
 40
0.0
176
     1
 90
        0
176
     1
290
     0
176
     1
290
     1
176
     1
290
     1
176
     1
290
     0
176
     1
290
     0
176
     1
290
     0
176
     1
290
     0
176
     1
290
     0
176
     1
290
     0
176
     1
 90
       50
176
     1
 40
0.0
176
     1
 40
1.0
176
     1
 90
        0
176
     1
 62
    18
420
        0
176
     1
 90
       50
176
     1
 90
        3
176
     1
 62
     5
420
      255
176
     1
290
     0
176
     1
 90
       50
176
     1
 90
       50
176
     1
 90
       50
176
     1
290
     0
176
     1
 90
       50
176
     1
 62
   256
176
     0
 40
1.0
176
     0
 90
        2
176
     1
  1
strokes_ogs.tif
176
     1
290
     0
176
     1
 40
1.0
176
     1
 40
1.0
176
     1
1001
ACAD
1000
AcDbSavedByObjectVersion
1070
     0
  0
DICTIONARYVAR
  5
221
102
{ACAD_REACTORS
330
21C
102
}
330
21C
100
DictionaryVariables
280
     0
  1
1:1
  0
DICTIONARYVAR
  5
21E
102
{ACAD_REACTORS
330
21C
102
}
330
21C
100
DictionaryVariables
280
     0
  1
STANDARD
  0
DICTIONARYVAR
  5
21D
102
{ACAD_REACTORS
330
21C
102
}
330
21C
100
DictionaryVariables
280
     0
  1
STANDARD
  0
DICTIONARYVAR
  5
21F
102
{ACAD_REACTORS
330
21C
102
}
330
21C
100
DictionaryVariables
280
     0
  1
Imperial24
  0
DICTIONARYVAR
  5
220
102
{ACAD_REACTORS
330
21C
102
}
330
21C
100
DictionaryVariables
280
     0
  1
Imperial24
  0
DICTIONARY
  5
227
330
6B
100
AcDbDictionary
280
     1
281
     1
  3
ACAD_XREC_ROUNDTRIP
360
228
  0
DICTIONARY
  5
1A
330
19
100
AcDbDictionary
280
     1
281
     1
  3
BUMPTILE
360
1C
  3
DIFFUSETILE
360
1B
  3
OPACITYTILE
360
1F
  3
REFLECTIONTILE
360
1E
  3
REFRACTIONTILE
360
20
  3
SPECULARTILE
360
1D
  0
DICTIONARY
  5
12
330
11
100
AcDbDictionary
280
     1
281
     1
  3
BUMPTILE
360
14
  3
DIFFUSETILE
360
13
  3
OPACITYTILE
360
17
  3
REFLECTIONTILE
360
16
  3
REFRACTIONTILE
360
18
  3
SPECULARTILE
360
15
  0
DICTIONARY
  5
22
330
21
100
AcDbDictionary
280
     1
281
     1
  3
BUMPTILE
360
24
  3
DIFFUSETILE
360
23
  3
OPACITYTILE
360
27
  3
REFLECTIONTILE
360
26
  3
REFRACTIONTILE
360
28
  3
SPECULARTILE
360
25
  0
DICTIONARY
  5
225
330
69
100
AcDbDictionary
280
     1
281
     1
  3
ACAD_XREC_ROUNDTRIP
360
226
  0
DICTIONARY
  5
222
330
65
100
AcDbDictionary
280
     1
281
     1
  3
ACAD_ROUNDTRIP_2008_TABLESTYLE_CELLSTYLEMAP
360
223
  0
XRECORD
  5
228
102
{ACAD_REACTORS
330
227
102
}
330
227
100
AcDbXrecord
280
     1
102
DISPLAYNAME
  1
Imperial24
102
FLAGS
 90
        0
  0
XRECORD
  5
1C
102
{ACAD_REACTORS
330
1A
102
}
330
1A
100
AcDbXrecord
280
     1
270
     1
271
     1
  0
XRECORD
  5
1B
102
{ACAD_REACTORS
330
1A
102
}
330
1A
100
AcDbXrecord
280
     1
270
     1
271
     1
  0
XRECORD
  5
1F
102
{ACAD_REACTORS
330
1A
102
}
330
1A
100
AcDbXrecord
280
     1
270
     1
271
     1
  0
XRECORD
  5
1E
102
{ACAD_REACTORS
330
1A
102
}
330
1A
100
AcDbXrecord
280
     1
270
     1
271
     1
  0
XRECORD
  5
20
102
{ACAD_REACTORS
330
1A
102
}
330
1A
100
AcDbXrecord
280
     1
270
     1
271
     1
  0
XRECORD
  5
1D
102
{ACAD_REACTORS
330
1A
102
}
330
1A
100
AcDbXrecord
280
     1
270
     1
271
     1
  0
XRECORD
  5
14
102
{ACAD_REACTORS
330
12
102
}
330
12
100
AcDbXrecord
280
     1
270
     1
271
     1
  0
XRECORD
  5
13
102
{ACAD_REACTORS
330
12
102
}
330
12
100
AcDbXrecord
280
     1
270
     1
271
     1
  0
XRECORD
  5
17
102
{ACAD_REACTORS
330
12
102
}
330
12
100
AcDbXrecord
280
     1
270
     1
271
     1
  0
XRECORD
  5
16
102
{ACAD_REACTORS
330
12
102
}
330
12
100
AcDbXrecord
280
     1
270
     1
271
     1
  0
XRECORD
  5
18
102
{ACAD_REACTORS
330
12
102
}
330
12
100
AcDbXrecord
280
     1
270
     1
271
     1
  0
XRECORD
  5
15
102
{ACAD_REACTORS
330
12
102
}
330
12
100
AcDbXrecord
280
     1
270
     1
271
     1
  0
XRECORD
  5
24
102
{ACAD_REACTORS
330
22
102
}
330
22
100
AcDbXrecord
280
     1
270
     1
271
     1
  0
XRECORD
  5
23
102
{ACAD_REACTORS
330
22
102
}
330
22
100
AcDbXrecord
280
     1
270
     1
271
     1
  0
XRECORD
  5
27
102
{ACAD_REACTORS
330
22
102
}
330
22
100
AcDbXrecord
280
     1
270
     1
271
     1
  0
XRECORD
  5
26
102
{ACAD_REACTORS
330
22
102
}
330
22
100
AcDbXrecord
280
     1
270
     1
271
     1
  0
XRECORD
  5
28
102
{ACAD_REACTORS
330
22
102
}
330
22
100
AcDbXrecord
280
     1
270
     1
271
     1
  0
XRECORD
  5
25
102
{ACAD_REACTORS
330
22
102
}
330
22
100
AcDbXrecord
280
     1
270
     1
271
     1
  0
XRECORD
  5
226
102
{ACAD_REACTORS
330
225
102
}
330
225
100
AcDbXrecord
280
     1
102
DISPLAYNAME
  1
Imperial24
102
FLAGS
 90
        0
  0
CELLSTYLEMAP
  5
223
102
{ACAD_REACTORS
330
222
102
}
330
222
100
AcDbCellStyleMap
 90
        3
300
CELLSTYLE
  1
TABLEFORMAT_BEGIN
 90
        5
170
     1
 91
        0
 92
    32768
 62
   257
 93
        1
300
CONTENTFORMAT
  1
CONTENTFORMAT_BEGIN
 90
        0
 91
        0
 92
      512
 93
        0
300

 40
0.0
140
1.0
 94
        5
 62
     0
340
55
144
0.25
309
CONTENTFORMAT_END
171
     0
 94
        0
309
TABLEFORMAT_END
  1
CELLSTYLE_BEGIN
 90
        1
 91
        1
300
_TITLE
309
CELLSTYLE_END
300
CELLSTYLE
  1
TABLEFORMAT_BEGIN
 90
        5
170
     1
 91
        0
 92
        0
 62
   257
 93
        1
300
CONTENTFORMAT
  1
CONTENTFORMAT_BEGIN
 90
        0
 91
        0
 92
      512
 93
        0
300

 40
0.0
140
1.0
 94
        5
 62
     0
340
55
144
0.18
309
CONTENTFORMAT_END
171
     0
 94
        0
309
TABLEFORMAT_END
  1
CELLSTYLE_BEGIN
 90
        2
 91
        1
300
_HEADER
309
CELLSTYLE_END
300
CELLSTYLE
  1
TABLEFORMAT_BEGIN
 90
        5
170
     1
 91
        0
 92
        0
 62
   257
 93
        1
300
CONTENTFORMAT
  1
CONTENTFORMAT_BEGIN
 90
        0
 91
        0
 92
      512
 93
        0
300

 40
0.0
140
1.0
 94
        2
 62
     0
340
55
144
0.18
309
CONTENTFORMAT_END
171
     0
 94
        0
309
TABLEFORMAT_END
  1
CELLSTYLE_BEGIN
 90
        3
 91
        2
300
_DATA
309
CELLSTYLE_END
  0
ENDSEC
  0
EOF
